GeoramaCondensed-ExtraLightItalic.ufo
<glyph name="exclam" format="2">
  <advance width="141.022"/>
  <unicode hex="0021"/>
  <outline>
    <contour>
      <point x="53.565999999999995" y="263.55" type="line"/>
      <point x="83.518" y="263.55" type="line"/>
      <point x="160.327" y="740.0" type="line"/>
      <point x="127.85499999999999" y="740.0" type="line"/>
    </contour>
    <contour>
      <point x="8.492" y="15.238" type="curve" smooth="yes"/>
      <point x="7.582000000000001" y="3.2049999999999996"/>
      <point x="10.970000000000002" y="-0.8999999999999999"/>
      <point x="25.802999999999997" y="-0.8999999999999999" type="curve" smooth="yes"/>
      <point x="48.339" y="-0.8999999999999999"/>
      <point x="51.076" y="8.028999999999998"/>
      <point x="53.80599999999999" y="34.998" type="curve" smooth="yes"/>
      <point x="54.716" y="47.849999999999994"/>
      <point x="49.69" y="51.135999999999996"/>
      <point x="35.685" y="51.135999999999996" type="curve" smooth="yes"/>
      <point x="14.904000000000002" y="51.135999999999996"/>
      <point x="11.222000000000001" y="42.324"/>
    </contour>
  </outline>
</glyph>
<glyph name="numbersign" format="2">
  <advance width="342.314"/>
  <unicode hex="0023"/>
  <outline>
    <contour>
      <point x="83.912" y="475.802" type="line"/>
      <point x="147.328" y="475.802" type="line"/>
      <point x="77.298" y="223.48899999999998" type="line"/>
      <point x="19.409000000000002" y="223.48899999999998" type="line"/>
      <point x="13.683" y="192.863" type="line"/>
      <point x="69.452" y="192.863" type="line"/>
      <point x="15.528000000000002" y="0.0" type="line"/>
      <point x="46.229" y="0.0" type="line"/>
      <point x="99.243" y="192.863" type="line"/>
      <point x="182.932" y="192.863" type="line"/>
      <point x="129.918" y="0.0" type="line"/>
      <point x="159.71900000000002" y="0.0" type="line"/>
      <point x="212.733" y="192.863" type="line"/>
      <point x="277.978" y="192.863" type="line"/>
      <point x="282.876" y="223.48899999999998" type="line"/>
      <point x="220.688" y="223.48899999999998" type="line"/>
      <point x="290.60900000000004" y="475.802" type="line"/>
      <point x="347.379" y="475.802" type="line"/>
      <point x="352.45799999999997" y="506.572" type="line"/>
      <point x="298.546" y="506.572" type="line"/>
      <point x="352.513" y="700.0" type="line"/>
      <point x="322.631" y="700.0" type="line"/>
      <point x="268.664" y="506.572" type="line"/>
      <point x="184.975" y="506.572" type="line"/>
      <point x="238.942" y="700.0" type="line"/>
      <point x="209.141" y="700.0" type="line"/>
      <point x="155.174" y="506.572" type="line"/>
      <point x="88.982" y="506.572" type="line"/>
    </contour>
    <contour>
      <point x="177.129" y="475.802" type="line"/>
      <point x="260.81800000000004" y="475.802" type="line"/>
      <point x="190.869" y="223.48899999999998" type="line"/>
      <point x="107.17999999999999" y="223.48899999999998" type="line"/>
    </contour>
  </outline>
</glyph>
<glyph name="dollar" format="2">
  <advance width="342.314"/>
  <unicode hex="0024"/>
  <outline>
    <contour>
      <point x="337.71200000000005" y="690.7719999999999" type="line"/>
      <point x="322.165" y="698.894"/>
      <point x="295.312" y="708.036"/>
      <point x="260.32" y="709.667" type="curve"/>
      <point x="275.41999999999996" y="804.8380000000001" type="line"/>
      <point x="245.54000000000002" y="804.8380000000001" type="line"/>
      <point x="229.469" y="707.7769999999999" type="line"/>
      <point x="132.569" y="699.1990000000001"/>
      <point x="86.918" y="603.134"/>
      <point x="86.918" y="523.644" type="curve" smooth="yes"/>
      <point x="86.918" y="375.752"/>
      <point x="242.43" y="303.17799999999994"/>
      <point x="242.43" y="172.977" type="curve" smooth="yes"/>
      <point x="242.43" y="95.096"/>
      <point x="188.324" y="23.282999999999998"/>
      <point x="109.13900000000001" y="23.282999999999998" type="curve" smooth="yes"/>
      <point x="70.691" y="23.282999999999998"/>
      <point x="32.581" y="31.617"/>
      <point x="8.536" y="44.07" type="curve"/>
      <point x="-6.376" y="13.225" type="line"/>
      <point x="13.581" y="3.134"/>
      <point x="51.112" y="-8.063"/>
      <point x="92.57900000000001" y="-9.505" type="curve"/>
      <point x="77.57900000000001" y="-105.0" type="line"/>
      <point x="107.45" y="-105.0" type="line"/>
      <point x="122.45" y="-8.398" type="line"/>
      <point x="224.97000000000003" y="-0.02700000000000033"/>
      <point x="276.542" y="92.14200000000001"/>
      <point x="276.542" y="177.912" type="curve" smooth="yes"/>
      <point x="276.542" y="324.65700000000004"/>
      <point x="121.542" y="394.929"/>
      <point x="121.542" y="525.7719999999999" type="curve" smooth="yes"/>
      <point x="121.542" y="596.968"/>
      <point x="168.994" y="677.671"/>
      <point x="244.455" y="677.671" type="curve" smooth="yes"/>
      <point x="281.04" y="677.671"/>
      <point x="302.16700000000003" y="671.342"/>
      <point x="323.754" y="661.268" type="curve"/>
    </contour>
  </outline>
</glyph>
<glyph name="ampersand" format="2">
  <advance width="406.562"/>
  <unicode hex="0026"/>
  <outline>
    <contour>
      <point x="143.483" y="-10.0" type="curve" smooth="yes"/>
      <point x="252.84600000000003" y="-10.0"/>
      <point x="347.509" y="147.10799999999998"/>
      <point x="331.755" y="292.995" type="curve"/>
      <point x="302.847" y="295.54" type="line"/>
      <point x="320.40500000000003" y="170.23800000000003"/>
      <point x="235.01900000000003" y="20.961000000000002"/>
      <point x="147.56" y="20.961000000000002" type="curve" smooth="yes"/>
      <point x="83.75300000000001" y="20.961000000000002"/>
      <point x="50.788" y="63.812"/>
      <point x="50.788" y="138.17800000000003" type="curve" smooth="yes"/>
      <point x="50.788" y="284.713"/>
      <point x="147.451" y="391.472"/>
      <point x="265.63" y="391.472" type="curve" smooth="yes"/>
      <point x="276.364" y="391.472" type="line"/>
      <point x="281.45799999999997" y="418.807" type="line"/>
      <point x="272.63300000000004" y="419.167" type="line" smooth="yes"/>
      <point x="208.749" y="419.869"/>
      <point x="172.478" y="463.271"/>
      <point x="172.478" y="542.414" type="curve" smooth="yes"/>
      <point x="172.478" y="618.5930000000001"/>
      <point x="217.88299999999998" y="680.042"/>
      <point x="281.37" y="680.042" type="curve" smooth="yes"/>
      <point x="313.23499999999996" y="680.042"/>
      <point x="339.079" y="670.3629999999999"/>
      <point x="365.518" y="647.5829999999999" type="curve"/>
      <point x="381.26300000000003" y="674.1109999999999" type="line"/>
      <point x="354.652" y="697.045"/>
      <point x="319.945" y="710.0"/>
      <point x="282.062" y="710.0" type="curve" smooth="yes"/>
      <point x="197.159" y="710.0"/>
      <point x="140.25600000000003" y="635.971"/>
      <point x="140.25600000000003" y="542.972" type="curve" smooth="yes"/>
      <point x="140.25600000000003" y="474.86899999999997"/>
      <point x="168.593" y="427.248"/>
      <point x="214.109" y="408.62" type="curve"/>
      <point x="101.00900000000001" y="384.46"/>
      <point x="18.188000000000002" y="275.903"/>
      <point x="18.188000000000002" y="133.993" type="curve" smooth="yes"/>
      <point x="18.188000000000002" y="44.632000000000005"/>
      <point x="60.861000000000004" y="-10.0"/>
    </contour>
    <contour>
      <point x="223.20000000000002" y="261.34999999999997" type="line"/>
      <point x="227.68500000000003" y="284.441"/>
      <point x="242.227" y="295.942"/>
      <point x="263.995" y="295.942" type="curve" smooth="yes"/>
      <point x="299.171" y="295.942"/>
      <point x="318.408" y="280.86199999999997"/>
      <point x="360.407" y="280.86199999999997" type="curve" smooth="yes"/>
      <point x="394.445" y="280.86199999999997"/>
      <point x="416.84400000000005" y="302.297"/>
      <point x="422.352" y="333.10600000000005" type="curve"/>
      <point x="398.087" y="340.477" type="line"/>
      <point x="392.192" y="317.112"/>
      <point x="376.344" y="306.279"/>
      <point x="351.894" y="306.279" type="curve" smooth="yes"/>
      <point x="321.88" y="306.279"/>
      <point x="292.612" y="321.46700000000004"/>
      <point x="260.39599999999996" y="321.46700000000004" type="curve" smooth="yes"/>
      <point x="226.316" y="321.46700000000004"/>
      <point x="205.997" y="301.77700000000004"/>
      <point x="198.23600000000002" y="270.223" type="curve"/>
    </contour>
  </outline>
</glyph>
<glyph name="quotesingle" format="2">
  <advance width="125.137"/>
  <unicode hex="0027"/>
  <outline>
    <contour>
      <point x="73.818" y="427.0" type="line"/>
      <point x="98.896" y="427.0" type="line"/>
      <point x="146.43599999999998" y="700.0" type="line"/>
      <point x="112.70100000000001" y="700.0" type="line"/>
    </contour>
  </outline>
</glyph>
<glyph name="parenleft" format="2">
  <advance width="198.39700000000002"/>
  <unicode hex="0028"/>
  <outline>
    <contour>
      <point x="32.452" y="-0.4800000000000007" type="curve" smooth="yes"/>
      <point x="32.452" y="-114.16399999999999"/>
      <point x="55.827" y="-195.92899999999997"/>
      <point x="102.086" y="-220.0" type="curve"/>
      <point x="115.427" y="-191.02" type="line"/>
      <point x="84.384" y="-174.55100000000002"/>
      <point x="61.486999999999995" y="-102.01700000000001"/>
      <point x="61.486999999999995" y="5.007999999999999" type="curve" smooth="yes"/>
      <point x="61.486999999999995" y="193.40099999999998"/>
      <point x="145.225" y="657.589"/>
      <point x="257.036" y="717.6720000000001" type="curve"/>
      <point x="253.835" y="749.181" type="line"/>
      <point x="111.06599999999999" y="677.9459999999999"/>
      <point x="32.452" y="222.591"/>
    </contour>
  </outline>
</glyph>
<glyph name="parenright" format="2">
  <advance width="198.39700000000002"/>
  <unicode hex="0029"/>
  <outline>
    <contour>
      <point x="163.755" y="530.298" type="curve" smooth="yes"/>
      <point x="163.755" y="644.573"/>
      <point x="141.017" y="725.9290000000001"/>
      <point x="94.667" y="750.0" type="curve"/>
      <point x="82.964" y="718.336" type="line"/>
      <point x="116.555" y="696.771"/>
      <point x="134.72" y="629.333"/>
      <point x="134.72" y="535.4119999999999" type="curve" smooth="yes"/>
      <point x="134.72" y="339.466"/>
      <point x="50.8" y="-129.318"/>
      <point x="-61.830000000000005" y="-189.12800000000001" type="curve"/>
      <point x="-57.809999999999995" y="-220.0" type="line"/>
      <point x="79.95400000000001" y="-144.41600000000003"/>
      <point x="163.755" y="304.49600000000004"/>
    </contour>
  </outline>
</glyph>
<glyph name="asterisk" format="2">
  <advance width="216.334"/>
  <unicode hex="002A"/>
  <outline>
    <contour>
      <point x="75.856" y="390.65" type="line"/>
      <point x="141.168" y="482.374" type="line"/>
      <point x="176.218" y="391.469" type="line"/>
      <point x="196.103" y="404.707" type="line"/>
      <point x="162.09799999999998" y="502.95099999999996" type="line"/>
      <point x="249.727" y="546.836" type="line"/>
      <point x="245.152" y="568.514" type="line"/>
      <point x="160.055" y="530.2740000000001" type="line"/>
      <point x="177.45" y="648.091" type="line"/>
      <point x="155.55300000000003" y="648.091" type="line"/>
      <point x="136.124" y="531.0930000000001" type="line"/>
      <point x="63.104" y="569.333" type="line"/>
      <point x="52.568000000000005" y="548.474" type="line"/>
      <point x="125.28099999999999" y="504.589" type="line"/>
      <point x="59.059000000000005" y="404.889" type="line"/>
    </contour>
  </outline>
</glyph>
<glyph name="plus" format="2">
  <advance width="363.077"/>
  <unicode hex="002B"/>
  <outline>
    <contour>
      <point x="135.74699999999999" y="79.506" type="line"/>
      <point x="166.689" y="79.506" type="line"/>
      <point x="197.94199999999998" y="276.25600000000003" type="line"/>
      <point x="321.948" y="276.25600000000003" type="line"/>
      <point x="327.009" y="308.26" type="line"/>
      <point x="203.00300000000001" y="308.26" type="line"/>
      <point x="234.356" y="505.82" type="line"/>
      <point x="203.432" y="505.82" type="line"/>
      <point x="172.061" y="308.26" type="line"/>
      <point x="47.263" y="308.26" type="line"/>
      <point x="42.202" y="276.25600000000003" type="line"/>
      <point x="167.01799999999997" y="276.25600000000003" type="line"/>
    </contour>
  </outline>
</glyph>
<glyph name="comma" format="2">
  <advance width="112.004"/>
  <unicode hex="002C"/>
  <outline>
    <contour>
      <point x="3.3810000000000002" y="40.384" type="line"/>
      <point x="4.473999999999999" y="27.725"/>
      <point x="4.296" y="14.552"/>
      <point x="4.017" y="3.5839999999999996" type="curve" smooth="yes"/>
      <point x="3.1620000000000004" y="-60.836999999999996"/>
      <point x="-32.039" y="-147.83899999999997"/>
      <point x="-78.586" y="-183.639" type="curve"/>
      <point x="-61.84000000000001" y="-200.594" type="line"/>
      <point x="10.550000000000002" y="-146.65699999999998"/>
      <point x="36.645" y="-39.129"/>
      <point x="36.645" y="11.214" type="curve" smooth="yes"/>
      <point x="36.645" y="22.841"/>
      <point x="36.282000000000004" y="33.477000000000004"/>
      <point x="34.162000000000006" y="47.026" type="curve"/>
    </contour>
  </outline>
</glyph>
<glyph name="hyphen" format="2">
  <advance width="207.226"/>
  <unicode hex="002D"/>
  <outline>
    <contour>
      <point x="18.745" y="251.29199999999997" type="line"/>
      <point x="180.879" y="251.29199999999997" type="line"/>
      <point x="187.083" y="284.548" type="line"/>
      <point x="24.949" y="284.548" type="line"/>
    </contour>
  </outline>
</glyph>
<glyph name="period" format="2">
  <advance width="112.121"/>
  <unicode hex="002E"/>
  <outline>
    <contour>
      <point x="-6.224" y="15.480999999999998" type="curve" smooth="yes"/>
      <point x="-7.134" y="3.367"/>
      <point x="-3.826999999999999" y="-0.657"/>
      <point x="11.087" y="-0.657" type="curve" smooth="yes"/>
      <point x="33.623" y="-0.657"/>
      <point x="36.279" y="8.272"/>
      <point x="39.009" y="35.403" type="curve" smooth="yes"/>
      <point x="39.919000000000004" y="48.174"/>
      <point x="34.974" y="51.379"/>
      <point x="20.968999999999998" y="51.379" type="curve" smooth="yes"/>
      <point x="0.1070000000000002" y="51.379"/>
      <point x="-3.4939999999999998" y="42.567"/>
    </contour>
  </outline>
</glyph>
<glyph name="slash" format="2">
  <advance width="230.37500000000003"/>
  <unicode hex="002F"/>
  <outline>
    <contour>
      <point x="-67.801" y="-210.0" type="line"/>
      <point x="-37.92600000000001" y="-210.0" type="line"/>
      <point x="295.17600000000004" y="740.0" type="line"/>
      <point x="265.13000000000005" y="740.0" type="line"/>
    </contour>
  </outline>
</glyph>
<glyph name="zero" format="2">
  <advance width="342.368"/>
  <unicode hex="0030"/>
  <outline>
    <contour>
      <point x="130.216" y="-10.09" type="curve" smooth="yes"/>
      <point x="279.796" y="-10.09"/>
      <point x="348.275" y="353.313"/>
      <point x="348.275" y="542.8249999999999" type="curve" smooth="yes"/>
      <point x="348.275" y="664.964"/>
      <point x="313.414" y="710.045"/>
      <point x="234.594" y="710.045" type="curve" smooth="yes"/>
      <point x="84.52700000000002" y="710.045"/>
      <point x="16.572000000000003" y="346.85100000000006"/>
      <point x="16.572000000000003" y="157.609" type="curve" smooth="yes"/>
      <point x="16.572000000000003" y="35.515"/>
      <point x="51.559999999999995" y="-10.09"/>
    </contour>
    <contour>
      <point x="132.196" y="22.815" type="curve" smooth="yes"/>
      <point x="74.12400000000001" y="22.815"/>
      <point x="48.82900000000001" y="59.6"/>
      <point x="49.702000000000005" y="156.96100000000004" type="curve" smooth="yes"/>
      <point x="51.313" y="339.69599999999997"/>
      <point x="115.991" y="677.1850000000001"/>
      <point x="232.61400000000003" y="677.1850000000001" type="curve" smooth="yes"/>
      <point x="290.84999999999997" y="677.1850000000001"/>
      <point x="316.01800000000003" y="640.654"/>
      <point x="315.14500000000004" y="543.293" type="curve" smooth="yes"/>
      <point x="313.534" y="360.73"/>
      <point x="248.647" y="22.815"/>
    </contour>
  </outline>
</glyph>
<glyph name="one" format="2">
  <advance width="342.314"/>
  <unicode hex="0031"/>
  <outline>
    <contour>
      <point x="-0.011999999999998956" y="0.0" type="line"/>
      <point x="282.821" y="0.0" type="line"/>
      <point x="287.954" y="32.869" type="line"/>
      <point x="167.257" y="32.869" type="line"/>
      <point x="273.504" y="700.91" type="line"/>
      <point x="255.72700000000003" y="700.91" type="line"/>
      <point x="75.554" y="577.948" type="line"/>
      <point x="84.468" y="548.0319999999999" type="line"/>
      <point x="232.055" y="649.6210000000001" type="line"/>
      <point x="134.299" y="32.869" type="line"/>
      <point x="5.040000000000002" y="32.869" type="line"/>
    </contour>
  </outline>
</glyph>
<glyph name="two" format="2">
  <advance width="342.368"/>
  <unicode hex="0032"/>
  <outline>
    <contour>
      <point x="7.634" y="27.439999999999998" type="curve"/>
      <point x="7.400000000000001" y="0.0" type="line"/>
      <point x="267.152" y="0.0" type="line"/>
      <point x="271.841" y="30.834999999999997" type="line"/>
      <point x="48.686" y="30.834999999999997" type="line"/>
      <point x="191.10399999999998" y="219.119"/>
      <point x="316.492" y="424.114"/>
      <point x="316.492" y="592.2429999999999" type="curve" smooth="yes"/>
      <point x="316.492" y="665.8770000000001"/>
      <point x="280.041" y="710.0"/>
      <point x="217.452" y="710.0" type="curve" smooth="yes"/>
      <point x="171.953" y="710.0"/>
      <point x="130.92200000000003" y="692.2880000000001"/>
      <point x="94.89699999999999" y="655.206" type="curve"/>
      <point x="106.82700000000001" y="628.9259999999998" type="line"/>
      <point x="144.316" y="663.1709999999998"/>
      <point x="172.007" y="676.494"/>
      <point x="208.54900000000004" y="676.494" type="curve" smooth="yes"/>
      <point x="255.098" y="676.494"/>
      <point x="282.822" y="641.905"/>
      <point x="282.822" y="581.7540000000001" type="curve" smooth="yes"/>
      <point x="282.084" y="434.851"/>
      <point x="165.447" y="235.785"/>
    </contour>
  </outline>
</glyph>
<glyph name="three" format="2">
  <advance width="342.45000000000005"/>
  <unicode hex="0033"/>
  <outline>
    <contour>
      <point x="-17.88" y="38.4775" type="line"/>
      <point x="9.945" y="6.885000000000001"/>
      <point x="52.940000000000005" y="-10.0"/>
      <point x="106.80749999999999" y="-10.0" type="curve" smooth="yes"/>
      <point x="214.295" y="-10.0"/>
      <point x="288.09749999999997" y="94.985"/>
      <point x="288.09749999999997" y="247.5225" type="curve" smooth="yes"/>
      <point x="288.09749999999997" y="319.0975"/>
      <point x="261.5175" y="360.0575"/>
      <point x="224.67499999999998" y="370.90999999999997" type="curve"/>
      <point x="273.2675" y="392.3625"/>
      <point x="319.95250000000004" y="468.635"/>
      <point x="319.95250000000004" y="572.4025" type="curve" smooth="yes"/>
      <point x="319.95250000000004" y="654.36"/>
      <point x="278.8125" y="710.0"/>
      <point x="205.82750000000001" y="710.0" type="curve" smooth="yes"/>
      <point x="170.365" y="710.0"/>
      <point x="125.57000000000001" y="696.5075"/>
      <point x="95.795" y="674.5925" type="curve"/>
      <point x="108.0275" y="647.5975" type="line"/>
      <point x="137.3775" y="667.8325"/>
      <point x="168.56" y="676.3975"/>
      <point x="199.3225" y="676.3975" type="curve" smooth="yes"/>
      <point x="252.65750000000003" y="676.3975"/>
      <point x="286.26" y="629.64"/>
      <point x="286.26" y="563.8575" type="curve" smooth="yes"/>
      <point x="286.26" y="468.53999999999996"/>
      <point x="236.895" y="381.96"/>
      <point x="176.9775" y="381.96" type="curve" smooth="yes"/>
      <point x="122.175" y="381.96" type="line"/>
      <point x="117.35249999999999" y="353.07" type="line"/>
      <point x="180.175" y="353.07" type="line" smooth="yes"/>
      <point x="227.9975" y="353.07"/>
      <point x="254.39250000000004" y="316.785"/>
      <point x="254.39250000000004" y="243.48749999999998" type="curve" smooth="yes"/>
      <point x="254.39250000000004" y="116.88000000000001"/>
      <point x="195.635" y="23.1075"/>
      <point x="108.37499999999999" y="23.1075" type="curve" smooth="yes"/>
      <point x="62.68000000000001" y="23.1075"/>
      <point x="29.902499999999996" y="36.47749999999999"/>
      <point x="2.5624999999999996" y="63.3975" type="curve"/>
    </contour>
  </outline>
</glyph>
<glyph name="four" format="2">
  <advance width="342.45000000000005"/>
  <unicode hex="0034"/>
  <outline>
    <contour>
      <point x="16.885" y="183.1925" type="line"/>
      <point x="206.3675" y="183.1925" type="line"/>
      <point x="177.465" y="-0.66" type="line"/>
      <point x="211.2025" y="-0.66" type="line"/>
      <point x="239.9" y="183.1925" type="line"/>
      <point x="309.36499999999995" y="183.1925" type="line"/>
      <point x="314.21" y="214.96" type="line"/>
      <point x="244.85750000000002" y="214.96" type="line"/>
      <point x="321.495" y="698.6575" type="line"/>
      <point x="292.4325" y="703.64" type="line"/>
      <point x="16.474999999999998" y="211.8475" type="line"/>
    </contour>
    <contour>
      <point x="47.0875" y="214.96" type="line"/>
      <point x="276.77750000000003" y="618.66" type="line"/>
      <point x="211.95499999999998" y="214.96" type="line"/>
    </contour>
  </outline>
</glyph>
<glyph name="five" format="2">
  <advance width="342.368"/>
  <unicode hex="0035"/>
  <outline>
    <contour>
      <point x="-6.1240000000000006" y="41.7705" type="line"/>
      <point x="19.422000000000004" y="8.415"/>
      <point x="55.3315" y="-10.0"/>
      <point x="105.0895" y="-10.0" type="curve" smooth="yes"/>
      <point x="249.13949999999997" y="-10.0"/>
      <point x="294.0305" y="154.7775"/>
      <point x="294.0305" y="257.06850000000003" type="curve" smooth="yes"/>
      <point x="294.0305" y="338.754"/>
      <point x="259.70950000000005" y="386.693"/>
      <point x="187.79350000000005" y="387.09799999999996" type="curve" smooth="yes"/>
      <point x="105.3625" y="387.233" type="line"/>
      <point x="164.785" y="666.0645000000001" type="line"/>
      <point x="334.835" y="666.0645000000001" type="line"/>
      <point x="340.0545" y="700.0" type="line"/>
      <point x="141.624" y="700.0" type="line"/>
      <point x="69.10100000000001" y="365.97049999999996" type="line"/>
      <point x="77.57700000000001" y="354.9175" type="line"/>
      <point x="174.63299999999998" y="354.9175" type="line" smooth="yes"/>
      <point x="237.07100000000003" y="354.9175"/>
      <point x="259.9940000000001" y="315.7735"/>
      <point x="259.9940000000001" y="249.6825" type="curve" smooth="yes"/>
      <point x="259.9940000000001" y="169.946"/>
      <point x="220.44500000000002" y="23.13"/>
      <point x="108.2795" y="23.13" type="curve" smooth="yes"/>
      <point x="62.512499999999996" y="23.13"/>
      <point x="33.91299999999999" y="43.976"/>
      <point x="14.119" y="67.515" type="curve"/>
    </contour>
  </outline>
</glyph>
<glyph name="six" format="2">
  <advance width="342.45"/>
  <unicode hex="0036"/>
  <note>
14
</note>
  <outline>
    <contour>
      <point x="142.53500000000003" y="-10.0" type="curve" smooth="yes"/>
      <point x="240.905" y="-10.0"/>
      <point x="308.97" y="105.15"/>
      <point x="308.97" y="265.88500000000005" type="curve" smooth="yes"/>
      <point x="308.97" y="360.305"/>
      <point x="268.585" y="406.44"/>
      <point x="198.63" y="406.44" type="curve" smooth="yes"/>
      <point x="147.305" y="406.44"/>
      <point x="90.59" y="369.605"/>
      <point x="55.16" y="294.11" type="curve"/>
      <point x="49.735" y="231.985" type="line"/>
      <point x="79.475" y="315.66499999999996"/>
      <point x="134.015" y="375.56"/>
      <point x="192.89999999999998" y="375.56" type="curve" smooth="yes"/>
      <point x="248.225" y="375.56"/>
      <point x="275.45" y="334.875"/>
      <point x="275.45" y="259.31" type="curve" smooth="yes"/>
      <point x="275.45" y="128.365"/>
      <point x="218.25500000000002" y="21.075000000000003"/>
      <point x="144.27499999999998" y="21.075000000000003" type="curve" smooth="yes"/>
      <point x="85.80499999999999" y="21.075000000000003"/>
      <point x="54.285" y="68.93"/>
      <point x="54.285" y="159.22" type="curve" smooth="yes"/>
      <point x="54.285" y="304.13"/>
      <point x="82.8" y="445.205"/>
      <point x="128.025" y="546.52" type="curve" smooth="yes"/>
      <point x="163.79000000000002" y="626.585"/>
      <point x="211.69" y="677.455"/>
      <point x="270.495" y="677.455" type="curve" smooth="yes"/>
      <point x="299.68" y="677.455"/>
      <point x="324.11" y="668.685"/>
      <point x="350.275" y="651.5649999999999" type="curve"/>
      <point x="367.04" y="679.305" type="line"/>
      <point x="337.94" y="699.9"/>
      <point x="308.56" y="710.0"/>
      <point x="269.065" y="710.0" type="curve" smooth="yes"/>
      <point x="120.37" y="710.0"/>
      <point x="21.83" y="450.36"/>
      <point x="21.83" y="157.31" type="curve" smooth="yes"/>
      <point x="21.83" y="45.315"/>
      <point x="63.235" y="-10.0"/>
    </contour>
  </outline>
</glyph>
<glyph name="seven" format="2">
  <advance width="342.314"/>
  <unicode hex="0037"/>
  <note>
9
</note>
  <outline>
    <contour>
      <point x="69.167" y="0.0" type="curve"/>
      <point x="103.543" y="0.0" type="line"/>
      <point x="122.649" y="114.827"/>
      <point x="152.768" y="223.49299999999997"/>
      <point x="242.169" y="418.739" type="curve" smooth="yes"/>
      <point x="358.08099999999996" y="672.505" type="line"/>
      <point x="362.69200000000006" y="700.0" type="line"/>
      <point x="87.631" y="700.0" type="line"/>
      <point x="82.417" y="666.167" type="line"/>
      <point x="320.713" y="666.167" type="line"/>
      <point x="215.91799999999998" y="439.755" type="line" smooth="yes"/>
      <point x="132.126" y="258.993"/>
      <point x="91.695" y="142.755"/>
    </contour>
  </outline>
</glyph>
<glyph name="eight" format="2">
  <advance width="342.45"/>
  <unicode hex="0038"/>
  <outline>
    <contour>
      <point x="138.645" y="-10.0" type="curve" smooth="yes"/>
      <point x="245.61499999999998" y="-10.0"/>
      <point x="306.525" y="78.5"/>
      <point x="306.525" y="191.845" type="curve" smooth="yes"/>
      <point x="306.525" y="370.085"/>
      <point x="107.13" y="372.31"/>
      <point x="107.13" y="530.76" type="curve" smooth="yes"/>
      <point x="107.13" y="617.5500000000001"/>
      <point x="151.42000000000002" y="678.3100000000001"/>
      <point x="225.125" y="678.3100000000001" type="curve" smooth="yes"/>
      <point x="288.3" y="678.3100000000001"/>
      <point x="315.21" y="638.56"/>
      <point x="315.21" y="577.0899999999999" type="curve" smooth="yes"/>
      <point x="315.21" y="486.71999999999997"/>
      <point x="276.79499999999996" y="416.685"/>
      <point x="198.505" y="368.47" type="curve"/>
      <point x="218.75" y="351.085" type="line"/>
      <point x="301.59" y="400.82"/>
      <point x="347.26" y="479.43"/>
      <point x="347.26" y="580.915" type="curve" smooth="yes"/>
      <point x="347.26" y="657.57"/>
      <point x="311.23" y="710.0"/>
      <point x="226.32500000000002" y="710.0" type="curve" smooth="yes"/>
      <point x="129.69" y="710.0"/>
      <point x="74.27" y="633.185"/>
      <point x="74.27" y="523.795" type="curve" smooth="yes"/>
      <point x="74.27" y="352.83"/>
      <point x="273.39500000000004" y="355.165"/>
      <point x="273.39500000000004" y="187.26" type="curve" smooth="yes"/>
      <point x="273.39500000000004" y="94.36"/>
      <point x="224.45" y="21.06"/>
      <point x="140.63500000000002" y="21.06" type="curve" smooth="yes"/>
      <point x="69.59500000000001" y="21.06"/>
      <point x="33.82" y="62.79"/>
      <point x="33.82" y="136.155" type="curve" smooth="yes"/>
      <point x="33.82" y="235.04"/>
      <point x="78.04" y="323.84"/>
      <point x="166.695" y="368.66999999999996" type="curve"/>
      <point x="145.09" y="388.84499999999997" type="line"/>
      <point x="49.38999999999999" y="337.045"/>
      <point x="-0.10499999999999993" y="241.72"/>
      <point x="-0.10499999999999993" y="129.58" type="curve" smooth="yes"/>
      <point x="-0.10499999999999993" y="41.635000000000005"/>
      <point x="44.045" y="-10.0"/>
    </contour>
  </outline>
</glyph>
<glyph name="nine" format="2">
  <advance width="342.45"/>
  <unicode hex="0039"/>
  <outline>
    <contour>
      <point x="222.45499999999998" y="710.0" type="curve" smooth="yes"/>
      <point x="124.08500000000001" y="710.0"/>
      <point x="55.885" y="594.85"/>
      <point x="55.885" y="434.11499999999995" type="curve" smooth="yes"/>
      <point x="55.885" y="339.695"/>
      <point x="95.865" y="293.695"/>
      <point x="165.685" y="293.695" type="curve" smooth="yes"/>
      <point x="217.14499999999998" y="293.695"/>
      <point x="274.4" y="329.99"/>
      <point x="309.695" y="407.24" type="curve"/>
      <point x="315.12000000000006" y="468.15" type="line"/>
      <point x="285.51500000000004" y="384.47"/>
      <point x="230.84" y="324.57500000000005"/>
      <point x="171.955" y="324.57500000000005" type="curve" smooth="yes"/>
      <point x="116.765" y="324.57500000000005"/>
      <point x="89.53999999999999" y="365.125"/>
      <point x="89.53999999999999" y="440.69" type="curve" smooth="yes"/>
      <point x="89.53999999999999" y="571.77"/>
      <point x="146.73499999999999" y="678.9250000000001"/>
      <point x="220.58" y="678.9250000000001" type="curve" smooth="yes"/>
      <point x="278.915" y="678.9250000000001"/>
      <point x="310.57" y="631.07"/>
      <point x="310.57" y="540.9150000000001" type="curve" smooth="yes"/>
      <point x="310.57" y="397.22"/>
      <point x="282.325" y="254.795"/>
      <point x="236.965" y="153.345" type="curve" smooth="yes"/>
      <point x="201.335" y="73.28"/>
      <point x="153.57000000000002" y="22.41"/>
      <point x="98.11" y="22.41" type="curve" smooth="yes"/>
      <point x="69.05999999999999" y="22.41"/>
      <point x="41.495" y="30.7"/>
      <point x="14.58" y="55.395" type="curve"/>
      <point x="-2.1850000000000005" y="27.52" type="line"/>
      <point x="27.8" y="-0.5150000000000001"/>
      <point x="60.18" y="-10.0"/>
      <point x="99.945" y="-10.0" type="curve" smooth="yes"/>
      <point x="242.025" y="-10.0"/>
      <point x="343.02500000000003" y="249.64000000000001"/>
      <point x="343.02500000000003" y="542.8249999999999" type="curve" smooth="yes"/>
      <point x="343.02500000000003" y="654.8199999999999"/>
      <point x="301.62" y="710.0"/>
    </contour>
  </outline>
</glyph>
<glyph name="less" format="2">
  <advance width="363.582"/>
  <unicode hex="003C"/>
  <outline>
    <contour>
      <point x="293.601" y="88.107" type="line"/>
      <point x="298.419" y="121.45500000000001" type="line"/>
      <point x="71.275" y="291.12399999999997" type="line"/>
      <point x="352.716" y="461.68399999999997" type="line"/>
      <point x="357.534" y="496.69800000000004" type="line"/>
      <point x="46.876000000000005" y="310.94300000000004" type="line"/>
      <point x="40.986999999999995" y="274.689" type="line"/>
    </contour>
  </outline>
</glyph>
<glyph name="equal" format="2">
  <advance width="360.50300000000004"/>
  <unicode hex="003D"/>
  <outline>
    <contour>
      <point x="307.08500000000004" y="204.686" type="line"/>
      <point x="31.064999999999998" y="204.686" type="line"/>
      <point x="26.166000000000004" y="171.863" type="line"/>
      <point x="302.18600000000004" y="171.863" type="line"/>
    </contour>
    <contour>
      <point x="339.085" y="413.205" type="line"/>
      <point x="63.137" y="413.205" type="line"/>
      <point x="58.166" y="380.382" type="line"/>
      <point x="334.186" y="380.382" type="line"/>
    </contour>
  </outline>
</glyph>
<glyph name="greater" format="2">
  <advance width="363.582"/>
  <unicode hex="003E"/>
  <outline>
    <contour>
      <point x="323.01" y="272.232" type="line"/>
      <point x="328.881" y="308.351" type="line"/>
      <point x="75.547" y="494.96999999999997" type="line"/>
      <point x="70.711" y="461.77500000000003" type="line"/>
      <point x="298.76399999999995" y="291.943" type="line"/>
      <point x="17.250999999999998" y="122.36500000000001" type="line"/>
      <point x="11.605" y="86.46900000000001" type="line"/>
    </contour>
  </outline>
</glyph>
<glyph name="question" format="2">
  <advance width="272.16499999999996"/>
  <unicode hex="003F"/>
  <outline>
    <contour>
      <point x="104.455" y="263.36699999999996" type="line"/>
      <point x="134.398" y="263.36699999999996" type="line"/>
      <point x="146.289" y="339.47400000000005" type="line"/>
      <point x="239.612" y="418.668"/>
      <point x="302.79699999999997" y="480.203"/>
      <point x="302.79699999999997" y="622.2919999999999" type="curve" smooth="yes"/>
      <point x="302.79699999999997" y="709.805"/>
      <point x="257.314" y="750.0"/>
      <point x="200.445" y="750.0" type="curve" smooth="yes"/>
      <point x="158.34099999999998" y="750.0"/>
      <point x="113.62" y="728.353"/>
      <point x="75.65599999999999" y="693.865" type="curve"/>
      <point x="86.75999999999999" y="666.922" type="line"/>
      <point x="124.551" y="700.1179999999999"/>
      <point x="160.55599999999998" y="715.657"/>
      <point x="192.78300000000002" y="715.657" type="curve" smooth="yes"/>
      <point x="236.459" y="715.657"/>
      <point x="268.315" y="681.144"/>
      <point x="268.315" y="614.844" type="curve" smooth="yes"/>
      <point x="268.315" y="506.406"/>
      <point x="224.86100000000002" y="436.982"/>
      <point x="118.904" y="355.897" type="curve"/>
    </contour>
    <contour>
      <point x="60.739" y="14.892999999999999" type="curve" smooth="yes"/>
      <point x="60.01" y="3.034"/>
      <point x="63.227" y="-0.8999999999999999"/>
      <point x="77.88799999999999" y="-0.8999999999999999" type="curve" smooth="yes"/>
      <point x="100.33200000000001" y="-0.8999999999999999"/>
      <point x="103.794" y="7.704999999999999"/>
      <point x="105.98100000000001" y="35.00900000000001" type="curve" smooth="yes"/>
      <point x="106.71" y="47.849999999999994"/>
      <point x="101.846" y="51.04599999999999"/>
      <point x="88.103" y="51.04599999999999" type="curve" smooth="yes"/>
      <point x="67.26100000000001" y="51.04599999999999"/>
      <point x="62.926" y="42.414"/>
    </contour>
  </outline>
</glyph>
<glyph name="at" format="2">
  <advance width="481.555"/>
  <unicode hex="0040"/>
  <outline>
    <contour>
      <point x="176.9" y="-123.295" type="curve" smooth="yes"/>
      <point x="232.525" y="-123.295"/>
      <point x="281.45" y="-99.03500000000001"/>
      <point x="316.64500000000004" y="-51.485" type="curve"/>
      <point x="302.83" y="-38.725" type="line"/>
      <point x="272.05499999999995" y="-79.91"/>
      <point x="229.60999999999999" y="-101.24"/>
      <point x="179.06" y="-101.24" type="curve" smooth="yes"/>
      <point x="87.24" y="-101.24"/>
      <point x="34.769999999999996" y="-32.74"/>
      <point x="34.769999999999996" y="101.865" type="curve" smooth="yes"/>
      <point x="34.769999999999996" y="412.2"/>
      <point x="163.505" y="690.5600000000001"/>
      <point x="328.81" y="690.5600000000001" type="curve" smooth="yes"/>
      <point x="412.845" y="690.5600000000001"/>
      <point x="464.67999999999995" y="648.51"/>
      <point x="464.67999999999995" y="521.2099999999999" type="curve" smooth="yes"/>
      <point x="464.67999999999995" y="329.52"/>
      <point x="393.39500000000004" y="87.105"/>
      <point x="330.755" y="87.105" type="curve" smooth="yes"/>
      <point x="295.31" y="87.105"/>
      <point x="304.485" y="155.87"/>
      <point x="313.185" y="196.76999999999998" type="curve" smooth="yes"/>
      <point x="385.48" y="521.1999999999999" type="line"/>
      <point x="354.04499999999996" y="534.345"/>
      <point x="330.08" y="539.7199999999999"/>
      <point x="302.34999999999997" y="539.7199999999999" type="curve" smooth="yes"/>
      <point x="205.74" y="539.7199999999999"/>
      <point x="117.91499999999999" y="316.32500000000005"/>
      <point x="117.91499999999999" y="144.505" type="curve" smooth="yes"/>
      <point x="117.91499999999999" y="89.585"/>
      <point x="141.01" y="63.285000000000004"/>
      <point x="178.685" y="63.285000000000004" type="curve" smooth="yes"/>
      <point x="216.6" y="63.285000000000004"/>
      <point x="255.00500000000002" y="92.6"/>
      <point x="281.04" y="153.555" type="curve"/>
      <point x="280.38" y="124.76"/>
      <point x="275.285" y="62.63"/>
      <point x="328.36" y="62.63" type="curve" smooth="yes"/>
      <point x="414.47" y="62.63"/>
      <point x="488.14000000000004" y="328.78000000000003"/>
      <point x="488.14000000000004" y="527.225" type="curve" smooth="yes"/>
      <point x="488.14000000000004" y="655.9"/>
      <point x="428.85" y="713.64"/>
      <point x="331.135" y="713.64" type="curve" smooth="yes"/>
      <point x="149.91" y="713.64"/>
      <point x="11.334999999999999" y="430.915"/>
      <point x="11.334999999999999" y="94.08" type="curve" smooth="yes"/>
      <point x="11.334999999999999" y="-46.95"/>
      <point x="70.455" y="-123.295"/>
    </contour>
    <contour>
      <point x="189.495" y="94.28999999999999" type="curve" smooth="yes"/>
      <point x="163.96" y="94.28999999999999"/>
      <point x="150.295" y="114.46000000000001"/>
      <point x="150.295" y="154.44" type="curve" smooth="yes"/>
      <point x="150.295" y="309.765"/>
      <point x="235.29" y="513.12"/>
      <point x="299.93" y="513.12" type="curve" smooth="yes"/>
      <point x="316.50500000000005" y="513.12"/>
      <point x="334.655" y="510.005"/>
      <point x="352.03" y="503.025" type="curve"/>
      <point x="290.59000000000003" y="232.54999999999998" type="line" smooth="yes"/>
      <point x="267.66499999999996" y="145.335"/>
      <point x="225.02" y="94.28999999999999"/>
    </contour>
  </outline>
</glyph>
<glyph name="A" format="2">
  <advance width="349.3025"/>
  <unicode hex="0041"/>
  <anchor x="128.4325" y="0.0" name="bottom"/>
  <anchor x="287.3775" y="0.0" name="ogonek"/>
  <anchor x="237.915" y="700.0" name="top"/>
  <outline>
    <contour>
      <point x="-26.075000000000003" y="0.0" type="line"/>
      <point x="8.3425" y="0.0" type="line"/>
      <point x="82.25500000000001" y="209.7725" type="line"/>
      <point x="244.90249999999997" y="209.7725" type="line"/>
      <point x="253.03" y="0.0" type="line"/>
      <point x="287.3775" y="0.0" type="line"/>
      <point x="259.485" y="709.19" type="line"/>
      <point x="220.62" y="709.19" type="line"/>
    </contour>
    <contour>
      <point x="92.29" y="241.755" type="line"/>
      <point x="229.88000000000002" y="643.6" type="line"/>
      <point x="245.0975" y="241.755" type="line"/>
    </contour>
  </outline>
</glyph>
<glyph name="B" format="2">
  <advance width="343.99499999999995"/>
  <unicode hex="0042"/>
  <outline>
    <contour>
      <point x="5.729000000000001" y="-4.0089999999999995" type="line"/>
      <point x="48.276" y="-8.375"/>
      <point x="76.143" y="-10.0"/>
      <point x="110.672" y="-10.0" type="curve" smooth="yes"/>
      <point x="246.441" y="-10.0"/>
      <point x="308.50100000000003" y="120.255"/>
      <point x="308.50100000000003" y="236.142" type="curve" smooth="yes"/>
      <point x="308.50100000000003" y="306.97999999999996"/>
      <point x="276.916" y="347.381"/>
      <point x="230.64800000000002" y="360.41799999999995" type="curve"/>
      <point x="308.401" y="390.726"/>
      <point x="344.61600000000004" y="507.431"/>
      <point x="344.61600000000004" y="591.29" type="curve" smooth="yes"/>
      <point x="344.61600000000004" y="671.789"/>
      <point x="305.41400000000004" y="710.0"/>
      <point x="218.393" y="710.0" type="curve" smooth="yes"/>
      <point x="192.88500000000002" y="710.0"/>
      <point x="162.031" y="707.7189999999999"/>
      <point x="117.159" y="702.3710000000001" type="curve"/>
    </contour>
    <contour>
      <point x="98.444" y="370.84599999999995" type="line"/>
      <point x="146.191" y="674.363" type="line"/>
      <point x="171.195" y="677.646"/>
      <point x="194.331" y="679.373"/>
      <point x="216.669" y="679.373" type="curve" smooth="yes"/>
      <point x="280.511" y="679.373"/>
      <point x="312.052" y="652.2479999999999"/>
      <point x="312.052" y="580.48" type="curve" smooth="yes"/>
      <point x="312.052" y="492.335"/>
      <point x="259.98" y="370.84599999999995"/>
      <point x="181.207" y="370.84599999999995" type="curve" smooth="yes"/>
    </contour>
    <contour>
      <point x="93.572" y="340.21" type="line"/>
      <point x="188.49899999999997" y="340.21" type="line" smooth="yes"/>
      <point x="234.594" y="340.21"/>
      <point x="275.398" y="304.023"/>
      <point x="275.398" y="231.504" type="curve" smooth="yes"/>
      <point x="275.398" y="126.097"/>
      <point x="223.31399999999996" y="21.474"/>
      <point x="114.32300000000001" y="21.474" type="curve" smooth="yes"/>
      <point x="89.58500000000001" y="21.474"/>
      <point x="71.05" y="23.038999999999998"/>
      <point x="43.542" y="25.566" type="curve"/>
    </contour>
  </outline>
</glyph>
<glyph name="C" format="2">
  <advance width="323.03099999999995"/>
  <unicode hex="0043"/>
  <anchor x="180.1585" y="0.0" name="bottom"/>
  <anchor x="275.6545" y="700.0" name="top"/>
  <outline>
    <contour>
      <point x="185.363" y="-10.0" type="curve" smooth="yes"/>
      <point x="220.5605" y="-10.0"/>
      <point x="249.0715" y="-5.626999999999999"/>
      <point x="271.13849999999996" y="2.651" type="curve"/>
      <point x="265.989" y="32.29600000000001" type="line"/>
      <point x="245.2865" y="25.685000000000002"/>
      <point x="219.50349999999997" y="22.117499999999996"/>
      <point x="190.2395" y="22.117499999999996" type="curve" smooth="yes"/>
      <point x="106.97" y="22.117499999999996"/>
      <point x="65.595" y="72.072"/>
      <point x="65.595" y="187.99599999999998" type="curve" smooth="yes"/>
      <point x="65.595" y="462.12250000000006"/>
      <point x="152.95499999999998" y="677.8825"/>
      <point x="276.11699999999996" y="677.8825" type="curve" smooth="yes"/>
      <point x="302.75849999999997" y="677.8825"/>
      <point x="326.37749999999994" y="673.7925"/>
      <point x="355.3825" y="665.1205" type="curve"/>
      <point x="366.373" y="694.9105" type="line"/>
      <point x="340.8075" y="705.505"/>
      <point x="311.42399999999986" y="710.0"/>
      <point x="277.84900000000005" y="710.0" type="curve" smooth="yes"/>
      <point x="131.135" y="710.0"/>
      <point x="32.059999999999995" y="492.02"/>
      <point x="32.059999999999995" y="184.3555" type="curve" smooth="yes"/>
      <point x="32.059999999999995" y="49.6715"/>
      <point x="81.001" y="-10.0"/>
    </contour>
  </outline>
</glyph>
<glyph name="D" format="2">
  <advance width="373.42550000000006"/>
  <unicode hex="0044"/>
  <anchor x="128.1955" y="0.0" name="bottom"/>
  <anchor x="194.3708325" y="350.0" name="center"/>
  <anchor x="225.97549999999995" y="700.0" name="top"/>
  <outline>
    <contour>
      <point x="100.5615" y="-10.0" type="curve" smooth="yes"/>
      <point x="256.907" y="-10.0"/>
      <point x="360.70950000000005" y="192.21899999999997"/>
      <point x="360.70950000000005" y="466.5145" type="curve" smooth="yes"/>
      <point x="360.70950000000005" y="641.0935"/>
      <point x="305.342" y="710.0"/>
      <point x="200.186" y="710.0" type="curve" smooth="yes"/>
      <point x="171.96499999999997" y="710.0"/>
      <point x="148.2955" y="708.611"/>
      <point x="117.14550000000001" y="705.5485" type="curve"/>
      <point x="5.362500000000001" y="-4.495500000000001" type="line"/>
      <point x="37.614" y="-8.595"/>
      <point x="62.2605" y="-10.0"/>
    </contour>
    <contour>
      <point x="103.80350000000001" y="19.538999999999998" type="curve" smooth="yes"/>
      <point x="81.01849999999999" y="19.538999999999998"/>
      <point x="64.1885" y="20.666"/>
      <point x="42.4195" y="23.008499999999998" type="curve"/>
      <point x="146.14600000000002" y="676.0174999999999" type="line"/>
      <point x="162.8875" y="677.4725"/>
      <point x="182.41850000000002" y="678.04"/>
      <point x="201.01850000000002" y="678.04" type="curve" smooth="yes"/>
      <point x="279.8145" y="678.04"/>
      <point x="327.43" y="623.3589999999999"/>
      <point x="327.43" y="464.7395" type="curve" smooth="yes"/>
      <point x="327.43" y="215.47850000000003"/>
      <point x="231.18549999999996" y="19.538999999999998"/>
    </contour>
  </outline>
</glyph>
<glyph name="E" format="2">
  <advance width="304.8295"/>
  <unicode hex="0045"/>
  <anchor x="128.666" y="0.0" name="bottom"/>
  <anchor x="245.24099999999999" y="0.0" name="ogonek"/>
  <anchor x="233.145" y="700.0" name="top"/>
  <anchor x="88.0951275" y="700.0" name="topleft"/>
  <outline>
    <contour>
      <point x="6.168" y="0.0" type="line"/>
      <point x="245.24099999999999" y="0.0" type="line"/>
      <point x="250.35600000000002" y="32.162499999999994" type="line"/>
      <point x="44.278" y="32.162499999999994" type="line"/>
      <point x="94.2535" y="348.08" type="line"/>
      <point x="273.2835" y="348.08" type="line"/>
      <point x="278.44350000000003" y="379.5675" type="line"/>
      <point x="99.21900000000001" y="379.5675" type="line"/>
      <point x="144.26500000000001" y="667.4999999999999" type="line"/>
      <point x="339.507" y="667.4999999999999" type="line"/>
      <point x="345.5625" y="700.0" type="line"/>
      <point x="116.295" y="700.0" type="line"/>
    </contour>
  </outline>
</glyph>
<glyph name="F" format="2">
  <advance width="286.765"/>
  <unicode hex="0046"/>
  <outline>
    <contour>
      <point x="6.123000000000001" y="0.0" type="line"/>
      <point x="38.407000000000004" y="0.0" type="line"/>
      <point x="91.82600000000001" y="333.466" type="line"/>
      <point x="252.09" y="333.466" type="line"/>
      <point x="257.15899999999993" y="366.03799999999995" type="line"/>
      <point x="96.832" y="366.03799999999995" type="line"/>
      <point x="144.256" y="667.4279999999999" type="line"/>
      <point x="340.047" y="667.4279999999999" type="line"/>
      <point x="345.315" y="700.0" type="line"/>
      <point x="116.34" y="700.0" type="line"/>
    </contour>
  </outline>
</glyph>
<glyph name="G" format="2">
  <advance width="344.43"/>
  <unicode hex="0047"/>
  <anchor x="169.885" y="0.0" name="bottom"/>
  <anchor x="273.85100000000006" y="700.0" name="top"/>
  <outline>
    <contour>
      <point x="180.376" y="-10.0" type="curve" smooth="yes"/>
      <point x="212.02200000000002" y="-10.0"/>
      <point x="243.754" y="-3.779"/>
      <point x="264.50600000000003" y="5.226999999999999" type="curve"/>
      <point x="317.96200000000005" y="343.227" type="line"/>
      <point x="189.87900000000002" y="343.227" type="line"/>
      <point x="185.097" y="312.86" type="line"/>
      <point x="281.949" y="312.86" type="line"/>
      <point x="236.787" y="29.18" type="line"/>
      <point x="223.46" y="24.196"/>
      <point x="203.70700000000002" y="21.212999999999997"/>
      <point x="183.206" y="21.212999999999997" type="curve" smooth="yes"/>
      <point x="106.95" y="21.212999999999997"/>
      <point x="64.568" y="69.963"/>
      <point x="64.568" y="186.12400000000002" type="curve" smooth="yes"/>
      <point x="64.568" y="460.459"/>
      <point x="152.647" y="677.905"/>
      <point x="275.402" y="677.905" type="curve" smooth="yes"/>
      <point x="302.92499999999995" y="677.905"/>
      <point x="326.489" y="673.176"/>
      <point x="355.33899999999994" y="664.53" type="curve"/>
      <point x="366.451" y="694.724" type="line"/>
      <point x="343.12100000000004" y="703.62"/>
      <point x="310.961" y="710.0"/>
      <point x="277.683" y="710.0" type="curve" smooth="yes"/>
      <point x="127.29899999999999" y="710.0"/>
      <point x="31.807" y="484.548"/>
      <point x="31.807" y="183.905" type="curve" smooth="yes"/>
      <point x="31.807" y="49.27"/>
      <point x="83.22200000000001" y="-10.0"/>
    </contour>
  </outline>
</glyph>
<glyph name="H" format="2">
  <advance width="384.948"/>
  <unicode hex="0048"/>
  <anchor x="149.009364" y="0.0" name="bottom"/>
  <anchor x="204.90709900000002" y="350.0" name="center"/>
  <anchor x="259.985653" y="700.0" name="top"/>
  <anchor x="85.418653" y="700.0" name="topleft"/>
  <outline>
    <contour>
      <point x="6.114000000000001" y="0.0" type="line"/>
      <point x="40.044999999999995" y="0.0" type="line"/>
      <point x="85.289" y="286.428" type="line"/>
      <point x="303.84799999999996" y="286.428" type="line"/>
      <point x="258.667" y="0.0" type="line"/>
      <point x="291.617" y="0.0" type="line"/>
      <point x="402.653" y="700.0" type="line"/>
      <point x="369.63100000000003" y="700.0" type="line"/>
      <point x="308.936" y="318.35200000000003" type="line"/>
      <point x="89.558" y="318.35200000000003" type="line"/>
      <point x="150.262" y="700.0" type="line"/>
      <point x="116.331" y="700.0" type="line"/>
    </contour>
  </outline>
</glyph>
<glyph name="I" format="2">
  <advance width="132.55700000000002"/>
  <unicode hex="0049"/>
  <anchor x="22.400368" y="0.0" name="bottom"/>
  <anchor x="39.471267999999995" y="0.8099999999999999" name="ogonek"/>
  <anchor x="133.37783599999997" y="700.0" name="top"/>
  <anchor x="88.117353" y="700.0" name="topleft"/>
  <outline>
    <contour>
      <point x="6.114000000000001" y="0.0" type="line"/>
      <point x="39.226" y="0.0" type="line"/>
      <point x="150.262" y="700.0" type="line"/>
      <point x="116.331" y="700.0" type="line"/>
    </contour>
  </outline>
</glyph>
<glyph name="J" format="2">
  <advance width="257.42199999999997"/>
  <unicode hex="004A"/>
  <anchor x="44.806964" y="0.0" name="bottom"/>
  <anchor x="190.08800000000002" y="700.0" name="top"/>
  <outline>
    <contour>
      <point x="-35.717" y="3.56" type="line"/>
      <point x="-12.540000000000003" y="-4.31"/>
      <point x="10.727" y="-10.0"/>
      <point x="41.231" y="-10.0" type="curve" smooth="yes"/>
      <point x="137.013" y="-10.0"/>
      <point x="176.073" y="47.248000000000005"/>
      <point x="189.47199999999998" y="132.026" type="curve" smooth="yes"/>
      <point x="279.63800000000003" y="700.0" type="line"/>
      <point x="91.728" y="700.0" type="line"/>
      <point x="86.703" y="668.4630000000001" type="line"/>
      <point x="241.50099999999998" y="668.4630000000001" type="line"/>
      <point x="156.41299999999998" y="135.77900000000002" type="line" smooth="yes"/>
      <point x="143.41400000000002" y="54.849000000000004"/>
      <point x="102.44500000000001" y="23.561999999999998"/>
      <point x="39.974" y="23.561999999999998" type="curve" smooth="yes"/>
      <point x="14.145000000000001" y="23.561999999999998"/>
      <point x="-7.1419999999999995" y="29.298"/>
      <point x="-26.738999999999997" y="36.061" type="curve"/>
    </contour>
  </outline>
</glyph>
<glyph name="K" format="2">
  <advance width="333.068"/>
  <unicode hex="004B"/>
  <anchor x="138.35" y="0.0" name="bottom"/>
  <anchor x="228.62" y="700.0" name="top"/>
  <outline>
    <contour>
      <point x="5.8919999999999995" y="0.0" type="line"/>
      <point x="39.326" y="0.0" type="line"/>
      <point x="150.112" y="700.0" type="line"/>
      <point x="116.358" y="700.0" type="line"/>
    </contour>
    <contour>
      <point x="275.328" y="-9.161999999999999" type="curve" smooth="yes"/>
      <point x="281.446" y="-9.161999999999999"/>
      <point x="289.09" y="-7.7459999999999996"/>
      <point x="295.056" y="-4.816" type="curve"/>
      <point x="293.98600000000005" y="30.032" type="line"/>
      <point x="291.50199999999995" y="29.444000000000003"/>
      <point x="288.286" y="28.444000000000003"/>
      <point x="284.232" y="28.444000000000003" type="curve" smooth="yes"/>
      <point x="266.548" y="28.444000000000003"/>
      <point x="254.85" y="38.892"/>
      <point x="227.172" y="106.448" type="curve" smooth="yes"/>
      <point x="95.922" y="427.436" type="line"/>
      <point x="87.06599999999999" y="365.492" type="line"/>
      <point x="202.856" y="83.27199999999999" type="line" smooth="yes"/>
      <point x="234.048" y="3.44"/>
      <point x="247.70399999999998" y="-9.161999999999999"/>
    </contour>
    <contour>
      <point x="136.00799999999998" y="295.728" type="line"/>
      <point x="200.138" y="365.92199999999997"/>
      <point x="310.226" y="511.66"/>
      <point x="376.21799999999996" y="698.784" type="curve"/>
      <point x="347.774" y="709.28" type="line"/>
      <point x="280.172" y="524.924"/>
      <point x="181.934" y="393.11600000000004"/>
      <point x="124.426" y="328.40200000000004" type="curve"/>
    </contour>
  </outline>
</glyph>
<glyph name="L" format="2">
  <advance width="271.076"/>
  <unicode hex="004C"/>
  <anchor x="113.896" y="0.0" name="bottom"/>
  <anchor x="138.14309899999998" y="350.0" name="center"/>
  <anchor x="132.43200000000002" y="700.0" name="top"/>
  <anchor x="249.46900000000002" y="700.0" name="topright"/>
  <outline>
    <contour>
      <point x="5.295" y="0.0" type="line"/>
      <point x="219.481" y="0.0" type="line"/>
      <point x="224.596" y="32.113" type="line"/>
      <point x="43.504" y="32.113" type="line"/>
      <point x="149.44299999999998" y="700.0" type="line"/>
      <point x="116.331" y="700.0" type="line"/>
    </contour>
  </outline>
</glyph>
<glyph name="M" format="2">
  <advance width="419.974"/>
  <unicode hex="004D"/>
  <outline>
    <contour>
      <point x="5.964" y="0.0" type="line"/>
      <point x="37.841" y="0.0" type="line"/>
      <point x="136.39000000000001" y="630.856" type="line"/>
      <point x="195.08100000000002" y="264.76599999999996" type="line"/>
      <point x="220.55999999999997" y="264.76599999999996" type="line"/>
      <point x="395.903" y="631.843" type="line"/>
      <point x="294.953" y="0.0" type="line"/>
      <point x="326.643" y="0.0" type="line"/>
      <point x="437.67900000000003" y="700.0" type="line"/>
      <point x="397.372" y="700.0" type="line"/>
      <point x="215.12" y="312.873" type="line"/>
      <point x="154.94099999999997" y="700.0" type="line"/>
      <point x="116.331" y="700.0" type="line"/>
    </contour>
  </outline>
</glyph>
<glyph name="N" format="2">
  <advance width="383.425"/>
  <unicode hex="004E"/>
  <anchor x="154.72500000000002" y="0.0" name="bottom"/>
  <anchor x="259.11" y="700.0" name="top"/>
  <outline>
    <contour>
      <point x="6.205" y="0.0" type="line"/>
      <point x="37.830000000000005" y="0.0" type="line"/>
      <point x="135.7425" y="626.145" type="line"/>
      <point x="255.45" y="-0.91" type="line"/>
      <point x="290.08500000000004" y="-0.91" type="line"/>
      <point x="401.13" y="700.0" type="line"/>
      <point x="369.71" y="700.0" type="line"/>
      <point x="271.9175" y="73.25" type="line"/>
      <point x="153.0225" y="700.91" type="line"/>
      <point x="116.56750000000001" y="700.91" type="line"/>
    </contour>
  </outline>
</glyph>
<glyph name="O" format="2">
  <advance width="389.13000000000005"/>
  <unicode hex="004F"/>
  <note>
8
</note>
  <anchor x="152.885" y="0.0" name="bottom"/>
  <anchor x="208.75" y="350.0" name="center"/>
  <anchor x="194.91500000000002" y="0.315" name="ogonek"/>
  <anchor x="265.97999999999996" y="700.0" name="top"/>
  <anchor x="89.91000000000001" y="700.0" name="topleft"/>
  <anchor x="329.5" y="695.565" name="topright"/>
  <outline>
    <contour>
      <point x="155.24" y="-9.865" type="curve" smooth="yes"/>
      <point x="298.00999999999993" y="-9.865"/>
      <point x="384.005" y="279.14"/>
      <point x="384.005" y="529.115" type="curve" smooth="yes"/>
      <point x="384.005" y="657.06"/>
      <point x="342.465" y="709.865"/>
      <point x="257.89" y="709.865" type="curve" smooth="yes"/>
      <point x="115.11999999999999" y="709.865"/>
      <point x="29.125" y="420.86"/>
      <point x="29.125" y="170.88500000000002" type="curve" smooth="yes"/>
      <point x="29.125" y="42.940000000000005"/>
      <point x="70.665" y="-9.865"/>
    </contour>
    <contour>
      <point x="157.315" y="22.085" type="curve" smooth="yes"/>
      <point x="93.38" y="22.085"/>
      <point x="62.57" y="63.42"/>
      <point x="62.57" y="170.915" type="curve" smooth="yes"/>
      <point x="62.57" y="401.05"/>
      <point x="145.00500000000002" y="677.9150000000001"/>
      <point x="255.85999999999996" y="677.9150000000001" type="curve" smooth="yes"/>
      <point x="319.75" y="677.9150000000001"/>
      <point x="350.56" y="636.5799999999999"/>
      <point x="350.56" y="529.085" type="curve" smooth="yes"/>
      <point x="350.56" y="298.95"/>
      <point x="268.125" y="22.085"/>
    </contour>
  </outline>
</glyph>
<glyph name="P" format="2">
  <advance width="331.1775"/>
  <unicode hex="0050"/>
  <outline>
    <contour>
      <point x="6.2725" y="0.0" type="line"/>
      <point x="39.3575" y="0.0" type="line"/>
      <point x="83.74000000000001" y="278.575" type="line"/>
      <point x="102.91" y="277.0775"/>
      <point x="117.3725" y="276.85"/>
      <point x="158.77749999999997" y="276.85" type="curve" smooth="yes"/>
      <point x="277.45" y="276.85"/>
      <point x="348.9925" y="393.8875"/>
      <point x="349.22" y="567.965" type="curve" smooth="yes"/>
      <point x="349.22" y="668.0675"/>
      <point x="307.84999999999997" y="710.0"/>
      <point x="213.66500000000002" y="710.0" type="curve" smooth="yes"/>
      <point x="189.9375" y="710.0"/>
      <point x="160.8525" y="707.91"/>
      <point x="117.31750000000001" y="703.3425000000001" type="curve"/>
    </contour>
    <contour>
      <point x="146.2175" y="673.945" type="line"/>
      <point x="171.29500000000002" y="677.0825"/>
      <point x="189.17" y="678.31"/>
      <point x="209.36" y="678.31" type="curve" smooth="yes"/>
      <point x="285.18" y="678.31"/>
      <point x="316.315" y="647.4125"/>
      <point x="316.315" y="561.1675" type="curve" smooth="yes"/>
      <point x="316.315" y="417.1"/>
      <point x="257.61" y="308.5625"/>
      <point x="158.5375" y="308.5625" type="curve" smooth="yes"/>
      <point x="135.79500000000002" y="308.5625"/>
      <point x="114.825" y="309.72249999999997"/>
      <point x="88.72" y="311.04" type="curve"/>
    </contour>
  </outline>
</glyph>
<glyph name="Q" format="2">
  <advance width="389.843"/>
  <unicode hex="0051"/>
  <note>
14
</note>
  <outline>
    <contour>
      <point x="266.01800000000003" y="-182.38899999999998" type="curve" smooth="yes"/>
      <point x="284.27099999999996" y="-182.38899999999998"/>
      <point x="304.28" y="-179.88899999999998"/>
      <point x="322.826" y="-172.15" type="curve"/>
      <point x="320.442" y="-142.829" type="line"/>
      <point x="305.29999999999995" y="-148.941"/>
      <point x="287.79499999999996" y="-151.851"/>
      <point x="271.183" y="-151.851" type="curve" smooth="yes"/>
      <point x="222.247" y="-151.851"/>
      <point x="178.566" y="-122.79299999999999"/>
      <point x="175.812" y="1.5339999999999998" type="curve"/>
      <point x="146.398" y="-0.3910000000000001" type="line"/>
      <point x="149.828" y="-138.532"/>
      <point x="202.543" y="-182.38899999999998"/>
    </contour>
    <component base="O"/>
  </outline>
</glyph>
<glyph name="R" format="2">
  <advance width="340.72"/>
  <unicode hex="0052"/>
  <anchor x="144.475" y="0.0" name="bottom"/>
  <anchor x="220.83" y="700.0" name="top"/>
  <outline>
    <contour>
      <point x="6.114999999999999" y="0.0" type="line"/>
      <point x="39.335" y="0.0" type="line"/>
      <point x="86.145" y="296.615" type="line"/>
      <point x="105.72" y="296.16"/>
      <point x="127.8" y="295.205"/>
      <point x="159.745" y="295.16" type="curve"/>
      <point x="161.305" y="295.565" type="line"/>
      <point x="272.815" y="295.815"/>
      <point x="348.78499999999997" y="401.755"/>
      <point x="348.78499999999997" y="564.63" type="curve" smooth="yes"/>
      <point x="348.78499999999997" y="666.08"/>
      <point x="309.615" y="710.0"/>
      <point x="214.36" y="710.0" type="curve" smooth="yes"/>
      <point x="182.325" y="710.0"/>
      <point x="152.98999999999998" y="707.82"/>
      <point x="117.295" y="703.39" type="curve"/>
    </contour>
    <contour>
      <point x="280.615" y="-10.0" type="curve" smooth="yes"/>
      <point x="287.90500000000003" y="-10.0"/>
      <point x="296.835" y="-7.07"/>
      <point x="300.76" y="-4.96" type="curve"/>
      <point x="299.305" y="26.884999999999998" type="line"/>
      <point x="294.44" y="25.065"/>
      <point x="291.51" y="25.065"/>
      <point x="289.42" y="25.065" type="curve" smooth="yes"/>
      <point x="264.935" y="25.884999999999998"/>
      <point x="248.92999999999998" y="54.655"/>
      <point x="200.78500000000003" y="318.355" type="curve"/>
      <point x="169.815" y="310.48" type="line"/>
      <point x="225.91" y="19.415"/>
      <point x="237.415" y="-10.0"/>
    </contour>
    <contour>
      <point x="165.29" y="327.10499999999996" type="curve" smooth="yes"/>
      <point x="133.925" y="327.10499999999996"/>
      <point x="112.8" y="327.28499999999997"/>
      <point x="91.85499999999999" y="328.78499999999997" type="curve"/>
      <point x="146.445" y="675.08" type="line"/>
      <point x="172.5" y="678.2850000000001"/>
      <point x="189.01" y="679.49"/>
      <point x="212.135" y="679.49" type="curve" smooth="yes"/>
      <point x="290.37" y="679.49"/>
      <point x="315.475" y="643.16"/>
      <point x="315.475" y="566.66" type="curve" smooth="yes"/>
      <point x="315.475" y="425.43"/>
      <point x="253.655" y="327.10499999999996"/>
    </contour>
  </outline>
</glyph>
<glyph name="S" format="2">
  <advance width="308.0075"/>
  <unicode hex="0053"/>
  <anchor x="98.9325" y="0.0" name="bottom"/>
  <anchor x="230.0725" y="700.0" name="top"/>
  <outline>
    <contour>
      <point x="324.565" y="690.79" type="line"/>
      <point x="297.9425" y="703.19"/>
      <point x="268.4725" y="710.0"/>
      <point x="233.755" y="710.0" type="curve" smooth="yes"/>
      <point x="134.8325" y="710.0"/>
      <point x="73.05250000000001" y="640.815"/>
      <point x="73.05250000000001" y="526.135" type="curve" smooth="yes"/>
      <point x="73.05250000000001" y="378.1225"/>
      <point x="229.3075" y="308.805"/>
      <point x="229.10250000000002" y="170.4225" type="curve" smooth="yes"/>
      <point x="229.10250000000002" y="84.41"/>
      <point x="178.85" y="22.870000000000005"/>
      <point x="97.0875" y="22.870000000000005" type="curve" smooth="yes"/>
      <point x="57.7525" y="22.870000000000005"/>
      <point x="23.485" y="29.752499999999998"/>
      <point x="-5.6225" y="43.607499999999995" type="curve"/>
      <point x="-20.3325" y="13.274999999999999" type="line"/>
      <point x="8.9425" y="-1.62"/>
      <point x="51.235" y="-10.0"/>
      <point x="93.44749999999999" y="-10.0" type="curve" smooth="yes"/>
      <point x="199.1525" y="-10.0"/>
      <point x="263.2775" y="65.1425"/>
      <point x="263.2775" y="175.145" type="curve" smooth="yes"/>
      <point x="263.5275" y="321.635"/>
      <point x="107.4275" y="390.74"/>
      <point x="107.4275" y="529.105" type="curve" smooth="yes"/>
      <point x="107.4275" y="621.1825000000001"/>
      <point x="158.085" y="678.77"/>
      <point x="231.4075" y="678.77" type="curve" smooth="yes"/>
      <point x="262.9025" y="678.77"/>
      <point x="285.1575" y="674.09"/>
      <point x="310.945" y="662.2750000000001" type="curve"/>
    </contour>
  </outline>
</glyph>
<glyph name="T" format="2">
  <advance width="290.448"/>
  <unicode hex="0054"/>
  <anchor x="101.25996400000001" y="0.0" name="bottom"/>
  <anchor x="157.203188" y="350.0" name="center"/>
  <anchor x="212.277836" y="700.0" name="top"/>
  <outline>
    <contour>
      <point x="346.736" y="668.5079999999999" type="line"/>
      <point x="351.842" y="700.0" type="line"/>
      <point x="72.75" y="700.0" type="line"/>
      <point x="67.635" y="668.5079999999999" type="line"/>
      <point x="190.315" y="668.5079999999999" type="line"/>
      <point x="84.29500000000002" y="0.0" type="line"/>
      <point x="117.407" y="0.0" type="line"/>
      <point x="223.418" y="668.5079999999999" type="line"/>
    </contour>
  </outline>
</glyph>
<glyph name="U" format="2">
  <advance width="374.956"/>
  <unicode hex="0055"/>
  <anchor x="143.56796" y="0.0" name="bottom"/>
  <anchor x="180.098" y="0.0" name="ogonek"/>
  <anchor x="252.55417" y="700.0" name="top"/>
  <anchor x="394.72400000000005" y="700.0" name="topright"/>
  <outline>
    <contour>
      <point x="141.339" y="-10.0" type="curve" smooth="yes"/>
      <point x="237.927" y="-10.0"/>
      <point x="292.279" y="42.730000000000004"/>
      <point x="310.454" y="156.198" type="curve" smooth="yes"/>
      <point x="397.172" y="700.0" type="line"/>
      <point x="363.30400000000003" y="700.0" type="line"/>
      <point x="276.135" y="153.408" type="line" smooth="yes"/>
      <point x="262.57900000000006" y="65.98"/>
      <point x="221.01299999999998" y="21.636"/>
      <point x="148.23600000000002" y="21.636" type="curve" smooth="yes"/>
      <point x="79.253" y="21.636"/>
      <point x="45.21" y="64.24000000000001"/>
      <point x="57.127" y="137.30100000000002" type="curve" smooth="yes"/>
      <point x="145.032" y="700.0" type="line"/>
      <point x="111.983" y="700.0" type="line"/>
      <point x="23.718000000000004" y="136.633" type="line" smooth="yes"/>
      <point x="21.275" y="122.213"/>
      <point x="21.012999999999998" y="117.61800000000001"/>
      <point x="21.012999999999998" y="102.63799999999999" type="curve" smooth="yes"/>
      <point x="21.012999999999998" y="30.272000000000002"/>
      <point x="64.52699999999999" y="-10.0"/>
    </contour>
  </outline>
</glyph>
<glyph name="V" format="2">
  <advance width="329.1515"/>
  <unicode hex="0056"/>
  <outline>
    <contour>
      <point x="138.95649999999998" y="0.0" type="line"/>
      <point x="324.4125" y="469.14150000000006"/>
      <point x="366.9225" y="579.205"/>
      <point x="369.42" y="663.35" type="curve" smooth="yes"/>
      <point x="369.51" y="676.1365000000001"/>
      <point x="368.69" y="686.549"/>
      <point x="365.99150000000003" y="700.0" type="curve"/>
      <point x="332.1515" y="700.0" type="line"/>
      <point x="333.9625" y="687.2874999999999"/>
      <point x="334.904" y="677.7465"/>
      <point x="334.904" y="667.8924999999999" type="curve" smooth="yes"/>
      <point x="334.0265" y="586.19"/>
      <point x="293.437" y="481.3545"/>
      <point x="127.82799999999999" y="55.04" type="curve"/>
      <point x="110.32" y="700.919" type="line"/>
      <point x="74.145" y="700.2275" type="line"/>
      <point x="98.12400000000001" y="0.0" type="line"/>
    </contour>
  </outline>
</glyph>
<glyph name="W" format="2">
  <advance width="534.81"/>
  <unicode hex="0057"/>
  <anchor x="220.35999999999999" y="0.0" name="bottom"/>
  <anchor x="339.865" y="700.0" name="top"/>
  <outline>
    <contour>
      <point x="352.355" y="-0.955" type="line"/>
      <point x="539.945" y="485.31"/>
      <point x="574.7099999999999" y="600.24"/>
      <point x="575.34" y="666.0749999999999" type="curve" smooth="yes"/>
      <point x="575.34" y="678.445"/>
      <point x="574.5200000000001" y="687.6750000000001"/>
      <point x="571.95" y="700.0" type="curve"/>
      <point x="537.7149999999999" y="700.0" type="line"/>
      <point x="539.535" y="688.585"/>
      <point x="541.3100000000001" y="679.605"/>
      <point x="541.3100000000001" y="668.4849999999999" type="curve" smooth="yes"/>
      <point x="540.6350000000001" y="597.5999999999999"/>
      <point x="514.045" y="507.65"/>
      <point x="345.095" y="61.13" type="curve"/>
      <point x="348.625" y="633.525" type="line"/>
      <point x="308.635" y="633.525" type="line"/>
      <point x="245.8" y="445.8"/>
      <point x="180.69" y="252.89"/>
      <point x="116.82" y="67.97500000000001" type="curve"/>
      <point x="110.58" y="700.0" type="line"/>
      <point x="75.85" y="700.0" type="line"/>
      <point x="85.99499999999999" y="-0.955" type="line"/>
      <point x="121.05" y="-0.955" type="line"/>
      <point x="188.975" y="194.95999999999998"/>
      <point x="255.28" y="385.03499999999997"/>
      <point x="319.83" y="575.955" type="curve"/>
      <point x="315.49" y="-0.955" type="line"/>
    </contour>
  </outline>
</glyph>
<glyph name="X" format="2">
  <advance width="351.01"/>
  <unicode hex="0058"/>
  <outline>
    <contour>
      <point x="277.075" y="-5.665" type="line"/>
      <point x="310.85" y="-0.5" type="line"/>
      <point x="206.48000000000002" y="346.47" type="line"/>
      <point x="308.525" y="487.36"/>
      <point x="374.19500000000005" y="585.51"/>
      <point x="379.055" y="700.41" type="curve"/>
      <point x="345.03000000000003" y="701.115" type="line"/>
      <point x="339.295" y="590.8149999999999"/>
      <point x="298.975" y="532.9350000000001"/>
      <point x="194.42999999999998" y="382.36" type="curve"/>
      <point x="99.57" y="705.845" type="line"/>
      <point x="67.745" y="699.86" type="line"/>
      <point x="167.73" y="357.83" type="line"/>
      <point x="69.52000000000001" y="228.55"/>
      <point x="-1.1899999999999995" y="119.345"/>
      <point x="-3.6500000000000004" y="0.0" type="curve"/>
      <point x="30.44" y="0.0" type="line"/>
      <point x="32.900000000000006" y="106.92999999999999"/>
      <point x="90.445" y="207.825"/>
      <point x="180.24" y="322.3" type="curve"/>
    </contour>
  </outline>
</glyph>
<glyph name="Y" format="2">
  <advance width="315.226"/>
  <unicode hex="0059"/>
  <anchor x="112.08" y="0.0" name="bottom"/>
  <anchor x="223.625" y="700.0" name="top"/>
  <anchor x="91.187" y="700.0" name="topleft"/>
  <outline>
    <contour>
      <point x="96.484" y="0.0" type="line"/>
      <point x="129.308" y="0.0" type="line"/>
      <point x="178.823" y="304.16700000000003" type="line"/>
      <point x="264.161" y="412.242"/>
      <point x="328.657" y="525.121"/>
      <point x="359.089" y="657.661" type="curve" smooth="yes"/>
      <point x="362.303" y="671.97"/>
      <point x="365.17900000000003" y="686.61"/>
      <point x="367.74199999999996" y="701.169" type="curve"/>
      <point x="332.968" y="705.023" type="line"/>
      <point x="330.58500000000004" y="691.232"/>
      <point x="328.13899999999995" y="677.61"/>
      <point x="325.02399999999994" y="663.819" type="curve" smooth="yes"/>
      <point x="298.83" y="543.396"/>
      <point x="249.255" y="443.186"/>
      <point x="168.562" y="342.792" type="curve"/>
      <point x="107.95700000000001" y="704.086" type="line"/>
      <point x="73.368" y="700.4549999999999" type="line"/>
      <point x="144.39300000000003" y="304.16700000000003" type="line"/>
    </contour>
  </outline>
</glyph>
<glyph name="Z" format="2">
  <advance width="307.515"/>
  <unicode hex="005A"/>
  <anchor x="113.465" y="0.0" name="bottom"/>
  <anchor x="162.595" y="350.0" name="center"/>
  <anchor x="222.26" y="700.0" name="top"/>
  <outline>
    <contour>
      <point x="-28.475" y="0.0" type="line"/>
      <point x="254.955" y="0.0" type="line"/>
      <point x="260.16" y="31.735000000000003" type="line"/>
      <point x="13.86" y="31.735000000000003" type="line"/>
      <point x="346.985" y="671.41" type="line"/>
      <point x="351.19" y="700.0" type="line"/>
      <point x="101.71499999999999" y="700.0" type="line"/>
      <point x="96.64500000000001" y="668.265" type="line"/>
      <point x="309.765" y="668.265" type="line"/>
      <point x="-23.45" y="28.23" type="line"/>
    </contour>
  </outline>
</glyph>
<glyph name="bracketleft" format="2">
  <advance width="198.39700000000002"/>
  <unicode hex="005B"/>
  <outline>
    <contour>
      <point x="17.018" y="-180.21" type="line"/>
      <point x="158.544" y="710.3009999999999" type="line"/>
      <point x="258.51900000000006" y="710.3009999999999" type="line"/>
      <point x="263.499" y="740.0" type="line"/>
      <point x="132.779" y="740.0" type="line"/>
      <point x="-17.879" y="-210.0" type="line"/>
      <point x="111.932" y="-210.0" type="line"/>
      <point x="116.993" y="-180.21" type="line"/>
    </contour>
  </outline>
</glyph>
<glyph name="backslash" format="2">
  <advance width="298.144"/>
  <unicode hex="005C"/>
  <outline>
    <contour>
      <point x="105.78399999999999" y="740.0" type="line"/>
      <point x="76.45100000000001" y="740.0" type="line"/>
      <point x="228.477" y="-210.0" type="line"/>
      <point x="257.729" y="-210.0" type="line"/>
    </contour>
  </outline>
</glyph>
<glyph name="bracketright" format="2">
  <advance width="198.39700000000002"/>
  <unicode hex="005D"/>
  <outline>
    <contour>
      <point x="-62.211999999999996" y="-180.21" type="line"/>
      <point x="-67.18299999999999" y="-210.0" type="line"/>
      <point x="61.717999999999996" y="-210.0" type="line"/>
      <point x="213.285" y="740.0" type="line"/>
      <point x="83.384" y="740.0" type="line"/>
      <point x="78.32300000000001" y="710.2099999999999" type="line"/>
      <point x="178.29800000000003" y="710.2099999999999" type="line"/>
      <point x="36.691" y="-180.21" type="line"/>
    </contour>
  </outline>
</glyph>
<glyph name="asciicircum" format="2">
  <advance width="362.212"/>
  <unicode hex="005E"/>
  <outline>
    <contour>
      <point x="37.211" y="275.037" type="line"/>
      <point x="65.726" y="275.037" type="line"/>
      <point x="243.18599999999998" y="671.734" type="line"/>
      <point x="297.36100000000005" y="275.037" type="line"/>
      <point x="325.613" y="275.037" type="line"/>
      <point x="264.438" y="709.1" type="line"/>
      <point x="232.17300000000003" y="709.1" type="line"/>
    </contour>
  </outline>
</glyph>
<glyph name="underscore" format="2">
  <advance width="595.512"/>
  <unicode hex="005F"/>
  <outline>
    <contour>
      <point x="-63.807" y="-142.57899999999998" type="line"/>
      <point x="526.9970000000001" y="-142.57899999999998" type="line"/>
      <point x="532.3190000000001" y="-109.441" type="line"/>
      <point x="-58.48500000000001" y="-109.441" type="line"/>
    </contour>
  </outline>
</glyph>
<glyph name="a" format="2">
  <advance width="318.93100000000004"/>
  <unicode hex="0061"/>
  <note>
15
</note>
  <anchor x="120.40750000000001" y="0.0" name="bottom"/>
  <anchor x="287.97" y="1.17" name="ogonek"/>
  <anchor x="211.28100000000003" y="531.8" name="top"/>
  <outline>
    <contour>
      <point x="243.793" y="-10.0" type="curve" smooth="yes"/>
      <point x="259.495" y="-10.0"/>
      <point x="275.4075" y="-5.6690000000000005"/>
      <point x="288.052" y="0.924" type="curve"/>
      <point x="285.5705" y="27.32" type="line"/>
      <point x="274.52200000000005" y="22.762"/>
      <point x="265.6585" y="20.136499999999998"/>
      <point x="255.9605" y="20.136499999999998" type="curve" smooth="yes"/>
      <point x="239.0985" y="20.136499999999998"/>
      <point x="232.17550000000003" y="29.350499999999993"/>
      <point x="232.17550000000003" y="48.0775" type="curve" smooth="yes"/>
      <point x="232.17550000000003" y="55.793"/>
      <point x="239.17400000000004" y="102.4065"/>
      <point x="306.144" y="521.389" type="curve"/>
      <point x="283.7865" y="533.8774999999999"/>
      <point x="254.40850000000003" y="541.8"/>
      <point x="225.254" y="541.8" type="curve" smooth="yes"/>
      <point x="100.1845" y="541.8"/>
      <point x="19.539" y="377.93549999999993"/>
      <point x="19.539" y="144.4785" type="curve" smooth="yes"/>
      <point x="19.539" y="42.452999999999996"/>
      <point x="53.1575" y="-10.0"/>
      <point x="116.61699999999999" y="-10.0" type="curve" smooth="yes"/>
      <point x="149.9945" y="-10.0"/>
      <point x="178.62300000000002" y="2.934"/>
      <point x="200.843" y="20.7695" type="curve"/>
      <point x="206.0225" y="2.5080000000000005"/>
      <point x="221.67800000000003" y="-10.0"/>
    </contour>
    <contour>
      <point x="198.1725" y="47.1325" type="line"/>
      <point x="177.94050000000001" y="31.9295"/>
      <point x="149.59250000000003" y="21.717000000000002"/>
      <point x="123.714" y="21.717000000000002" type="curve" smooth="yes"/>
      <point x="78.84300000000002" y="21.717000000000002"/>
      <point x="53.403499999999994" y="65.46100000000001"/>
      <point x="53.403499999999994" y="148.8105" type="curve" smooth="yes"/>
      <point x="53.403499999999994" y="369.02500000000003"/>
      <point x="127.344" y="512.0279999999999"/>
      <point x="221.6115" y="512.0279999999999" type="curve" smooth="yes"/>
      <point x="241.25350000000003" y="512.0279999999999"/>
      <point x="256.704" y="508.36549999999994"/>
      <point x="269.32000000000005" y="500.965" type="curve"/>
    </contour>
  </outline>
</glyph>
<glyph name="b" format="2">
  <advance width="322.519"/>
  <unicode hex="0062"/>
  <note>
12
</note>
  <outline>
    <contour>
      <point x="158.81949999999998" y="740.0" type="line"/>
      <point x="125.84700000000001" y="740.0" type="line"/>
      <point x="10.209000000000001" y="6.942" type="line"/>
      <point x="37.5885" y="-3.8965"/>
      <point x="63.738499999999995" y="-10.0"/>
      <point x="95.59850000000002" y="-10.0" type="curve" smooth="yes"/>
      <point x="227.2555" y="-10.0"/>
      <point x="302.2985" y="197.66400000000002"/>
      <point x="302.141" y="387.146" type="curve" smooth="yes"/>
      <point x="302.07349999999997" y="493.537"/>
      <point x="271.5375" y="541.8"/>
      <point x="208.18349999999998" y="541.8" type="curve" smooth="yes"/>
      <point x="177.24800000000002" y="541.8"/>
      <point x="150.794" y="530.297"/>
      <point x="122.4525" y="513.5740000000001" type="curve"/>
    </contour>
    <contour>
      <point x="198.4405" y="509.96149999999994" type="curve" smooth="yes"/>
      <point x="250.956" y="509.96149999999994"/>
      <point x="268.831" y="456.51149999999996"/>
      <point x="268.831" y="382.61600000000004" type="curve" smooth="yes"/>
      <point x="268.831" y="208.009"/>
      <point x="201.6775" y="20.3535"/>
      <point x="97.4725" y="20.3535" type="curve" smooth="yes"/>
      <point x="78.29899999999999" y="20.3535"/>
      <point x="60.14999999999999" y="24.3115"/>
      <point x="46.9375" y="30.383999999999997" type="curve"/>
      <point x="117.65249999999999" y="481.00600000000003" type="line"/>
      <point x="142.194" y="498.748"/>
      <point x="174.5595" y="509.96149999999994"/>
    </contour>
  </outline>
</glyph>
<glyph name="c" format="2">
  <advance width="254.55999999999997"/>
  <unicode hex="0063"/>
  <note>
10
</note>
  <anchor x="128.81199999999998" y="0.0" name="bottom"/>
  <anchor x="209.72" y="531.8" name="top"/>
  <outline>
    <contour>
      <point x="128.689" y="-10.0" type="curve" smooth="yes"/>
      <point x="159.166" y="-10.0"/>
      <point x="185.636" y="-5.012999999999999"/>
      <point x="206.875" y="2.4610000000000007" type="curve"/>
      <point x="202.316" y="30.73" type="line"/>
      <point x="184.604" y="25.119"/>
      <point x="160.292" y="20.889"/>
      <point x="136.792" y="20.889" type="curve" smooth="yes"/>
      <point x="80.645" y="20.889"/>
      <point x="51.209" y="60.09"/>
      <point x="51.209" y="139.019" type="curve" smooth="yes"/>
      <point x="51.209" y="330.491"/>
      <point x="123.294" y="509.39"/>
      <point x="212.099" y="509.39" type="curve" smooth="yes"/>
      <point x="234.06199999999998" y="509.39"/>
      <point x="250.26600000000002" y="507.18100000000004"/>
      <point x="271.07599999999996" y="500.04600000000005" type="curve"/>
      <point x="282.49399999999997" y="531.08" type="line"/>
      <point x="258.06500000000005" y="538.485"/>
      <point x="238.074" y="541.8"/>
      <point x="215.00900000000004" y="541.8" type="curve" smooth="yes"/>
      <point x="100.629" y="541.8"/>
      <point x="18.636999999999997" y="356.281"/>
      <point x="18.636999999999997" y="131.77599999999998" type="curve" smooth="yes"/>
      <point x="18.636999999999997" y="40.52"/>
      <point x="57.948" y="-10.0"/>
    </contour>
  </outline>
</glyph>
<glyph name="d" format="2">
  <advance width="318.91499999999996"/>
  <unicode hex="0064"/>
  <note>
17
</note>
  <anchor x="114.5095" y="0.0" name="bottom"/>
  <anchor x="165.9095" y="352.7825" name="center"/>
  <anchor x="223.76" y="740.0" name="top"/>
  <anchor x="405.1425" y="740.0" name="topright"/>
  <outline>
    <contour>
      <point x="242.2255" y="-10.0" type="curve" smooth="yes"/>
      <point x="255.6365" y="-10.0"/>
      <point x="271.5345000000001" y="-6.542000000000001"/>
      <point x="286.1115" y="0.924" type="curve"/>
      <point x="283.33900000000006" y="27.32" type="line"/>
      <point x="273.87899999999996" y="23.5675"/>
      <point x="263.472" y="20.136499999999998"/>
      <point x="252.9685" y="20.136499999999998" type="curve" smooth="yes"/>
      <point x="237.9265" y="20.136499999999998"/>
      <point x="230.05650000000003" y="28.500000000000004"/>
      <point x="230.05650000000003" y="46.8895" type="curve" smooth="yes"/>
      <point x="230.05650000000003" y="55.6705"/>
      <point x="254.9385" y="206.93449999999999"/>
      <point x="339.255" y="740.0" type="curve"/>
      <point x="306.305" y="740.0" type="line"/>
      <point x="273.1715" y="531.469" type="line"/>
      <point x="253.448" y="537.628"/>
      <point x="235.02850000000004" y="541.8"/>
      <point x="212.207" y="541.8" type="curve" smooth="yes"/>
      <point x="94.395" y="541.8"/>
      <point x="18.018" y="358.73100000000005"/>
      <point x="18.018" y="130.72650000000002" type="curve" smooth="yes"/>
      <point x="18.018" y="36.812999999999995"/>
      <point x="52.307" y="-10.0"/>
      <point x="113.7615" y="-10.0" type="curve" smooth="yes"/>
      <point x="145.52" y="-10.0"/>
      <point x="178.483" y="5.152500000000001"/>
      <point x="198.5745" y="23.044500000000003" type="curve"/>
      <point x="204.64149999999998" y="1.3599999999999999"/>
      <point x="218.80500000000004" y="-10.0"/>
    </contour>
    <contour>
      <point x="121.02749999999999" y="22.567499999999995" type="curve" smooth="yes"/>
      <point x="76.827" y="22.567499999999995"/>
      <point x="50.73949999999999" y="62.836999999999996"/>
      <point x="50.73949999999999" y="128.387" type="curve" smooth="yes"/>
      <point x="50.73949999999999" y="329.672"/>
      <point x="116.27950000000003" y="512.0279999999999"/>
      <point x="216.08400000000003" y="512.0279999999999" type="curve" smooth="yes"/>
      <point x="236.20350000000002" y="512.0279999999999"/>
      <point x="250.982" y="508.0745"/>
      <point x="268.394" y="502.8075" type="curve"/>
      <point x="196.95549999999997" y="48.602" type="line"/>
      <point x="176.5595" y="32.407000000000004"/>
      <point x="150.39649999999997" y="22.567499999999995"/>
    </contour>
  </outline>
</glyph>
<glyph name="e" format="2">
  <advance width="294.05999999999995"/>
  <unicode hex="0065"/>
  <note>
14 points
</note>
  <anchor x="141.506" y="0.0" name="bottom"/>
  <anchor x="211.72199999999998" y="1.336" name="ogonek"/>
  <anchor x="214.96800000000002" y="533.456" name="top"/>
  <outline>
    <contour>
      <point x="51.783" y="268.545" type="curve"/>
      <point x="46.766" y="240.09699999999998" type="line"/>
      <point x="78.33" y="243.43"/>
      <point x="114.526" y="251.29500000000002"/>
      <point x="148.32" y="264.615" type="curve" smooth="yes"/>
      <point x="242.30499999999998" y="301.821"/>
      <point x="306.525" y="373.462"/>
      <point x="306.525" y="460.159" type="curve" smooth="yes"/>
      <point x="306.525" y="508.952"/>
      <point x="278.685" y="541.8"/>
      <point x="222.98699999999997" y="541.8" type="curve" smooth="yes"/>
      <point x="105.02000000000001" y="541.8"/>
      <point x="22.822000000000003" y="389.259"/>
      <point x="22.822000000000003" y="172.232" type="curve" smooth="yes"/>
      <point x="22.822000000000003" y="55.498"/>
      <point x="62.874" y="-10.0"/>
      <point x="142.41099999999997" y="-10.0" type="curve" smooth="yes"/>
      <point x="176.38299999999998" y="-10.0"/>
      <point x="216.81" y="-1.193"/>
      <point x="245.47" y="14.723" type="curve"/>
      <point x="237.4" y="43.06400000000001" type="line"/>
      <point x="204.70100000000002" y="27.831"/>
      <point x="175.01800000000003" y="21.159"/>
      <point x="145.616" y="21.159" type="curve" smooth="yes"/>
      <point x="87.411" y="21.159"/>
      <point x="54.404" y="77.955"/>
      <point x="54.404" y="175.67" type="curve" smooth="yes"/>
      <point x="54.404" y="369.68899999999996"/>
      <point x="129.306" y="512.1709999999999"/>
      <point x="217.811" y="512.1709999999999" type="curve" smooth="yes"/>
      <point x="253.701" y="512.1709999999999"/>
      <point x="275.393" y="492.39700000000005"/>
      <point x="275.393" y="453.541" type="curve" smooth="yes"/>
      <point x="275.393" y="386.363"/>
      <point x="222.633" y="325.744"/>
      <point x="145.167" y="293.24500000000006" type="curve" smooth="yes"/>
      <point x="114.28699999999999" y="280.42"/>
      <point x="82.629" y="271.79600000000005"/>
    </contour>
  </outline>
</glyph>
<glyph name="f" format="2">
  <advance width="199.31700000000004"/>
  <unicode hex="0066"/>
  <outline>
    <contour>
      <point x="-67.85100000000001" y="-220.0" type="curve" smooth="yes"/>
      <point x="1.1389999999999998" y="-220.0"/>
      <point x="35.288000000000004" y="-164.506"/>
      <point x="52.354" y="-55.692" type="curve" smooth="yes"/>
      <point x="133.44899999999998" y="456.594" type="line"/>
      <point x="232.846" y="456.594" type="line"/>
      <point x="237.78099999999998" y="487.64500000000004" type="line"/>
      <point x="138.375" y="487.64500000000004" type="line"/>
      <point x="164.212" y="652.7819999999999"/>
      <point x="199.671" y="717.3199999999999"/>
      <point x="265.07599999999996" y="717.3199999999999" type="curve" smooth="yes"/>
      <point x="284.555" y="717.3199999999999"/>
      <point x="302.81999999999994" y="713.2649999999999"/>
      <point x="320.596" y="708.32" type="curve"/>
      <point x="331.32099999999997" y="738.245" type="line"/>
      <point x="308.33" y="746.191"/>
      <point x="288.118" y="750.0"/>
      <point x="267.286" y="750.0" type="curve" smooth="yes"/>
      <point x="181.744" y="750.0"/>
      <point x="134.697" y="676.1479999999999"/>
      <point x="105.32500000000002" y="487.64500000000004" type="curve"/>
      <point x="42.225" y="481.529" type="line"/>
      <point x="38.227000000000004" y="456.594" type="line"/>
      <point x="100.39000000000001" y="456.594" type="line"/>
      <point x="20.067000000000004" y="-52.167" type="line" smooth="yes"/>
      <point x="6.442" y="-137.866"/>
      <point x="-15.765" y="-189.077"/>
      <point x="-71.956" y="-189.077" type="curve" smooth="yes"/>
      <point x="-85.462" y="-189.077"/>
      <point x="-96.772" y="-187.148"/>
      <point x="-112.829" y="-181.98399999999998" type="curve"/>
      <point x="-120.854" y="-211.65599999999998" type="line"/>
      <point x="-104.543" y="-217.531"/>
      <point x="-87.839" y="-220.0"/>
    </contour>
  </outline>
</glyph>
<glyph name="g" format="2">
  <advance width="317.219"/>
  <unicode hex="0067"/>
  <note>
16
</note>
  <anchor x="74.16" y="-211.72" name="bottom"/>
  <anchor x="207.92399999999998" y="531.8" name="top"/>
  <outline>
    <contour>
      <point x="-6.093999999999999" y="-206.00900000000001" type="line"/>
      <point x="18.326" y="-215.39100000000002"/>
      <point x="47.246" y="-220.0"/>
      <point x="75.07" y="-220.0" type="curve" smooth="yes"/>
      <point x="152.068" y="-220.0"/>
      <point x="195.271" y="-167.81100000000004"/>
      <point x="213.37199999999999" y="-51.138999999999996" type="curve" smooth="yes"/>
      <point x="305.808" y="523.2439999999999" type="line"/>
      <point x="282.51099999999997" y="534.26"/>
      <point x="254.38100000000003" y="541.8"/>
      <point x="227.162" y="541.8" type="curve" smooth="yes"/>
      <point x="88.624" y="541.8"/>
      <point x="18.575999999999997" y="345.101"/>
      <point x="18.575999999999997" y="144.125" type="curve" smooth="yes"/>
      <point x="18.575999999999997" y="48.647000000000006"/>
      <point x="51.49400000000001" y="-8.245000000000001"/>
      <point x="112.085" y="-8.245000000000001" type="curve" smooth="yes"/>
      <point x="137.643" y="-8.245000000000001"/>
      <point x="167.199" y="0.7020000000000002"/>
      <point x="192.31300000000002" y="18.387000000000004" type="curve"/>
      <point x="182.168" y="-48.785000000000004" type="line" smooth="yes"/>
      <point x="166.33" y="-150.32700000000003"/>
      <point x="133.57899999999998" y="-189.46300000000002"/>
      <point x="73.25800000000001" y="-189.46300000000002" type="curve" smooth="yes"/>
      <point x="50.44799999999999" y="-189.46300000000002"/>
      <point x="25.642" y="-184.862"/>
      <point x="2.726" y="-176.568" type="curve"/>
    </contour>
    <contour>
      <point x="269.058" y="502.378" type="curve"/>
      <point x="197.187" y="49.74" type="line"/>
      <point x="178.82" y="34.089999999999996"/>
      <point x="145.885" y="22.572"/>
      <point x="122.968" y="22.572" type="curve" smooth="yes"/>
      <point x="78.16300000000001" y="22.572"/>
      <point x="52.238" y="67.37899999999999"/>
      <point x="52.238" y="151.435" type="curve" smooth="yes"/>
      <point x="52.238" y="334.827"/>
      <point x="120.304" y="512.576"/>
      <point x="222.504" y="512.576" type="curve" smooth="yes"/>
      <point x="239.06699999999998" y="512.576"/>
      <point x="254.413" y="508.137"/>
    </contour>
  </outline>
</glyph>
<glyph name="h" format="2">
  <advance width="328.07"/>
  <unicode hex="0068"/>
  <note>
16
</note>
  <anchor x="125.249" y="0.0" name="bottom"/>
  <anchor x="180.2135" y="370.225" name="center"/>
  <anchor x="241.18800000000002" y="740.0" name="top"/>
  <outline>
    <contour>
      <point x="241.3515" y="47.1885" type="curve" smooth="yes"/>
      <point x="241.3515" y="78.186"/>
      <point x="303.10450000000003" y="431.05299999999994"/>
      <point x="303.10450000000003" y="462.0" type="curve" smooth="yes"/>
      <point x="303.10450000000003" y="508.694"/>
      <point x="281.592" y="541.8"/>
      <point x="228.348" y="541.8" type="curve" smooth="yes"/>
      <point x="192.14550000000003" y="541.8"/>
      <point x="154.6355" y="528.115"/>
      <point x="122.45100000000001" y="509.5415" type="curve"/>
      <point x="158.84649999999996" y="740.0" type="line"/>
      <point x="125.82900000000001" y="740.0" type="line"/>
      <point x="8.716499999999998" y="0.0" type="line"/>
      <point x="41.734" y="0.0" type="line"/>
      <point x="117.07050000000001" y="478.00499999999994" type="line"/>
      <point x="146.1355" y="496.499"/>
      <point x="183.65100000000004" y="510.15049999999997"/>
      <point x="212.118" y="510.15049999999997" type="curve" smooth="yes"/>
      <point x="255.997" y="510.15049999999997"/>
      <point x="268.187" y="484.9585000000001"/>
      <point x="268.187" y="452.0155" type="curve" smooth="yes"/>
      <point x="268.187" y="422.179"/>
      <point x="208.19449999999998" y="75.225"/>
      <point x="208.19449999999998" y="36.67349999999999" type="curve" smooth="yes"/>
      <point x="208.19449999999998" y="6.819"/>
      <point x="229.20350000000002" y="-10.0"/>
      <point x="255.52850000000004" y="-10.0" type="curve" smooth="yes"/>
      <point x="267.6195000000001" y="-10.0"/>
      <point x="280.5465" y="-8.1305"/>
      <point x="295.4530000000001" y="-0.5005000000000001" type="curve"/>
      <point x="293.613" y="26.872999999999998" type="line"/>
      <point x="282.27349999999996" y="22.232999999999997"/>
      <point x="274.529" y="21.0915"/>
      <point x="267.93399999999997" y="21.0915" type="curve" smooth="yes"/>
      <point x="248.768" y="21.0915"/>
      <point x="241.3515" y="30.521000000000004"/>
    </contour>
  </outline>
</glyph>
<glyph name="i" format="2">
  <advance width="138.381"/>
  <unicode hex="0069"/>
  <note>
Ajuster pts sur points
8
</note>
  <anchor x="24.779996" y="0.0" name="bottom"/>
  <anchor x="41.724000000000004" y="0.0" name="ogonek"/>
  <anchor x="109.142004" y="531.8" name="top"/>
  <outline>
    <contour>
      <point x="9.566" y="0.0" type="line"/>
      <point x="41.724000000000004" y="0.0" type="line"/>
      <point x="125.985" y="531.8" type="line"/>
      <point x="93.026" y="531.8" type="line"/>
    </contour>
    <contour>
      <point x="139.819" y="717.2" type="curve" smooth="yes"/>
      <point x="119.547" y="717.2"/>
      <point x="116.023" y="709.28"/>
      <point x="113.475" y="680.895" type="curve" smooth="yes"/>
      <point x="112.656" y="668.8910000000001"/>
      <point x="119.808" y="666.379"/>
      <point x="130.10899999999998" y="666.379" type="curve" smooth="yes"/>
      <point x="150.66500000000002" y="666.379"/>
      <point x="153.987" y="674.335"/>
      <point x="156.626" y="702.865" type="curve" smooth="yes"/>
      <point x="157.44499999999996" y="714.769"/>
      <point x="150.485" y="717.2"/>
    </contour>
  </outline>
</glyph>
<glyph name="j" format="2">
  <advance width="146.467"/>
  <unicode hex="006A"/>
  <note>
idem /i
12
</note>
  <outline>
    <contour>
      <point x="147.914" y="717.2" type="curve" smooth="yes"/>
      <point x="127.633" y="717.2"/>
      <point x="124.3" y="709.28"/>
      <point x="121.75200000000001" y="680.895" type="curve" smooth="yes"/>
      <point x="120.933" y="668.8910000000001"/>
      <point x="127.99299999999998" y="666.379"/>
      <point x="138.29399999999998" y="666.379" type="curve" smooth="yes"/>
      <point x="158.496" y="666.379"/>
      <point x="161.89999999999998" y="674.335"/>
      <point x="164.539" y="702.865" type="curve" smooth="yes"/>
      <point x="165.35799999999998" y="714.769"/>
      <point x="158.58" y="717.2"/>
    </contour>
    <contour>
      <point x="134.17000000000002" y="531.8" type="line"/>
      <point x="101.121" y="531.8" type="line"/>
      <point x="7.823" y="-58.998000000000005" type="line" smooth="yes"/>
      <point x="-4.719" y="-137.935"/>
      <point x="-26.608999999999998" y="-189.077"/>
      <point x="-81.52499999999999" y="-189.077" type="curve" smooth="yes"/>
      <point x="-95.895" y="-189.077"/>
      <point x="-107.84199999999998" y="-187.248"/>
      <point x="-124.43700000000001" y="-181.729" type="curve"/>
      <point x="-132.029" y="-211.689" type="line"/>
      <point x="-115.891" y="-217.72899999999998"/>
      <point x="-96.682" y="-220.0"/>
      <point x="-78.005" y="-220.0" type="curve" smooth="yes"/>
      <point x="-9.021000000000003" y="-220.0"/>
      <point x="23.972" y="-166.02700000000002"/>
      <point x="39.917" y="-63.503" type="curve" smooth="yes"/>
    </contour>
  </outline>
</glyph>
<glyph name="l" format="2">
  <advance width="150.907"/>
  <unicode hex="006C"/>
  <anchor x="70.216" y="0.0" name="bottom"/>
  <anchor x="84.794054" y="370.225" name="center"/>
  <anchor x="141.95800000000003" y="740.0" name="top"/>
  <anchor x="224.78000000000003" y="740.0" name="topright"/>
  <outline>
    <contour>
      <point x="125.83800000000001" y="740.0" type="line"/>
      <point x="19.546" y="69.155" type="line" smooth="yes"/>
      <point x="18.338" y="60.141999999999996"/>
      <point x="17.038000000000004" y="49.729"/>
      <point x="17.038000000000004" y="40.759" type="curve" smooth="yes"/>
      <point x="17.038000000000004" y="9.409"/>
      <point x="31.747000000000003" y="-10.0"/>
      <point x="69.482" y="-10.0" type="curve" smooth="yes"/>
      <point x="85.70100000000001" y="-10.0"/>
      <point x="105.19" y="-6.061"/>
      <point x="120.427" y="0.07500000000000002" type="curve"/>
      <point x="118.47800000000001" y="27.570999999999998" type="line"/>
      <point x="103.10600000000001" y="22.677"/>
      <point x="91.1" y="20.448"/>
      <point x="81.158" y="20.448" type="curve" smooth="yes"/>
      <point x="57.17" y="20.448"/>
      <point x="50.34" y="31.108"/>
      <point x="50.34" y="45.74699999999999" type="curve" smooth="yes"/>
      <point x="50.34" y="57.754"/>
      <point x="53.242000000000004" y="72.025"/>
      <point x="56.799" y="94.886" type="curve" smooth="yes"/>
      <point x="158.89700000000002" y="740.0" type="line"/>
    </contour>
  </outline>
</glyph>
<glyph name="m" format="2">
  <advance width="492.234"/>
  <unicode hex="006D"/>
  <note>
24&gt;23 points
un point de trop dans la jointure avec 2e jambage
</note>
  <outline>
    <contour>
      <point x="419.481" y="-10.0" type="curve" smooth="yes"/>
      <point x="431.55400000000003" y="-10.0"/>
      <point x="444.931" y="-8.153"/>
      <point x="459.62600000000003" y="-0.514" type="curve"/>
      <point x="457.76800000000003" y="26.791999999999998" type="line"/>
      <point x="446.46000000000004" y="22.151999999999997"/>
      <point x="438.67499999999995" y="21.051"/>
      <point x="432.089" y="21.051" type="curve" smooth="yes"/>
      <point x="412.932" y="21.051"/>
      <point x="404.747" y="30.636999999999997"/>
      <point x="404.747" y="47.552" type="curve" smooth="yes"/>
      <point x="404.747" y="80.021"/>
      <point x="466.563" y="431.59299999999996"/>
      <point x="466.563" y="462.459" type="curve" smooth="yes"/>
      <point x="466.563" y="508.496"/>
      <point x="445.783" y="541.8"/>
      <point x="392.485" y="541.8" type="curve" smooth="yes"/>
      <point x="361.00100000000003" y="541.8"/>
      <point x="321.555" y="529.5260000000001"/>
      <point x="282.711" y="501.93" type="curve"/>
      <point x="271.88399999999996" y="526.349"/>
      <point x="248.269" y="541.8"/>
      <point x="215.717" y="541.8" type="curve" smooth="yes"/>
      <point x="184.505" y="541.8"/>
      <point x="150.939" y="527.66"/>
      <point x="119.474" y="508.28800000000007" type="curve"/>
      <point x="123.69" y="531.8" type="line"/>
      <point x="92.19800000000001" y="531.8" type="line"/>
      <point x="8.019000000000002" y="0.0" type="line"/>
      <point x="40.986999999999995" y="0.0" type="line"/>
      <point x="116.374" y="479.041" type="line"/>
      <point x="143.867" y="497.846"/>
      <point x="175.02599999999998" y="510.155"/>
      <point x="203.347" y="510.155" type="curve" smooth="yes"/>
      <point x="241.366" y="510.155"/>
      <point x="256.195" y="486.0"/>
      <point x="256.195" y="454.141" type="curve" smooth="yes"/>
      <point x="256.195" y="424.183"/>
      <point x="193.07600000000002" y="44.851"/>
      <point x="186.25900000000001" y="0.0" type="curve"/>
      <point x="219.929" y="0.0" type="line"/>
      <point x="226.152" y="41.086"/>
      <point x="287.80400000000003" y="420.873"/>
      <point x="289.568" y="459.22900000000004" type="curve" smooth="yes"/>
      <point x="289.658" y="465.119"/>
      <point x="288.94599999999997" y="471.53999999999996"/>
      <point x="288.035" y="476.512" type="curve"/>
      <point x="314.635" y="494.997"/>
      <point x="346.705" y="510.128"/>
      <point x="379.60400000000004" y="510.128" type="curve" smooth="yes"/>
      <point x="418.751" y="510.128"/>
      <point x="431.51399999999995" y="484.881"/>
      <point x="431.51399999999995" y="451.447" type="curve" smooth="yes"/>
      <point x="431.51399999999995" y="419.604"/>
      <point x="371.617" y="75.94500000000001"/>
      <point x="371.617" y="36.912" type="curve" smooth="yes"/>
      <point x="371.617" y="6.324000000000001"/>
      <point x="393.174" y="-10.0"/>
    </contour>
  </outline>
</glyph>
<glyph name="n" format="2">
  <advance width="326.432"/>
  <unicode hex="006E"/>
  <note>
16
</note>
  <anchor x="132.792" y="0.0" name="bottom"/>
  <anchor x="201.187" y="531.8" name="top"/>
  <outline>
    <contour>
      <point x="92.19800000000001" y="531.8" type="line"/>
      <point x="8.019000000000002" y="0.0" type="line"/>
      <point x="40.977999999999994" y="0.0" type="line"/>
      <point x="116.364" y="478.04999999999995" type="line"/>
      <point x="145.84900000000002" y="496.763"/>
      <point x="182.013" y="510.97400000000005"/>
      <point x="210.606" y="510.97400000000005" type="curve" smooth="yes"/>
      <point x="254.36700000000002" y="510.97400000000005"/>
      <point x="267.43" y="484.944"/>
      <point x="267.43" y="451.49199999999996" type="curve" smooth="yes"/>
      <point x="267.43" y="421.1700000000001"/>
      <point x="207.52399999999997" y="76.035"/>
      <point x="207.52399999999997" y="36.263999999999996" type="curve" smooth="yes"/>
      <point x="207.52399999999997" y="6.891"/>
      <point x="227.534" y="-10.0"/>
      <point x="253.841" y="-10.0" type="curve" smooth="yes"/>
      <point x="265.914" y="-10.0"/>
      <point x="279.12899999999996" y="-8.153"/>
      <point x="293.824" y="-0.514" type="curve"/>
      <point x="291.966" y="26.791999999999998" type="line"/>
      <point x="280.658" y="22.151999999999997"/>
      <point x="272.873" y="21.051"/>
      <point x="266.287" y="21.051" type="curve" smooth="yes"/>
      <point x="247.13" y="21.051"/>
      <point x="240.49200000000002" y="30.485000000000003"/>
      <point x="240.49200000000002" y="47.157" type="curve" smooth="yes"/>
      <point x="240.49200000000002" y="78.168"/>
      <point x="302.389" y="431.02599999999995"/>
      <point x="302.389" y="461.973" type="curve" smooth="yes"/>
      <point x="302.389" y="508.784"/>
      <point x="279.81899999999996" y="541.8"/>
      <point x="226.764" y="541.8" type="curve" smooth="yes"/>
      <point x="190.485" y="541.8"/>
      <point x="152.38" y="526.9050000000001"/>
      <point x="119.265" y="507.19599999999997" type="curve"/>
      <point x="123.58200000000001" y="531.8" type="line"/>
    </contour>
  </outline>
</glyph>
<glyph name="o" format="2">
  <advance width="315.815"/>
  <unicode hex="006F"/>
  <note>
8
</note>
  <anchor x="120.08500000000001" y="0.0" name="bottom"/>
  <anchor x="159.99" y="266.81" name="center"/>
  <anchor x="161.935" y="2.0500000000000003" name="ogonek"/>
  <anchor x="200.635" y="531.8" name="top"/>
  <anchor x="259.22499999999997" y="522.7099999999999" name="topright"/>
  <outline>
    <contour>
      <point x="120.15" y="-10.0" type="curve" smooth="yes"/>
      <point x="245.24" y="-10.0"/>
      <point x="294.6" y="267.84"/>
      <point x="294.6" y="411.96500000000003" type="curve" smooth="yes"/>
      <point x="294.6" y="510.80500000000006"/>
      <point x="259.255" y="541.23"/>
      <point x="192.775" y="541.23" type="curve" smooth="yes"/>
      <point x="68.03" y="541.23"/>
      <point x="18.145" y="261.53"/>
      <point x="18.145" y="118.89999999999999" type="curve" smooth="yes"/>
      <point x="18.145" y="19.740000000000002"/>
      <point x="52.83" y="-10.0"/>
    </contour>
    <contour>
      <point x="120.56" y="20.12" type="curve" smooth="yes"/>
      <point x="75.73" y="20.12"/>
      <point x="50.075" y="40.885"/>
      <point x="50.075" y="118.445" type="curve" smooth="yes"/>
      <point x="50.075" y="227.84"/>
      <point x="96.17" y="511.11"/>
      <point x="192.525" y="511.11" type="curve" smooth="yes"/>
      <point x="236.31" y="511.11"/>
      <point x="262.71500000000003" y="489.455"/>
      <point x="262.71500000000003" y="412.62" type="curve" smooth="yes"/>
      <point x="262.71500000000003" y="301.3"/>
      <point x="217.44" y="20.12"/>
    </contour>
  </outline>
</glyph>
<glyph name="p" format="2">
  <advance width="322.6775"/>
  <unicode hex="0070"/>
  <note>
14 point
</note>
  <outline>
    <contour>
      <point x="-24.153" y="-210.0" type="line"/>
      <point x="7.9105" y="-210.0" type="line"/>
      <point x="41.1835" y="-1.226" type="line"/>
      <point x="58.7335" y="-6.638"/>
      <point x="77.32449999999999" y="-9.842500000000001"/>
      <point x="99.95649999999999" y="-9.842500000000001" type="curve" smooth="yes"/>
      <point x="224.315" y="-9.842500000000001"/>
      <point x="302.141" y="184.19"/>
      <point x="302.141" y="386.4905" type="curve" smooth="yes"/>
      <point x="302.141" y="493.04100000000005"/>
      <point x="272.16949999999997" y="541.8"/>
      <point x="208.65800000000002" y="541.8" type="curve" smooth="yes"/>
      <point x="175.8305" y="541.8"/>
      <point x="149.49200000000002" y="529.083"/>
      <point x="121.64249999999998" y="512.5625" type="curve"/>
      <point x="121.35" y="539.99" type="line"/>
      <point x="93.845" y="539.99" type="line"/>
    </contour>
    <contour>
      <point x="96.7445" y="20.3535" type="curve" smooth="yes"/>
      <point x="77.571" y="20.3535"/>
      <point x="60.14999999999999" y="23.5835"/>
      <point x="46.118500000000004" y="29.656000000000002" type="curve"/>
      <point x="117.5615" y="480.9825" type="line"/>
      <point x="141.3075" y="497.47399999999993"/>
      <point x="174.19650000000001" y="509.96149999999994"/>
      <point x="198.4855" y="509.96149999999994" type="curve" smooth="yes"/>
      <point x="245.31499999999997" y="509.96149999999994"/>
      <point x="268.831" y="468.5174999999999"/>
      <point x="268.831" y="381.577" type="curve" smooth="yes"/>
      <point x="268.831" y="200.7375"/>
      <point x="200.51500000000001" y="20.3535"/>
    </contour>
  </outline>
</glyph>
<glyph name="q" format="2">
  <advance width="316.50800000000004"/>
  <unicode hex="0071"/>
  <note>
12
</note>
  <outline>
    <contour>
      <point x="305.1845" y="524.858" type="line"/>
      <point x="279.0605" y="534.0585"/>
      <point x="249.1925" y="541.8"/>
      <point x="217.9625" y="541.8" type="curve" smooth="yes"/>
      <point x="65.6655" y="541.8"/>
      <point x="17.829" y="278.20149999999995"/>
      <point x="17.829" y="128.41800000000003" type="curve" smooth="yes"/>
      <point x="17.829" y="32.6865"/>
      <point x="56.416999999999994" y="-10.0"/>
      <point x="110.298" y="-10.0" type="curve" smooth="yes"/>
      <point x="143.4185" y="-10.0"/>
      <point x="168.9625" y="2.7515000000000005"/>
      <point x="191.94099999999997" y="19.614500000000003" type="curve"/>
      <point x="153.77949999999998" y="-210.0" type="line"/>
      <point x="188.20999999999998" y="-210.0" type="line"/>
    </contour>
    <contour>
      <point x="268.47950000000003" y="502.6705" type="curve"/>
      <point x="196.7635" y="51.1365" type="line"/>
      <point x="172.72300000000004" y="31.278999999999996"/>
      <point x="144.63450000000003" y="21.703500000000002"/>
      <point x="119.9795" y="21.703500000000002" type="curve" smooth="yes"/>
      <point x="73.878" y="21.703500000000002"/>
      <point x="49.907000000000004" y="69.718"/>
      <point x="49.907000000000004" y="126.3215" type="curve" smooth="yes"/>
      <point x="49.907000000000004" y="291.424"/>
      <point x="101.82249999999999" y="511.9955"/>
      <point x="216.056" y="511.9955" type="curve" smooth="yes"/>
      <point x="232.9075" y="511.9955"/>
      <point x="251.945" y="507.924"/>
    </contour>
  </outline>
</glyph>
<glyph name="r" format="2">
  <advance width="221.825"/>
  <unicode hex="0072"/>
  <anchor x="23.904" y="0.0" name="bottom"/>
  <anchor x="177.01000000000002" y="531.8" name="top"/>
  <outline>
    <contour>
      <point x="123.419" y="531.8" type="line"/>
      <point x="92.21600000000001" y="531.8" type="line"/>
      <point x="8.010000000000002" y="0.0" type="line"/>
      <point x="40.653000000000006" y="0.0" type="line"/>
      <point x="111.867" y="451.018" type="line"/>
      <point x="150.623" y="491.62100000000004"/>
      <point x="183.35999999999999" y="507.671"/>
      <point x="215.03900000000002" y="507.671" type="curve" smooth="yes"/>
      <point x="229.217" y="507.671"/>
      <point x="244.069" y="505.26099999999997"/>
      <point x="258.151" y="500.67" type="curve"/>
      <point x="269.47" y="533.583" type="line"/>
      <point x="255.773" y="539.217"/>
      <point x="239.57" y="541.8"/>
      <point x="221.96800000000002" y="541.8" type="curve" smooth="yes"/>
      <point x="186.651" y="541.8"/>
      <point x="149.686" y="523.2520000000001"/>
      <point x="116.092" y="489.261" type="curve"/>
    </contour>
  </outline>
</glyph>
<glyph name="s" format="2">
  <advance width="270.265"/>
  <unicode hex="0073"/>
  <anchor x="85.915" y="0.0" name="bottom"/>
  <anchor x="189.02" y="531.8" name="top"/>
  <outline>
    <contour>
      <point x="-14.370000000000001" y="10.235000000000001" type="line"/>
      <point x="11.155" y="-2.415"/>
      <point x="45.095000000000006" y="-10.0"/>
      <point x="83.33" y="-10.0" type="curve" smooth="yes"/>
      <point x="184.56" y="-10.0"/>
      <point x="230.49499999999998" y="66.78"/>
      <point x="230.49499999999998" y="141.565" type="curve" smooth="yes"/>
      <point x="230.49499999999998" y="264.305"/>
      <point x="89.72" y="298.105"/>
      <point x="89.72" y="401.38" type="curve" smooth="yes"/>
      <point x="89.72" y="457.965"/>
      <point x="125.43" y="510.18"/>
      <point x="192.44500000000002" y="510.18" type="curve" smooth="yes"/>
      <point x="221.01000000000002" y="510.18"/>
      <point x="245.74" y="502.04499999999996"/>
      <point x="266.635" y="493.095" type="curve"/>
      <point x="278.37500000000006" y="522.99" type="line"/>
      <point x="258.91" y="533.735"/>
      <point x="227.135" y="541.8"/>
      <point x="196.415" y="541.8" type="curve" smooth="yes"/>
      <point x="99.99" y="541.8"/>
      <point x="57.47" y="468.22"/>
      <point x="57.47" y="400.45000000000005" type="curve" smooth="yes"/>
      <point x="57.47" y="271.17"/>
      <point x="197.425" y="247.875"/>
      <point x="197.425" y="138.245" type="curve" smooth="yes"/>
      <point x="197.425" y="78.06"/>
      <point x="158.57500000000002" y="21.35"/>
      <point x="86.785" y="21.35" type="curve" smooth="yes"/>
      <point x="54.379999999999995" y="21.35"/>
      <point x="22.880000000000003" y="28.48"/>
      <point x="-1.9749999999999999" y="40.5" type="curve"/>
    </contour>
  </outline>
</glyph>
<glyph name="t" format="2">
  <advance width="209.842"/>
  <unicode hex="0074"/>
  <anchor x="104.375" y="0.0" name="bottom"/>
  <anchor x="95.808" y="322.50199999999995" name="center"/>
  <anchor x="141.46" y="664.109" name="top"/>
  <anchor x="249.367" y="747.48" name="topright"/>
  <outline>
    <contour>
      <point x="171.57200000000003" y="30.639999999999997" type="line"/>
      <point x="154.941" y="25.838"/>
      <point x="138.15" y="22.508999999999997"/>
      <point x="123.297" y="22.508999999999997" type="curve" smooth="yes"/>
      <point x="82.52199999999999" y="22.508999999999997"/>
      <point x="65.866" y="42.853"/>
      <point x="65.866" y="83.50399999999999" type="curve" smooth="yes"/>
      <point x="65.866" y="95.309"/>
      <point x="67.676" y="108.10499999999999"/>
      <point x="69.677" y="123.448" type="curve" smooth="yes"/>
      <point x="129.688" y="500.931" type="line"/>
      <point x="249.019" y="500.931" type="line"/>
      <point x="254.134" y="531.8" type="line"/>
      <point x="134.77599999999998" y="531.8" type="line"/>
      <point x="155.444" y="664.109" type="line"/>
      <point x="129.378" y="664.109" type="line"/>
      <point x="101.934" y="531.8" type="line"/>
      <point x="41.788000000000004" y="525.674" type="line"/>
      <point x="37.6" y="501.012" type="line"/>
      <point x="96.792" y="501.012" type="line"/>
      <point x="36.547000000000004" y="121.666" type="line" smooth="yes"/>
      <point x="33.367000000000004" y="103.324"/>
      <point x="31.942999999999994" y="84.42"/>
      <point x="31.942999999999994" y="69.87400000000001" type="curve" smooth="yes"/>
      <point x="31.942999999999994" y="18.882999999999996"/>
      <point x="54.69" y="-10.0"/>
      <point x="110.843" y="-10.0" type="curve" smooth="yes"/>
      <point x="129.518" y="-10.0"/>
      <point x="151.348" y="-6.595999999999999"/>
      <point x="174.53" y="1.7770000000000006" type="curve"/>
    </contour>
  </outline>
</glyph>
<glyph name="u" format="2">
  <advance width="323.94"/>
  <unicode hex="0075"/>
  <note>
15
</note>
  <anchor x="119.922" y="0.0" name="bottom"/>
  <anchor x="289.985" y="1.4489999999999998" name="ogonek"/>
  <anchor x="199.10103600000002" y="531.8" name="top"/>
  <anchor x="306.771" y="531.8" name="topright"/>
  <outline>
    <contour>
      <point x="93.647" y="-10.0" type="curve" smooth="yes"/>
      <point x="131.132" y="-10.0"/>
      <point x="163.941" y="3.095"/>
      <point x="202.494" y="28.817000000000004" type="curve"/>
      <point x="206.067" y="2.177"/>
      <point x="223.095" y="-10.0"/>
      <point x="247.27399999999997" y="-10.0" type="curve" smooth="yes"/>
      <point x="257.326" y="-10.0"/>
      <point x="277.02" y="-5.497"/>
      <point x="289.985" y="1.5479999999999998" type="curve"/>
      <point x="287.381" y="27.53" type="line"/>
      <point x="275.919" y="22.863"/>
      <point x="264.166" y="20.133"/>
      <point x="257.607" y="20.133" type="curve" smooth="yes"/>
      <point x="239.569" y="20.133"/>
      <point x="234.049" y="30.511"/>
      <point x="234.049" y="45.842" type="curve" smooth="yes"/>
      <point x="234.049" y="56.566"/>
      <point x="236.687" y="77.215"/>
      <point x="309.201" y="531.8" type="curve"/>
      <point x="276.376" y="531.8" type="line"/>
      <point x="201.928" y="55.836000000000006" type="line"/>
      <point x="167.72" y="32.391"/>
      <point x="136.751" y="20.646"/>
      <point x="105.69300000000001" y="20.646" type="curve" smooth="yes"/>
      <point x="71.14200000000001" y="20.646"/>
      <point x="52.793" y="43.980000000000004"/>
      <point x="52.95499999999999" y="74.525" type="curve" smooth="yes"/>
      <point x="54.413" y="96.913"/>
      <point x="57.239999999999995" y="116.22800000000001"/>
      <point x="122.347" y="531.8" type="curve"/>
      <point x="89.532" y="531.8" type="line"/>
      <point x="41.03" y="214.442"/>
      <point x="19.168000000000003" y="102.65200000000002"/>
      <point x="19.168000000000003" y="61.78" type="curve" smooth="yes"/>
      <point x="19.168000000000003" y="18.158"/>
      <point x="47.043000000000006" y="-10.0"/>
    </contour>
  </outline>
</glyph>
<glyph name="v" format="2">
  <advance width="283.223"/>
  <unicode hex="0076"/>
  <outline>
    <contour>
      <point x="118.50099999999999" y="-3.176" type="line"/>
      <point x="248.023" y="341.991"/>
      <point x="296.26700000000005" y="419.415"/>
      <point x="297.219" y="531.8" type="curve"/>
      <point x="263.925" y="531.8" type="line"/>
      <point x="260.623" y="428.087"/>
      <point x="235.52100000000002" y="389.253"/>
      <point x="104.99900000000001" y="41.964999999999996" type="curve"/>
      <point x="86.327" y="532.7099999999999" type="line"/>
      <point x="52.628" y="532.0229999999999" type="line"/>
      <point x="78.715" y="-3.176" type="line"/>
    </contour>
  </outline>
</glyph>
<glyph name="w" format="2">
  <advance width="466.699"/>
  <unicode hex="0077"/>
  <note>
15
</note>
  <anchor x="202.583" y="0.0" name="bottom"/>
  <anchor x="266.463" y="531.8" name="top"/>
  <outline>
    <contour>
      <point x="319.987" y="0.0" type="line"/>
      <point x="445.481" y="364.79900000000004"/>
      <point x="471.645" y="415.343"/>
      <point x="478.997" y="531.8" type="curve"/>
      <point x="446.432" y="531.8" type="line"/>
      <point x="436.882" y="415.79900000000004"/>
      <point x="419.201" y="373.41499999999996"/>
      <point x="307.381" y="46.35" type="curve"/>
      <point x="284.377" y="483.579" type="line"/>
      <point x="247.039" y="483.579" type="line"/>
      <point x="199.668" y="336.735"/>
      <point x="153.252" y="190.728"/>
      <point x="105.77300000000001" y="44.262" type="curve"/>
      <point x="80.91" y="532.7099999999999" type="line"/>
      <point x="48.231" y="532.0319999999999" type="line"/>
      <point x="78.845" y="0.0" type="line"/>
      <point x="118.226" y="0.0" type="line"/>
      <point x="164.96699999999998" y="143.045"/>
      <point x="212.45799999999997" y="287.263"/>
      <point x="258.983" y="430.128" type="curve"/>
      <point x="281.668" y="0.0" type="line"/>
    </contour>
  </outline>
</glyph>
<glyph name="x" format="2">
  <advance width="282.18500000000006"/>
  <unicode hex="0078"/>
  <outline>
    <contour>
      <point x="260.95750000000004" y="531.8" type="line"/>
      <point x="256.2975" y="463.3925"/>
      <point x="232.5725" y="387.88"/>
      <point x="150.56" y="291.46250000000003" type="curve"/>
      <point x="96.3325" y="536.235" type="line"/>
      <point x="63.29" y="531.755" type="line"/>
      <point x="123.43249999999999" y="270.7575" type="line"/>
      <point x="34.2475" y="168.42749999999998"/>
      <point x="-9.2475" y="79.93"/>
      <point x="-13.555" y="0.0" type="curve"/>
      <point x="19.13" y="0.0" type="line"/>
      <point x="25.47" y="79.195"/>
      <point x="62.300000000000004" y="152.7075"/>
      <point x="138.355" y="242.17499999999998" type="curve"/>
      <point x="194.0575" y="-2.685" type="line"/>
      <point x="227.0975" y="0.9775" type="line"/>
      <point x="165.1425" y="264.0375" type="line"/>
      <point x="257.43" y="365.0025"/>
      <point x="290.83250000000004" y="463.37"/>
      <point x="294.3525" y="531.8" type="curve"/>
    </contour>
  </outline>
</glyph>
<glyph name="y" format="2">
  <advance width="283.31500000000005"/>
  <unicode hex="0079"/>
  <anchor x="82.1" y="-210.0" name="bottom"/>
  <anchor x="171.54000000000002" y="531.8" name="top"/>
  <outline>
    <contour>
      <point x="267.645" y="539.99" type="line"/>
      <point x="240.67000000000002" y="344.905"/>
      <point x="180.78" y="183.76500000000001"/>
      <point x="119.085" y="36.095" type="curve"/>
      <point x="77.55" y="540.9" type="line"/>
      <point x="44.51" y="538.625" type="line"/>
      <point x="89.69000000000001" y="-0.91" type="line"/>
      <point x="100.175" y="-0.91" type="line"/>
      <point x="67.53" y="-77.86"/>
      <point x="32.440000000000005" y="-147.3"/>
      <point x="-1.54" y="-209.545" type="curve"/>
      <point x="29.9" y="-219.1" type="line"/>
      <point x="145.695" y="0.6300000000000002"/>
      <point x="266.10499999999996" y="290.59"/>
      <point x="299.82" y="536.805" type="curve"/>
    </contour>
  </outline>
</glyph>
<glyph name="z" format="2">
  <advance width="283.73900000000003"/>
  <unicode hex="007A"/>
  <anchor x="114.20700000000001" y="0.0" name="bottom"/>
  <anchor x="138.064" y="275.0" name="center"/>
  <anchor x="188.202" y="531.8" name="top"/>
  <outline>
    <contour>
      <point x="-12.489999999999998" y="0.0" type="line"/>
      <point x="237.65699999999998" y="0.0" type="line"/>
      <point x="242.601" y="31.305" type="line"/>
      <point x="27.936" y="31.305" type="line"/>
      <point x="298.388" y="501.659" type="line"/>
      <point x="303.194" y="531.8" type="line"/>
      <point x="77.98100000000001" y="531.8" type="line"/>
      <point x="72.947" y="500.333" type="line"/>
      <point x="262.606" y="500.333" type="line"/>
      <point x="-8.671999999999999" y="29.115000000000002" type="line"/>
    </contour>
  </outline>
</glyph>
<glyph name="braceleft" format="2">
  <advance width="217.234"/>
  <unicode hex="007B"/>
  <outline>
    <contour>
      <point x="19.020000000000003" y="-119.125" type="curve" smooth="yes"/>
      <point x="19.020000000000003" y="-172.77"/>
      <point x="40.112" y="-210.0"/>
      <point x="85.12599999999999" y="-210.0" type="curve" smooth="yes"/>
      <point x="112.28600000000002" y="-210.0" type="line"/>
      <point x="117.34700000000001" y="-178.39" type="line"/>
      <point x="94.66900000000001" y="-178.39" type="line" smooth="yes"/>
      <point x="62.782000000000004" y="-178.39"/>
      <point x="49.613" y="-151.265"/>
      <point x="49.613" y="-112.84800000000001" type="curve" smooth="yes"/>
      <point x="49.613" y="0.6879999999999998"/>
      <point x="122.135" y="100.90599999999999"/>
      <point x="122.135" y="208.828" type="curve" smooth="yes"/>
      <point x="122.135" y="235.88000000000002"/>
      <point x="118.097" y="261.288"/>
      <point x="95.422" y="272.28" type="curve"/>
      <point x="139.937" y="280.408"/>
      <point x="156.52499999999998" y="358.034"/>
      <point x="156.52499999999998" y="413.15" type="curve" smooth="yes"/>
      <point x="156.52499999999998" y="461.845"/>
      <point x="154.109" y="491.342"/>
      <point x="154.109" y="553.1850000000001" type="curve" smooth="yes"/>
      <point x="154.109" y="626.946"/>
      <point x="174.48499999999999" y="708.39"/>
      <point x="237.995" y="708.39" type="curve" smooth="yes"/>
      <point x="257.235" y="708.39" type="line"/>
      <point x="262.134" y="740.0" type="line"/>
      <point x="239.06900000000002" y="740.0" type="line" smooth="yes"/>
      <point x="150.875" y="740.0"/>
      <point x="124.00999999999999" y="638.981"/>
      <point x="124.00999999999999" y="545.0310000000001" type="curve" smooth="yes"/>
      <point x="124.00999999999999" y="487.63599999999997"/>
      <point x="126.66" y="455.80199999999996"/>
      <point x="126.66" y="421.637" type="curve" smooth="yes"/>
      <point x="126.66" y="367.27"/>
      <point x="117.029" y="289.219"/>
      <point x="72.352" y="289.219" type="curve" smooth="yes"/>
      <point x="58.788999999999994" y="289.219" type="line"/>
      <point x="53.809" y="257.808" type="line"/>
      <point x="65.825" y="257.808" type="line" smooth="yes"/>
      <point x="88.25800000000001" y="257.808"/>
      <point x="93.676" y="236.404"/>
      <point x="93.676" y="211.26000000000002" type="curve" smooth="yes"/>
      <point x="93.676" y="96.339"/>
      <point x="19.020000000000003" y="9.25"/>
    </contour>
  </outline>
</glyph>
<glyph name="bar" format="2">
  <advance width="130.514"/>
  <unicode hex="007C"/>
  <outline>
    <contour>
      <point x="162.08" y="790.081" type="line"/>
      <point x="132.38" y="790.081" type="line"/>
      <point x="-26.647000000000002" y="-210.0" type="line"/>
      <point x="3.1250000000000004" y="-210.0" type="line"/>
    </contour>
  </outline>
</glyph>
<glyph name="braceright" format="2">
  <advance width="217.234"/>
  <unicode hex="007D"/>
  <outline>
    <contour>
      <point x="195.123" y="649.125" type="curve" smooth="yes"/>
      <point x="195.123" y="702.851"/>
      <point x="173.95000000000002" y="740.081"/>
      <point x="128.93599999999998" y="740.081" type="curve" smooth="yes"/>
      <point x="101.77600000000001" y="740.081" type="line"/>
      <point x="96.715" y="708.471" type="line"/>
      <point x="118.583" y="708.471" type="line" smooth="yes"/>
      <point x="150.551" y="708.471"/>
      <point x="163.80100000000002" y="681.2649999999999"/>
      <point x="163.80100000000002" y="642.848" type="curve" smooth="yes"/>
      <point x="163.80100000000002" y="529.15"/>
      <point x="91.279" y="437.923"/>
      <point x="91.279" y="328.29999999999995" type="curve" smooth="yes"/>
      <point x="91.279" y="301.49100000000004"/>
      <point x="95.23600000000002" y="276.08299999999997"/>
      <point x="118.07300000000001" y="265.172" type="curve"/>
      <point x="73.558" y="256.963"/>
      <point x="56.889" y="179.499"/>
      <point x="56.889" y="124.30199999999999" type="curve" smooth="yes"/>
      <point x="56.889" y="75.607"/>
      <point x="59.305" y="38.739000000000004"/>
      <point x="59.305" y="-22.942" type="curve" smooth="yes"/>
      <point x="59.305" y="-96.70299999999999"/>
      <point x="39.01" y="-178.309"/>
      <point x="-24.5" y="-178.309" type="curve" smooth="yes"/>
      <point x="-43.092000000000006" y="-178.309" type="line"/>
      <point x="-47.991" y="-210.0" type="line"/>
      <point x="-25.007" y="-210.0" type="line" smooth="yes"/>
      <point x="63.187000000000005" y="-210.0"/>
      <point x="90.052" y="-107.928"/>
      <point x="90.052" y="-16.57" type="curve" smooth="yes"/>
      <point x="90.052" y="43.012"/>
      <point x="87.402" y="82.541"/>
      <point x="87.402" y="116.139" type="curve" smooth="yes"/>
      <point x="87.402" y="170.344"/>
      <point x="97.19500000000001" y="248.233"/>
      <point x="141.71" y="248.233" type="curve" smooth="yes"/>
      <point x="155.273" y="248.233" type="line"/>
      <point x="160.253" y="279.563" type="line"/>
      <point x="148.237" y="279.563" type="line" smooth="yes"/>
      <point x="125.804" y="279.563"/>
      <point x="120.386" y="300.967"/>
      <point x="120.386" y="326.11100000000005" type="curve" smooth="yes"/>
      <point x="120.386" y="441.11299999999994"/>
      <point x="195.123" y="519.616"/>
    </contour>
  </outline>
</glyph>
<glyph name="asciitilde" format="2">
  <advance width="367.643"/>
  <unicode hex="007E"/>
  <outline>
    <contour>
      <point x="307.90599999999995" y="252.19" type="curve"/>
      <point x="313.76" y="289.339" type="line"/>
      <point x="293.322" y="264.02"/>
      <point x="276.859" y="251.807"/>
      <point x="255.31099999999998" y="251.807" type="curve" smooth="yes"/>
      <point x="199.06" y="251.807"/>
      <point x="185.38899999999998" y="366.10999999999996"/>
      <point x="125.53" y="366.10999999999996" type="curve" smooth="yes"/>
      <point x="101.11" y="366.10999999999996"/>
      <point x="83.77799999999999" y="354.451"/>
      <point x="66.23899999999999" y="333.255" type="curve"/>
      <point x="60.339999999999996" y="296.01500000000004" type="line"/>
      <point x="79.596" y="319.63"/>
      <point x="96.529" y="333.38399999999996"/>
      <point x="119.085" y="333.38399999999996" type="curve" smooth="yes"/>
      <point x="171.31399999999996" y="333.38399999999996"/>
      <point x="185.659" y="219.08100000000002"/>
      <point x="249.847" y="219.08100000000002" type="curve" smooth="yes"/>
      <point x="273.781" y="219.08100000000002"/>
      <point x="289.351" y="229.364"/>
    </contour>
  </outline>
</glyph>
<glyph name="cent" format="2">
  <advance width="342.314"/>
  <unicode hex="00A2"/>
  <outline>
    <contour>
      <point x="131.393" y="-105.072" type="line"/>
      <point x="161.201" y="-105.072" type="line"/>
      <point x="176.29099999999997" y="-9.251999999999999" type="line"/>
      <point x="204.12600000000003" y="-7.636"/>
      <point x="229.13299999999998" y="-3.3560000000000003"/>
      <point x="246.42199999999997" y="2.668" type="curve"/>
      <point x="243.51" y="33.376999999999995" type="line"/>
      <point x="225.0" y="27.613"/>
      <point x="195.738" y="22.932"/>
      <point x="176.775" y="22.932" type="curve" smooth="yes"/>
      <point x="117.07600000000001" y="22.932"/>
      <point x="94.47299999999998" y="65.74"/>
      <point x="94.47299999999998" y="140.13" type="curve" smooth="yes"/>
      <point x="94.47299999999998" y="344.23699999999997"/>
      <point x="165.37400000000002" y="507.104"/>
      <point x="253.086" y="507.104" type="curve" smooth="yes"/>
      <point x="273.89599999999996" y="507.104"/>
      <point x="292.934" y="502.61100000000005"/>
      <point x="310.80299999999994" y="497.09399999999994" type="curve"/>
      <point x="322.17600000000004" y="530.207" type="line"/>
      <point x="304.84000000000003" y="535.233"/>
      <point x="288.19800000000004" y="539.496"/>
      <point x="268.331" y="540.576" type="curve"/>
      <point x="284.249" y="636.719" type="line"/>
      <point x="254.441" y="636.719" type="line"/>
      <point x="238.334" y="539.18" type="line"/>
      <point x="135.578" y="527.5079999999999"/>
      <point x="60.388999999999996" y="355.123"/>
      <point x="60.388999999999996" y="130.43" type="curve" smooth="yes"/>
      <point x="60.388999999999996" y="33.327"/>
      <point x="98.746" y="-0.6390000000000003"/>
      <point x="145.672" y="-7.623" type="curve"/>
    </contour>
  </outline>
</glyph>
<glyph name="sterling" format="2">
  <advance width="342.368"/>
  <unicode hex="00A3"/>
  <outline>
    <contour>
      <point x="27.378" y="0.0" type="line"/>
      <point x="255.2" y="0.0" type="line"/>
      <point x="260.225" y="32.915000000000006" type="line"/>
      <point x="71.656" y="32.915000000000006" type="line"/>
      <point x="130.546" y="109.34400000000001"/>
      <point x="169.26999999999998" y="181.538"/>
      <point x="169.26999999999998" y="291.28899999999993" type="curve" smooth="yes"/>
      <point x="169.26999999999998" y="353.92"/>
      <point x="150.392" y="405.452"/>
      <point x="150.392" y="468.001" type="curve" smooth="yes"/>
      <point x="150.392" y="619.038"/>
      <point x="217.284" y="675.719"/>
      <point x="270.998" y="675.719" type="curve" smooth="yes"/>
      <point x="298.52399999999994" y="675.719"/>
      <point x="322.63999999999993" y="670.534"/>
      <point x="347.90700000000004" y="658.6320000000001" type="curve"/>
      <point x="361.179" y="689.1499999999999" type="line"/>
      <point x="336.435" y="702.513"/>
      <point x="305.53999999999996" y="710.0"/>
      <point x="278.433" y="710.0" type="curve" smooth="yes"/>
      <point x="187.895" y="710.0"/>
      <point x="118.63" y="632.3620000000001"/>
      <point x="118.63" y="474.80100000000004" type="curve" smooth="yes"/>
      <point x="118.63" y="391.503"/>
      <point x="137.44500000000002" y="358.96700000000004"/>
      <point x="137.44500000000002" y="284.58200000000005" type="curve" smooth="yes"/>
      <point x="137.44500000000002" y="173.52100000000002"/>
      <point x="90.003" y="103.781"/>
      <point x="29.334" y="29.225" type="curve"/>
    </contour>
    <contour>
      <point x="68.55000000000001" y="358.178" type="line"/>
      <point x="288.47900000000004" y="358.34200000000004" type="line"/>
      <point x="292.739" y="386.448" type="line"/>
      <point x="72.945" y="386.448" type="line"/>
    </contour>
  </outline>
</glyph>
<glyph name="currency" format="2">
  <advance width="381.971"/>
  <unicode hex="00A4"/>
  <outline>
    <contour>
      <point x="29.505000000000003" y="111.479" type="line"/>
      <point x="107.27099999999999" y="184.65200000000002" type="line"/>
      <point x="123.579" y="166.272"/>
      <point x="147.084" y="156.253"/>
      <point x="175.311" y="156.253" type="curve" smooth="yes"/>
      <point x="203.303" y="156.253"/>
      <point x="230.46699999999998" y="166.36299999999997"/>
      <point x="253.081" y="184.58" type="curve"/>
      <point x="307.75800000000004" y="111.479" type="line"/>
      <point x="332.81899999999996" y="134.416" type="line"/>
      <point x="278.26" y="206.482" type="line"/>
      <point x="303.351" y="233.439"/>
      <point x="320.127" y="271.161"/>
      <point x="320.289" y="311.831" type="curve" smooth="yes"/>
      <point x="320.451" y="334.633"/>
      <point x="314.98199999999997" y="354.968"/>
      <point x="304.882" y="372.382" type="curve"/>
      <point x="381.686" y="444.44800000000004" type="line"/>
      <point x="364.27" y="467.385" type="line"/>
      <point x="286.557" y="394.527" type="line"/>
      <point x="269.503" y="412.835"/>
      <point x="245.807" y="423.84499999999997"/>
      <point x="217.725" y="423.84499999999997" type="curve" smooth="yes"/>
      <point x="189.417" y="423.84499999999997"/>
      <point x="162.191" y="412.75399999999996"/>
      <point x="139.433" y="394.455" type="curve"/>
      <point x="86.00800000000001" y="467.385" type="line"/>
      <point x="62.423" y="444.44800000000004" type="line"/>
      <point x="114.632" y="372.841" type="line"/>
      <point x="89.59400000000001" y="345.399"/>
      <point x="73.809" y="308.721"/>
      <point x="73.647" y="268.385" type="curve" smooth="yes"/>
      <point x="73.485" y="244.555"/>
      <point x="78.873" y="223.374"/>
      <point x="88.982" y="205.932" type="curve"/>
      <point x="13.547" y="134.416" type="line"/>
    </contour>
    <contour>
      <point x="180.67" y="184.93800000000002" type="curve" smooth="yes"/>
      <point x="133.649" y="184.93800000000002"/>
      <point x="100.324" y="222.24699999999999"/>
      <point x="100.567" y="271.43199999999996" type="curve" smooth="yes"/>
      <point x="100.80999999999999" y="338.44500000000005"/>
      <point x="156.37199999999999" y="395.079"/>
      <point x="213.34799999999998" y="395.079" type="curve" smooth="yes"/>
      <point x="261.197" y="395.079"/>
      <point x="293.62199999999996" y="357.6"/>
      <point x="293.379" y="307.85800000000006" type="curve" smooth="yes"/>
      <point x="293.13599999999997" y="241.475"/>
      <point x="238.62900000000002" y="184.93800000000002"/>
    </contour>
  </outline>
</glyph>
<glyph name="yen" format="2">
  <advance width="342.45"/>
  <unicode hex="00A5"/>
  <outline>
    <contour>
      <point x="81.5" y="356.18" type="line"/>
      <point x="169.90499999999997" y="356.18" type="line"/>
      <point x="149.655" y="230.24" type="line"/>
      <point x="62.865" y="230.24" type="line"/>
      <point x="57.605000000000004" y="202.825" type="line"/>
      <point x="145.35000000000002" y="202.825" type="line"/>
      <point x="113.345" y="0.0" type="line"/>
      <point x="145.7" y="0.0" type="line"/>
      <point x="177.75" y="202.825" type="line"/>
      <point x="269.635" y="202.825" type="line"/>
      <point x="273.895" y="230.24" type="line"/>
      <point x="182.01" y="230.24" type="line"/>
      <point x="202.26" y="356.18" type="line"/>
      <point x="293.32500000000005" y="356.18" type="line"/>
      <point x="298.45" y="383.71" type="line"/>
      <point x="208.18" y="383.71" type="line"/>
      <point x="358.035" y="700.09" type="line"/>
      <point x="325.41999999999996" y="707.28" type="line"/>
      <point x="197.625" y="421.855" type="line"/>
      <point x="152.44" y="702.2750000000001" type="line"/>
      <point x="119.16499999999999" y="699.34" type="line"/>
      <point x="174.21" y="383.71" type="line"/>
      <point x="86.67" y="383.71" type="line"/>
    </contour>
  </outline>
</glyph>
<glyph name="brokenbar" format="2">
  <advance width="131.738"/>
  <unicode hex="00A6"/>
  <outline>
    <contour>
      <point x="98.395" y="391.0" type="line"/>
      <point x="162.56600000000003" y="790.081" type="line"/>
      <point x="132.866" y="790.081" type="line"/>
      <point x="68.695" y="391.0" type="line"/>
    </contour>
    <contour>
      <point x="37.443" y="190.08100000000002" type="line"/>
      <point x="-25.827999999999996" y="-210.0" type="line"/>
      <point x="3.863000000000001" y="-210.0" type="line"/>
      <point x="67.21499999999999" y="190.08100000000002" type="line"/>
    </contour>
  </outline>
</glyph>
<glyph name="section" format="2">
  <advance width="359.963"/>
  <unicode hex="00A7"/>
  <outline>
    <contour>
      <point x="-0.934" y="-148.27599999999998" type="curve"/>
      <point x="-20.281" y="-179.621" type="line"/>
      <point x="10.937" y="-208.28400000000002"/>
      <point x="39.766000000000005" y="-220.0"/>
      <point x="78.645" y="-220.0" type="curve" smooth="yes"/>
      <point x="204.91" y="-220.0"/>
      <point x="311.00100000000003" y="-53.527"/>
      <point x="311.00100000000003" y="141.773" type="curve" smooth="yes"/>
      <point x="311.00100000000003" y="319.101"/>
      <point x="216.46200000000002" y="432.125"/>
      <point x="216.46200000000002" y="584.7719999999999" type="curve" smooth="yes"/>
      <point x="216.46200000000002" y="658.708"/>
      <point x="247.11200000000002" y="712.354"/>
      <point x="294.717" y="712.354" type="curve" smooth="yes"/>
      <point x="308.224" y="712.354"/>
      <point x="320.808" y="708.2909999999999"/>
      <point x="335.574" y="700.845" type="curve"/>
      <point x="351.105" y="735.713" type="line"/>
      <point x="330.98400000000004" y="744.899"/>
      <point x="305.44699999999995" y="749.081"/>
      <point x="282.691" y="749.081" type="curve" smooth="yes"/>
      <point x="150.006" y="749.081"/>
      <point x="50.719" y="598.153"/>
      <point x="50.719" y="399.385" type="curve" smooth="yes"/>
      <point x="50.719" y="203.19"/>
      <point x="143.72400000000002" y="73.122"/>
      <point x="143.72400000000002" y="-66.80199999999999" type="curve" smooth="yes"/>
      <point x="143.72400000000002" y="-135.08599999999998"/>
      <point x="110.41999999999999" y="-183.417"/>
      <point x="65.157" y="-183.417" type="curve" smooth="yes"/>
      <point x="41.848" y="-183.417"/>
      <point x="16.887999999999998" y="-169.54000000000002"/>
    </contour>
    <contour>
      <point x="241.682" y="717.312" type="curve"/>
      <point x="208.899" y="690.641"/>
      <point x="190.264" y="637.4630000000001"/>
      <point x="190.264" y="585.383" type="curve" smooth="yes"/>
      <point x="190.264" y="410.421"/>
      <point x="283.272" y="311.855"/>
      <point x="283.272" y="126.378" type="curve" smooth="yes"/>
      <point x="283.272" y="-24.086"/>
      <point x="200.28699999999998" y="-171.484"/>
      <point x="114.483" y="-187.381" type="curve"/>
      <point x="153.25900000000001" y="-156.095"/>
      <point x="171.00300000000001" y="-108.858"/>
      <point x="171.00300000000001" y="-56.446" type="curve" smooth="yes"/>
      <point x="171.00300000000001" y="86.082"/>
      <point x="78.752" y="227.115"/>
      <point x="78.752" y="394.175" type="curve" smooth="yes"/>
      <point x="78.752" y="558.534"/>
      <point x="139.694" y="684.635"/>
    </contour>
  </outline>
</glyph>
<glyph name="copyright" format="2">
  <advance width="396.77299999999997"/>
  <unicode hex="00A9"/>
  <outline>
    <contour>
      <point x="160.16600000000003" y="-10.018" type="curve" smooth="yes"/>
      <point x="307.448" y="-10.054"/>
      <point x="383.749" y="295.34799999999996"/>
      <point x="383.749" y="539.903" type="curve" smooth="yes"/>
      <point x="383.749" y="655.296"/>
      <point x="340.126" y="711.989"/>
      <point x="261.321" y="712.025" type="curve" smooth="yes"/>
      <point x="113.47800000000001" y="712.061"/>
      <point x="36.943" y="406.839"/>
      <point x="36.943" y="162.122" type="curve" smooth="yes"/>
      <point x="36.943" y="46.782999999999994"/>
      <point x="80.53" y="-9.982"/>
    </contour>
    <contour>
      <point x="194.267" y="163.35599999999997" type="curve" smooth="yes"/>
      <point x="208.806" y="163.35599999999997"/>
      <point x="228.845" y="166.752"/>
      <point x="242.09199999999998" y="170.821" type="curve"/>
      <point x="241.46599999999998" y="196.16500000000002" type="line"/>
      <point x="231.293" y="192.73499999999999"/>
      <point x="211.768" y="190.59099999999998"/>
      <point x="200.052" y="190.59099999999998" type="curve" smooth="yes"/>
      <point x="168.563" y="190.59099999999998"/>
      <point x="152.57" y="218.206"/>
      <point x="152.57" y="262.12000000000006" type="curve" smooth="yes"/>
      <point x="152.57" y="375.10699999999997"/>
      <point x="193.792" y="495.50100000000003"/>
      <point x="246.815" y="495.50100000000003" type="curve" smooth="yes"/>
      <point x="260.9750000000001" y="495.50100000000003"/>
      <point x="272.08299999999997" y="494.625"/>
      <point x="284.324" y="490.28499999999997" type="curve"/>
      <point x="292.844" y="517.2470000000001" type="line"/>
      <point x="280.45" y="521.7850000000001"/>
      <point x="265.658" y="523.789"/>
      <point x="248.60799999999998" y="523.789" type="curve" smooth="yes"/>
      <point x="181.305" y="523.789"/>
      <point x="125.354" y="404.39199999999994"/>
      <point x="125.354" y="262.208" type="curve" smooth="yes"/>
      <point x="125.354" y="196.707"/>
      <point x="148.829" y="163.35599999999997"/>
    </contour>
    <contour>
      <point x="161.17900000000003" y="11.832" type="curve" smooth="yes"/>
      <point x="95.061" y="11.832"/>
      <point x="59.867" y="60.66400000000001"/>
      <point x="59.867" y="166.226" type="curve" smooth="yes"/>
      <point x="59.867" y="389.51"/>
      <point x="128.58" y="690.193"/>
      <point x="259.639" y="690.193" type="curve" smooth="yes"/>
      <point x="325.577" y="690.193"/>
      <point x="360.825" y="641.3430000000001"/>
      <point x="360.825" y="535.817" type="curve" smooth="yes"/>
      <point x="360.825" y="312.569"/>
      <point x="292.202" y="11.832"/>
    </contour>
  </outline>
</glyph>
<glyph name="ordfeminine" format="2">
  <advance width="234.25599999999997"/>
  <unicode hex="00AA"/>
  <outline>
    <contour>
      <point x="39.903000000000006" y="293.414" type="line"/>
      <point x="205.74" y="293.414" type="line"/>
      <point x="209.71200000000002" y="316.337" type="line"/>
      <point x="43.875" y="316.337" type="line"/>
    </contour>
    <component base="a.superior" xOffset="10.548000000000002"/>
  </outline>
</glyph>
<glyph name="logicalnot" format="2">
  <advance width="362.34"/>
  <unicode hex="00AC"/>
  <outline>
    <contour>
      <point x="60.614" y="377.66400000000004" type="line"/>
      <point x="302.56" y="377.66400000000004" type="line"/>
      <point x="271.06399999999996" y="176.937" type="line"/>
      <point x="302.312" y="176.937" type="line"/>
      <point x="338.86899999999997" y="408.03900000000004" type="line"/>
      <point x="65.675" y="408.03900000000004" type="line"/>
    </contour>
  </outline>
</glyph>
<glyph name="registered" format="2">
  <advance width="368.42"/>
  <unicode hex="00AE"/>
  <outline>
    <contour>
      <point x="179.387" y="208.46400000000003" type="curve" smooth="yes"/>
      <point x="297.055" y="208.46400000000003"/>
      <point x="387.245" y="458.185"/>
      <point x="387.245" y="731.481" type="curve" smooth="yes"/>
      <point x="387.245" y="839.956"/>
      <point x="349.815" y="894.374"/>
      <point x="276.452" y="894.374" type="curve" smooth="yes"/>
      <point x="158.784" y="894.374"/>
      <point x="69.11200000000001" y="644.4030000000001"/>
      <point x="69.11200000000001" y="371.35699999999997" type="curve" smooth="yes"/>
      <point x="69.11200000000001" y="262.9"/>
      <point x="106.006" y="208.46400000000003"/>
    </contour>
    <contour>
      <point x="179.855" y="227.983" type="curve" smooth="yes"/>
      <point x="119.607" y="227.983"/>
      <point x="89.917" y="277.06"/>
      <point x="89.917" y="372.71999999999997" type="curve" smooth="yes"/>
      <point x="89.917" y="628.4810000000001"/>
      <point x="171.395" y="874.623"/>
      <point x="276.002" y="874.623" type="curve" smooth="yes"/>
      <point x="336.24999999999994" y="874.623"/>
      <point x="366.44" y="825.778"/>
      <point x="366.44" y="729.868" type="curve" smooth="yes"/>
      <point x="366.44" y="474.107"/>
      <point x="284.444" y="227.983"/>
    </contour>
    <contour>
      <point x="145.728" y="401.67900000000003" type="line"/>
      <point x="170.846" y="401.67900000000003" type="line"/>
      <point x="192.594" y="535.054" type="line"/>
      <point x="205.906" y="533.234"/>
      <point x="217.596" y="531.396"/>
      <point x="235.316" y="532.3149999999999" type="curve"/>
      <point x="244.615" y="535.9019999999999" type="line"/>
      <point x="288.13100000000003" y="550.221"/>
      <point x="308.755" y="596.744"/>
      <point x="308.755" y="650.18" type="curve" smooth="yes"/>
      <point x="308.755" y="706.0450000000001"/>
      <point x="288.809" y="724.1279999999999"/>
      <point x="248.689" y="724.1279999999999" type="curve" smooth="yes"/>
      <point x="228.238" y="724.1279999999999"/>
      <point x="213.544" y="722.2969999999999"/>
      <point x="195.67899999999997" y="718.2789999999999" type="curve"/>
    </contour>
    <contour>
      <point x="224.15800000000002" y="554.169" type="curve" smooth="yes"/>
      <point x="212.63899999999998" y="554.169"/>
      <point x="204.224" y="555.838"/>
      <point x="195.84300000000002" y="556.8199999999999" type="curve"/>
      <point x="217.431" y="697.518" type="line"/>
      <point x="229.26699999999997" y="699.651"/>
      <point x="235.76500000000001" y="700.651"/>
      <point x="248.25900000000001" y="700.651" type="curve" smooth="yes"/>
      <point x="273.47200000000004" y="700.651"/>
      <point x="284.58299999999997" y="685.252"/>
      <point x="284.58299999999997" y="651.23" type="curve" smooth="yes"/>
      <point x="284.58299999999997" y="589.438"/>
      <point x="262.38899999999995" y="554.169"/>
    </contour>
    <contour>
      <point x="276.67600000000004" y="398.65" type="curve" smooth="yes"/>
      <point x="279.581" y="398.65"/>
      <point x="283.877" y="399.562"/>
      <point x="286.631" y="400.80500000000006" type="curve"/>
      <point x="288.952" y="426.999" type="line"/>
      <point x="286.916" y="425.411"/>
      <point x="284.91599999999994" y="425.411"/>
      <point x="283.817" y="425.411" type="curve" smooth="yes"/>
      <point x="269.18700000000007" y="425.411"/>
      <point x="262.749" y="456.133"/>
      <point x="252.019" y="548.019" type="curve"/>
      <point x="229.58900000000003" y="542.8860000000001" type="line"/>
      <point x="242.245" y="416.11000000000007"/>
      <point x="252.91199999999995" y="398.65"/>
    </contour>
  </outline>
</glyph>
<glyph name="degree" format="2">
  <advance width="216.615"/>
  <unicode hex="00B0"/>
  <outline>
    <contour>
      <point x="144.80999999999997" y="506.122" type="curve" smooth="yes"/>
      <point x="202.962" y="506.122"/>
      <point x="243.16399999999996" y="572.581"/>
      <point x="243.16399999999996" y="643.213" type="curve" smooth="yes"/>
      <point x="243.16399999999996" y="690.782"/>
      <point x="222.09" y="726.362"/>
      <point x="179.456" y="726.362" type="curve" smooth="yes"/>
      <point x="119.84700000000001" y="726.362"/>
      <point x="81.039" y="657.162"/>
      <point x="81.039" y="586.712" type="curve" smooth="yes"/>
      <point x="81.039" y="540.557"/>
      <point x="101.68100000000001" y="506.122"/>
    </contour>
    <contour>
      <point x="149.24999999999997" y="535.9680000000001" type="curve" smooth="yes"/>
      <point x="120.233" y="535.9680000000001"/>
      <point x="107.563" y="559.272"/>
      <point x="107.563" y="591.378" type="curve" smooth="yes"/>
      <point x="107.563" y="644.635"/>
      <point x="133.55300000000003" y="696.192"/>
      <point x="174.872" y="696.192" type="curve" smooth="yes"/>
      <point x="204.234" y="696.192"/>
      <point x="216.722" y="671.168"/>
      <point x="216.722" y="639.043" type="curve" smooth="yes"/>
      <point x="216.722" y="585.33"/>
      <point x="190.55100000000002" y="535.9680000000001"/>
    </contour>
  </outline>
</glyph>
<glyph name="plusminus" format="2">
  <advance width="363.996"/>
  <unicode hex="00B1"/>
  <outline>
    <contour>
      <point x="289.273" y="67.331" type="line"/>
      <point x="294.334" y="99.33500000000001" type="line"/>
      <point x="169.509" y="99.33500000000001" type="line"/>
      <point x="200.654" y="294.392" type="line"/>
      <point x="324.66" y="294.392" type="line"/>
      <point x="329.721" y="326.396" type="line"/>
      <point x="205.715" y="326.396" type="line"/>
      <point x="237.05900000000003" y="504.3" type="line"/>
      <point x="206.13500000000002" y="504.3" type="line"/>
      <point x="175.59199999999998" y="326.396" type="line"/>
      <point x="49.974999999999994" y="326.396" type="line"/>
      <point x="44.914" y="294.392" type="line"/>
      <point x="169.73" y="294.392" type="line"/>
      <point x="138.56699999999998" y="99.33500000000001" type="line"/>
      <point x="14.588000000000001" y="99.33500000000001" type="line"/>
      <point x="9.527" y="67.331" type="line"/>
    </contour>
  </outline>
</glyph>
<glyph name="uni00B2" format="2">
  <advance width="237.165"/>
  <unicode hex="00B2"/>
  <outline>
    <contour>
      <point x="54.95" y="367.493" type="line"/>
      <point x="208.52599999999998" y="367.493" type="line"/>
      <point x="211.518" y="390.568" type="line"/>
      <point x="87.62599999999999" y="390.568" type="line"/>
      <point x="161.45299999999997" y="496.612"/>
      <point x="236.416" y="609.076"/>
      <point x="236.416" y="705.777" type="curve" smooth="yes"/>
      <point x="236.416" y="747.663"/>
      <point x="217.614" y="772.8580000000001"/>
      <point x="181.07799999999997" y="772.8580000000001" type="curve" smooth="yes"/>
      <point x="155.32999999999998" y="772.8580000000001"/>
      <point x="129.60899999999998" y="761.739"/>
      <point x="107.27" y="739.142" type="curve"/>
      <point x="117.616" y="719.146" type="line"/>
      <point x="140.871" y="740.048"/>
      <point x="155.551" y="746.343"/>
      <point x="174.72" y="746.343" type="curve" smooth="yes"/>
      <point x="198.31300000000002" y="746.343"/>
      <point x="210.35399999999998" y="727.581"/>
      <point x="210.35399999999998" y="696.6830000000001" type="curve" smooth="yes"/>
      <point x="209.435" y="609.895"/>
      <point x="131.136" y="488.125"/>
      <point x="55.451" y="387.03700000000003" type="curve"/>
    </contour>
  </outline>
</glyph>
<glyph name="uni00B3" format="2">
  <advance width="241.37750000000003"/>
  <unicode hex="00B3"/>
  <outline>
    <contour>
      <point x="47.510000000000005" y="394.5925" type="line"/>
      <point x="63.9525" y="373.9525"/>
      <point x="88.5375" y="364.135"/>
      <point x="116.2" y="364.135" type="curve" smooth="yes"/>
      <point x="188.5625" y="364.135"/>
      <point x="226.90249999999997" y="434.48249999999996"/>
      <point x="226.90249999999997" y="514.7175" type="curve" smooth="yes"/>
      <point x="226.90249999999997" y="546.9325"/>
      <point x="215.5725" y="571.0500000000001"/>
      <point x="196.485" y="578.8175" type="curve"/>
      <point x="224.26500000000001" y="594.6025000000001"/>
      <point x="247.145" y="642.825"/>
      <point x="247.145" y="695.5050000000001" type="curve" smooth="yes"/>
      <point x="247.145" y="746.9125"/>
      <point x="219.9125" y="773.7025"/>
      <point x="178.6875" y="773.7025" type="curve" smooth="yes"/>
      <point x="158.03" y="773.7025"/>
      <point x="134.5275" y="768.4375"/>
      <point x="111.33" y="751.4625" type="curve"/>
      <point x="121.735" y="732.4825" type="line"/>
      <point x="139.6475" y="744.375"/>
      <point x="158.64249999999998" y="748.9200000000001"/>
      <point x="174.3425" y="748.9200000000001" type="curve" smooth="yes"/>
      <point x="201.705" y="748.9200000000001"/>
      <point x="221.19" y="729.8675"/>
      <point x="221.19" y="689.8875" type="curve" smooth="yes"/>
      <point x="221.19" y="635.51"/>
      <point x="195.27499999999998" y="588.295"/>
      <point x="163.47500000000002" y="588.295" type="curve" smooth="yes"/>
      <point x="128.085" y="588.295" type="line"/>
      <point x="124.96000000000001" y="567.58" type="line"/>
      <point x="162.6225" y="567.58" type="line" smooth="yes"/>
      <point x="188.095" y="567.58"/>
      <point x="202.825" y="549.3025"/>
      <point x="202.825" y="511.50749999999994" type="curve" smooth="yes"/>
      <point x="202.825" y="452.88"/>
      <point x="175.6125" y="388.445"/>
      <point x="116.36" y="388.445" type="curve" smooth="yes"/>
      <point x="94.4725" y="388.445"/>
      <point x="77.24499999999999" y="396.3125"/>
      <point x="63.5" y="412.91" type="curve"/>
    </contour>
  </outline>
</glyph>
<glyph name="uni00B5" format="2">
  <advance width="326.687"/>
  <unicode hex="00B5"/>
  <outline>
    <contour>
      <point x="-23.333" y="-210.0" type="line"/>
      <point x="8.645000000000001" y="-210.0" type="line"/>
      <point x="45.294999999999995" y="21.504" type="line"/>
      <point x="54.384" y="0.11000000000000038"/>
      <point x="74.23" y="-10.0"/>
      <point x="101.16399999999999" y="-10.0" type="curve" smooth="yes"/>
      <point x="136.58800000000002" y="-10.0"/>
      <point x="168.82999999999998" y="2.528"/>
      <point x="205.97" y="27.845000000000002" type="curve"/>
      <point x="209.54299999999998" y="2.015"/>
      <point x="226.247" y="-10.0"/>
      <point x="250.02100000000002" y="-10.0" type="curve" smooth="yes"/>
      <point x="260.073" y="-10.0"/>
      <point x="279.767" y="-5.497"/>
      <point x="292.732" y="1.5479999999999998" type="curve"/>
      <point x="290.128" y="27.53" type="line"/>
      <point x="278.666" y="22.863"/>
      <point x="266.913" y="20.133"/>
      <point x="260.354" y="20.133" type="curve" smooth="yes"/>
      <point x="242.31600000000003" y="20.133"/>
      <point x="236.79600000000002" y="30.511"/>
      <point x="236.79600000000002" y="45.842" type="curve" smooth="yes"/>
      <point x="236.79600000000002" y="56.566"/>
      <point x="239.43400000000003" y="77.215"/>
      <point x="311.94800000000004" y="531.8" type="curve"/>
      <point x="279.123" y="531.8" type="line"/>
      <point x="204.67499999999998" y="55.836000000000006" type="line"/>
      <point x="170.467" y="32.391"/>
      <point x="132.946" y="20.646"/>
      <point x="106.802" y="20.646" type="curve" smooth="yes"/>
      <point x="72.251" y="20.646"/>
      <point x="54.721" y="39.885000000000005"/>
      <point x="54.882999999999996" y="70.42999999999999" type="curve" smooth="yes"/>
      <point x="56.745999999999995" y="96.094"/>
      <point x="77.18599999999999" y="227.612"/>
      <point x="125.09400000000001" y="531.8" type="curve"/>
      <point x="92.27900000000001" y="531.8" type="line"/>
    </contour>
  </outline>
</glyph>
<glyph name="paragraph" format="2">
  <advance width="402.981"/>
  <unicode hex="00B6"/>
  <outline>
    <contour>
      <point x="247.16400000000002" y="-210.0" type="line"/>
      <point x="275.45099999999996" y="-210.0" type="line"/>
      <point x="425.703" y="740.0" type="line"/>
      <point x="397.416" y="740.0" type="line"/>
    </contour>
    <contour>
      <point x="157.645" y="211.839" type="line"/>
      <point x="102.74900000000001" y="224.602"/>
      <point x="74.809" y="279.903"/>
      <point x="74.809" y="362.52299999999997" type="curve" smooth="yes"/>
      <point x="74.809" y="538.279"/>
      <point x="148.55900000000003" y="703.577"/>
      <point x="276.487" y="708.9259999999999" type="curve"/>
      <point x="131.449" y="-210.0" type="line"/>
      <point x="159.736" y="-210.0" type="line"/>
      <point x="309.988" y="740.0" type="line"/>
      <point x="289.988" y="740.0" type="line" smooth="yes"/>
      <point x="134.07000000000002" y="740.0"/>
      <point x="44.594" y="555.521"/>
      <point x="44.594" y="360.897" type="curve" smooth="yes"/>
      <point x="44.594" y="265.76800000000003"/>
      <point x="78.88400000000001" y="199.789"/>
      <point x="149.63" y="182.91299999999998" type="curve"/>
    </contour>
  </outline>
</glyph>
<glyph name="periodcentered" format="2">
  <advance width="112.175"/>
  <unicode hex="00B7"/>
  <outline>
    <contour>
      <point x="36.780499999999996" y="286.5385" type="curve" smooth="yes"/>
      <point x="35.0425" y="269.4835"/>
      <point x="38.381" y="264.5775"/>
      <point x="54.1095" y="264.5775" type="curve" smooth="yes"/>
      <point x="73.41900000000001" y="264.5775"/>
      <point x="76.9165" y="273.5875"/>
      <point x="78.8185" y="294.86400000000003" type="curve" smooth="yes"/>
      <point x="80.5565" y="310.9785"/>
      <point x="77.97849999999998" y="316.69"/>
      <point x="62.362500000000004" y="316.69" type="curve" smooth="yes"/>
      <point x="43.2105" y="316.69"/>
      <point x="38.6825" y="307.77000000000004"/>
    </contour>
  </outline>
</glyph>
<glyph name="uni00B9" format="2">
  <advance width="237.038"/>
  <unicode hex="00B9"/>
  <outline>
    <contour>
      <point x="44.589" y="370.0" type="line"/>
      <point x="225.682" y="370.0" type="line"/>
      <point x="229.059" y="393.785" type="line"/>
      <point x="156.153" y="393.785" type="line"/>
      <point x="216.60500000000002" y="769.602" type="line"/>
      <point x="201.49300000000002" y="769.602" type="line"/>
      <point x="96.489" y="699.266" type="line"/>
      <point x="103.421" y="676.6780000000001" type="line"/>
      <point x="184.726" y="732.0219999999999" type="line"/>
      <point x="130.57600000000002" y="393.785" type="line"/>
      <point x="48.532" y="393.785" type="line"/>
    </contour>
  </outline>
</glyph>
<glyph name="ordmasculine" format="2">
  <advance width="225.68200000000002"/>
  <unicode hex="00BA"/>
  <outline>
    <contour>
      <point x="39.648" y="293.414" type="line"/>
      <point x="187.07099999999997" y="293.414" type="line"/>
      <point x="190.224" y="316.337" type="line"/>
      <point x="42.801" y="316.337" type="line"/>
    </contour>
    <component base="o.superior" xOffset="16.19"/>
  </outline>
</glyph>
<glyph name="AE" format="2">
  <advance width="501.73949999999996"/>
  <unicode hex="00C6"/>
  <anchor x="220.879378" y="0.0" name="bottom"/>
  <anchor x="338.4945" y="700.0" name="top"/>
  <outline>
    <contour>
      <point x="203.4155" y="0.0" type="line"/>
      <point x="442.151" y="0.0" type="line"/>
      <point x="447.221" y="32.162499999999994" type="line"/>
      <point x="241.323" y="32.162499999999994" type="line"/>
      <point x="287.7115" y="329.5760000000001" type="line"/>
      <point x="464.92800000000005" y="329.5760000000001" type="line"/>
      <point x="470.04299999999995" y="361.0635" type="line"/>
      <point x="292.759" y="361.0635" type="line"/>
      <point x="341.31" y="667.4999999999999" type="line"/>
      <point x="536.417" y="667.4999999999999" type="line"/>
      <point x="542.4725000000001" y="700.0" type="line"/>
      <point x="291.6185" y="700.0" type="line"/>
      <point x="-37.010999999999996" y="0.0" type="line"/>
      <point x="-0.6915000000000002" y="0.0" type="line"/>
      <point x="147.12949999999998" y="314.186" type="line"/>
      <point x="252.399" y="314.186" type="line"/>
    </contour>
    <contour>
      <point x="160.54600000000002" y="346.0785" type="line"/>
      <point x="307.91450000000003" y="667.5809999999999" type="line"/>
      <point x="257.424" y="346.0785" type="line"/>
    </contour>
  </outline>
</glyph>
<glyph name="multiply" format="2">
  <advance width="345.36600000000004"/>
  <unicode hex="00D7"/>
  <outline>
    <contour>
      <point x="45.044000000000004" y="83.9525" type="line"/>
      <point x="170.6325" y="262.929" type="line"/>
      <point x="238.79699999999997" y="84.4445" type="line"/>
      <point x="265.6795" y="103.70949999999999" type="line"/>
      <point x="193.555" y="292.44049999999993" type="line"/>
      <point x="328.078" y="483.5445000000001" type="line"/>
      <point x="306.143" y="502.8015" type="line"/>
      <point x="178.9595" y="322.25899999999996" type="line"/>
      <point x="110.20499999999998" y="502.8015" type="line"/>
      <point x="83.25500000000001" y="483.6265" type="line"/>
      <point x="155.1865" y="293.463" type="line"/>
      <point x="23.0415" y="103.16449999999999" type="line"/>
    </contour>
  </outline>
</glyph>
<glyph name="Oslash" format="2">
  <advance width="389.13000000000005"/>
  <unicode hex="00D8"/>
  <anchor x="255.58999999999997" y="700.0" name="top"/>
  <outline>
    <contour>
      <point x="413.0" y="710.0" type="line"/>
      <point x="382.96000000000004" y="710.0" type="line"/>
      <point x="344.22499999999997" y="644.9599999999999" type="line"/>
      <point x="342.115" y="645.14" type="line"/>
      <point x="56.255" y="87.39999999999999" type="line"/>
      <point x="54.28" y="87.715" type="line"/>
      <point x="-0.7899999999999997" y="-9.1" type="line"/>
      <point x="29.09" y="-9.1" type="line"/>
      <point x="68.31" y="57.34" type="line"/>
      <point x="70.42" y="57.160000000000004" type="line"/>
      <point x="356.57" y="614.41" type="line"/>
      <point x="358.545" y="614.095" type="line"/>
    </contour>
    <contour>
      <point x="156.26" y="-9.91" type="curve" smooth="yes"/>
      <point x="297.18499999999995" y="-9.91"/>
      <point x="383.94500000000005" y="277.295"/>
      <point x="383.94500000000005" y="528.6199999999999" type="curve" smooth="yes"/>
      <point x="383.94500000000005" y="656.115"/>
      <point x="342.9" y="709.91"/>
      <point x="257.02" y="709.91" type="curve" smooth="yes"/>
      <point x="116.77" y="709.91"/>
      <point x="29.335" y="422.75"/>
      <point x="29.335" y="171.47" type="curve" smooth="yes"/>
      <point x="29.335" y="43.839999999999996"/>
      <point x="70.38" y="-9.91"/>
    </contour>
    <contour>
      <point x="157.93" y="21.5" type="curve" smooth="yes"/>
      <point x="93.5" y="21.5"/>
      <point x="62.105" y="63.78"/>
      <point x="62.105" y="170.915" type="curve" smooth="yes"/>
      <point x="62.105" y="403.255"/>
      <point x="145.26000000000002" y="678.5"/>
      <point x="255.79999999999998" y="678.5" type="curve" smooth="yes"/>
      <point x="319.96" y="678.5"/>
      <point x="351.31" y="636.355"/>
      <point x="351.31" y="529.355" type="curve" smooth="yes"/>
      <point x="351.31" y="298.455"/>
      <point x="268.11" y="21.5"/>
    </contour>
  </outline>
</glyph>
<glyph name="Thorn" format="2">
  <advance width="331.54"/>
  <unicode hex="00DE"/>
  <outline>
    <contour>
      <point x="6.205" y="0.0" type="line"/>
      <point x="39.31250000000001" y="0.0" type="line"/>
      <point x="67.51" y="175.665" type="line"/>
      <point x="90.4775" y="174.16750000000002"/>
      <point x="116.2475" y="174.145"/>
      <point x="143.45749999999998" y="174.145" type="curve" smooth="yes"/>
      <point x="258.7625" y="174.145"/>
      <point x="333.1475" y="286.38"/>
      <point x="333.1475" y="466.26500000000004" type="curve" smooth="yes"/>
      <point x="333.1475" y="561.345"/>
      <point x="294.2525" y="607.09"/>
      <point x="201.165" y="607.09" type="curve" smooth="yes"/>
      <point x="183.9725" y="607.09"/>
      <point x="163.8025" y="606.1575"/>
      <point x="134.215" y="603.655" type="curve"/>
      <point x="149.5375" y="700.0" type="line"/>
      <point x="116.43" y="700.0" type="line"/>
    </contour>
    <contour>
      <point x="140.9175" y="205.63" type="curve" smooth="yes"/>
      <point x="108.255" y="205.63"/>
      <point x="92.72250000000001" y="206.54"/>
      <point x="72.7825" y="208.1075" type="curve"/>
      <point x="129.98749999999998" y="571.0125" type="line"/>
      <point x="160.98000000000002" y="574.4"/>
      <point x="179.51500000000001" y="575.4"/>
      <point x="196.72500000000002" y="575.4" type="curve" smooth="yes"/>
      <point x="268.61" y="575.4"/>
      <point x="300.2425" y="543.7275"/>
      <point x="300.2425" y="460.59" type="curve" smooth="yes"/>
      <point x="300.2425" y="308.36"/>
      <point x="240.69250000000002" y="205.63"/>
    </contour>
  </outline>
</glyph>
<glyph name="germandbls" format="2">
  <advance width="365.6225"/>
  <unicode hex="00DF"/>
  <outline>
    <contour>
      <point x="17.715" y="-59.475" type="line" smooth="yes"/>
      <point x="5.050000000000001" y="-138.24"/>
      <point x="-15.1825" y="-190.5975"/>
      <point x="-69.94500000000001" y="-190.5975" type="curve" smooth="yes"/>
      <point x="-84.3375" y="-190.5975"/>
      <point x="-96.25" y="-188.7325"/>
      <point x="-113.0025" y="-183.3225" type="curve"/>
      <point x="-120.895" y="-211.4425" type="line"/>
      <point x="-104.7975" y="-217.595"/>
      <point x="-86.2875" y="-220.0"/>
      <point x="-66.75500000000001" y="-220.0" type="curve" smooth="yes"/>
      <point x="1.6075" y="-220.0"/>
      <point x="33.809999999999995" y="-165.425"/>
      <point x="49.597500000000004" y="-64.5875" type="curve" smooth="yes"/>
      <point x="144.8875" y="539.3375" type="line" smooth="yes"/>
      <point x="163.1475" y="652.9425"/>
      <point x="200.1925" y="717.9975"/>
      <point x="271.31749999999994" y="717.9975" type="curve" smooth="yes"/>
      <point x="310.59" y="717.9975"/>
      <point x="333.73249999999996" y="700.58"/>
      <point x="333.73249999999996" y="656.4375000000001" type="curve" smooth="yes"/>
      <point x="333.73249999999996" y="612.41"/>
      <point x="316.9525" y="583.8924999999999"/>
      <point x="265.5175" y="540.1875" type="curve" smooth="yes"/>
      <point x="207.29500000000002" y="490.415"/>
      <point x="181.6075" y="452.15250000000003"/>
      <point x="181.6075" y="387.83500000000004" type="curve" smooth="yes"/>
      <point x="181.6075" y="337.595"/>
      <point x="208.795" y="296.8175"/>
      <point x="256.215" y="247.63" type="curve" smooth="yes"/>
      <point x="295.8" y="207.515"/>
      <point x="309.87249999999995" y="181.13250000000002"/>
      <point x="309.87249999999995" y="140.01" type="curve" smooth="yes"/>
      <point x="309.87249999999995" y="74.005"/>
      <point x="263.78000000000003" y="22.4625"/>
      <point x="200.1825" y="22.4625" type="curve" smooth="yes"/>
      <point x="170.28" y="22.4625"/>
      <point x="139.72250000000003" y="30.1225"/>
      <point x="114.22999999999999" y="41.965" type="curve"/>
      <point x="102.5075" y="12.857500000000002" type="line"/>
      <point x="128.49749999999997" y="-1.3"/>
      <point x="164.68999999999997" y="-10.0"/>
      <point x="199.09" y="-10.0" type="curve" smooth="yes"/>
      <point x="286.90999999999997" y="-10.0"/>
      <point x="343.2975" y="54.5625"/>
      <point x="343.2975" y="145.20250000000001" type="curve" smooth="yes"/>
      <point x="343.2975" y="193.785"/>
      <point x="324.09000000000003" y="226.43499999999997"/>
      <point x="276.8275" y="276.87499999999994" type="curve" smooth="yes"/>
      <point x="231.59" y="326.7"/>
      <point x="213.33499999999998" y="352.5175"/>
      <point x="213.33499999999998" y="392.92999999999995" type="curve" smooth="yes"/>
      <point x="213.33499999999998" y="439.5775"/>
      <point x="233.73" y="470.145"/>
      <point x="287.2675" y="518.15" type="curve" smooth="yes"/>
      <point x="345.99249999999995" y="570.455"/>
      <point x="366.72" y="603.8975"/>
      <point x="366.72" y="661.405" type="curve" smooth="yes"/>
      <point x="366.72" y="722.265"/>
      <point x="331.77" y="750.0"/>
      <point x="272.89500000000004" y="750.0" type="curve" smooth="yes"/>
      <point x="181.1875" y="750.0"/>
      <point x="134.06750000000002" y="680.9225"/>
      <point x="112.705" y="542.6075" type="curve" smooth="yes"/>
      <point x="104.47" y="487.6675" type="line"/>
      <point x="42.2475" y="481.215" type="line"/>
      <point x="37.9725" y="456.33500000000004" type="line"/>
      <point x="98.42" y="456.33500000000004" type="line"/>
    </contour>
  </outline>
</glyph>
<glyph name="ae" format="2">
  <advance width="510.385"/>
  <unicode hex="00E6"/>
  <anchor x="225.36999999999998" y="0.0" name="bottom"/>
  <anchor x="298.425" y="531.8" name="top"/>
  <outline>
    <contour>
      <point x="116.31" y="-10.0" type="curve" smooth="yes"/>
      <point x="148.22" y="-10.0"/>
      <point x="174.92499999999998" y="1.1849999999999998"/>
      <point x="195.62" y="17.845" type="curve"/>
      <point x="191.35" y="-6.755" type="line"/>
      <point x="222.17499999999998" y="-6.755" type="line"/>
      <point x="242.355" y="117.25500000000001" type="line"/>
      <point x="251.31" y="37.63"/>
      <point x="292.445" y="-9.82"/>
      <point x="358.43" y="-9.82" type="curve" smooth="yes"/>
      <point x="395.38" y="-9.82"/>
      <point x="434.785" y="-0.8200000000000001"/>
      <point x="462.41" y="14.805000000000001" type="curve"/>
      <point x="454.33" y="43.36" type="line"/>
      <point x="422.04" y="28.59"/>
      <point x="391.31" y="20.885"/>
      <point x="361.495" y="20.885" type="curve" smooth="yes"/>
      <point x="298.175" y="20.885"/>
      <point x="259.85" y="79.095"/>
      <point x="259.85" y="174.92" type="curve" smooth="yes"/>
      <point x="259.85" y="367.245"/>
      <point x="328.74" y="512.13"/>
      <point x="423.42999999999995" y="512.13" type="curve" smooth="yes"/>
      <point x="466.26" y="512.13"/>
      <point x="484.75" y="488.765"/>
      <point x="484.75" y="449.60999999999996" type="curve" smooth="yes"/>
      <point x="484.75" y="386.625"/>
      <point x="433.65" y="326.085"/>
      <point x="356.36" y="293.66" type="curve" smooth="yes"/>
      <point x="323.32" y="278.96999999999997"/>
      <point x="286.55" y="270.625"/>
      <point x="249.94500000000002" y="267.37" type="curve"/>
      <point x="246.625" y="239.605" type="line"/>
      <point x="282.165" y="242.565"/>
      <point x="323.78" y="250.295"/>
      <point x="359.435" y="265.48" type="curve" smooth="yes"/>
      <point x="453.46500000000003" y="301.91499999999996"/>
      <point x="516.025" y="372.06"/>
      <point x="516.025" y="454.53499999999997" type="curve" smooth="yes"/>
      <point x="516.025" y="509.11999999999995"/>
      <point x="485.555" y="541.8"/>
      <point x="431.235" y="541.8" type="curve" smooth="yes"/>
      <point x="374.44" y="541.8"/>
      <point x="324.875" y="505.25"/>
      <point x="290.64" y="435.08" type="curve"/>
      <point x="307.835" y="540.8" type="line"/>
      <point x="278.075" y="540.8" type="line"/>
      <point x="275.44" y="524.99" type="line"/>
      <point x="259.03" y="536.71"/>
      <point x="237.94" y="541.8"/>
      <point x="219.085" y="541.8" type="curve" smooth="yes"/>
      <point x="104.555" y="541.8"/>
      <point x="19.535" y="382.015"/>
      <point x="19.535" y="144.28" type="curve" smooth="yes"/>
      <point x="19.535" y="43.285"/>
      <point x="53.865" y="-10.0"/>
    </contour>
    <contour>
      <point x="123.61999999999999" y="19.52" type="curve" smooth="yes"/>
      <point x="79.7" y="19.52"/>
      <point x="53.160000000000004" y="65.125"/>
      <point x="53.160000000000004" y="146.345" type="curve" smooth="yes"/>
      <point x="53.160000000000004" y="346.86"/>
      <point x="123.30999999999999" y="512.2"/>
      <point x="219.65" y="512.2" type="curve" smooth="yes"/>
      <point x="237.91" y="512.2"/>
      <point x="256.72" y="507.855"/>
      <point x="270.82" y="494.64" type="curve"/>
      <point x="199.97" y="46.04" type="line"/>
      <point x="179.48000000000002" y="30.575"/>
      <point x="150.43499999999997" y="19.52"/>
    </contour>
  </outline>
</glyph>
<glyph name="eth" format="2">
  <advance width="325.215"/>
  <unicode hex="00F0"/>
  <outline>
    <contour>
      <point x="298.33500000000004" y="471.745" type="curve"/>
      <point x="305.245" y="501.53" type="line"/>
      <point x="285.025" y="523.06"/>
      <point x="251.8" y="534.1800000000001"/>
      <point x="216.405" y="534.1800000000001" type="curve" smooth="yes"/>
      <point x="82.47" y="534.1800000000001"/>
      <point x="18.515" y="310.78"/>
      <point x="18.515" y="130.375" type="curve" smooth="yes"/>
      <point x="18.515" y="33.394999999999996"/>
      <point x="54.57" y="-9.955"/>
      <point x="123.69500000000001" y="-9.955" type="curve" smooth="yes"/>
      <point x="214.84" y="-9.955"/>
      <point x="261.09499999999997" y="69.385"/>
      <point x="298.91" y="306.60999999999996" type="curve" smooth="yes"/>
      <point x="313.44" y="399.15500000000003"/>
      <point x="321.92" y="470.135"/>
      <point x="321.92" y="526.9250000000001" type="curve" smooth="yes"/>
      <point x="321.92" y="653.23"/>
      <point x="274.19000000000005" y="714.095"/>
      <point x="172.4" y="714.095" type="curve" smooth="yes"/>
      <point x="149.97" y="714.095"/>
      <point x="123.3" y="710.605"/>
      <point x="96.805" y="704.38" type="curve"/>
      <point x="100.03" y="676.96" type="line"/>
      <point x="124.72" y="682.235"/>
      <point x="144.215" y="685.55"/>
      <point x="168.865" y="685.55" type="curve" smooth="yes"/>
      <point x="250.33" y="685.55"/>
      <point x="289.51500000000004" y="639.12"/>
      <point x="289.51500000000004" y="529.14" type="curve" smooth="yes"/>
      <point x="289.51500000000004" y="474.47999999999996"/>
      <point x="282.235" y="401.31"/>
      <point x="267.115" y="309.865" type="curve" smooth="yes"/>
      <point x="230.955" y="90.64500000000001"/>
      <point x="192.73" y="17.959999999999997"/>
      <point x="125.955" y="17.959999999999997" type="curve" smooth="yes"/>
      <point x="75.665" y="17.959999999999997"/>
      <point x="50.175" y="51.940000000000005"/>
      <point x="50.175" y="125.88" type="curve" smooth="yes"/>
      <point x="50.175" y="282.54"/>
      <point x="105.725" y="506.15500000000003"/>
      <point x="218.63" y="506.15500000000003" type="curve" smooth="yes"/>
      <point x="247.92499999999998" y="506.15500000000003"/>
      <point x="277.26000000000005" y="498.105"/>
    </contour>
    <contour>
      <point x="142.41" y="567.2249999999999" type="line"/>
      <point x="271.45500000000004" y="649.815" type="line"/>
      <point x="271.755" y="650.625" type="line"/>
      <point x="380.53000000000003" y="719.785" type="line"/>
      <point x="340.585" y="719.785" type="line"/>
      <point x="258.58000000000004" y="668.1850000000001" type="line"/>
      <point x="258.345" y="667.51" type="line"/>
      <point x="101.94" y="567.2249999999999" type="line"/>
    </contour>
  </outline>
</glyph>
<glyph name="divide" format="2">
  <advance width="363.32099999999997"/>
  <unicode hex="00F7"/>
  <outline>
    <contour>
      <point x="131.21299999999997" y="88.893" type="curve" smooth="yes"/>
      <point x="130.21299999999997" y="77.70599999999999"/>
      <point x="133.57399999999998" y="73.988"/>
      <point x="148.09199999999998" y="73.988" type="curve" smooth="yes"/>
      <point x="168.39600000000002" y="73.988"/>
      <point x="171.80800000000002" y="78.318"/>
      <point x="174.62800000000001" y="106.043" type="curve" smooth="yes"/>
      <point x="175.62800000000001" y="118.10300000000001"/>
      <point x="170.61100000000002" y="120.94800000000001"/>
      <point x="157.14600000000002" y="120.94800000000001" type="curve" smooth="yes"/>
      <point x="138.003" y="120.94800000000001"/>
      <point x="134.033" y="115.31300000000002"/>
    </contour>
    <contour>
      <point x="193.81" y="479.157" type="curve" smooth="yes"/>
      <point x="192.81" y="468.015"/>
      <point x="196.126" y="464.387"/>
      <point x="210.554" y="464.387" type="curve" smooth="yes"/>
      <point x="230.85800000000003" y="464.387"/>
      <point x="234.35999999999999" y="468.76200000000006"/>
      <point x="237.17999999999998" y="496.307" type="curve" smooth="yes"/>
      <point x="238.17999999999998" y="508.41200000000003"/>
      <point x="233.20800000000003" y="511.25700000000006"/>
      <point x="219.698" y="511.25700000000006" type="curve" smooth="yes"/>
      <point x="200.24" y="511.25700000000006"/>
      <point x="196.63" y="505.262"/>
    </contour>
    <contour>
      <point x="42.283" y="276.165" type="line"/>
      <point x="322.056" y="276.165" type="line"/>
      <point x="327.25299999999993" y="309.215" type="line"/>
      <point x="47.434999999999995" y="309.215" type="line"/>
    </contour>
  </outline>
</glyph>
<glyph name="oslash" format="2">
  <advance width="315.815"/>
  <unicode hex="00F8"/>
  <anchor x="199.995" y="531.8" name="top"/>
  <outline>
    <contour>
      <point x="300.3" y="541.23" type="line"/>
      <point x="267.49" y="484.45000000000005" type="line"/>
      <point x="265.38" y="484.675" type="line"/>
      <point x="40.055" y="75.65" type="line"/>
      <point x="38.169999999999995" y="76.055" type="line"/>
      <point x="-11.24" y="-10.0" type="line"/>
      <point x="17.265" y="-10.0" type="line"/>
      <point x="48.995" y="43.599999999999994" type="line"/>
      <point x="51.15" y="43.375" type="line"/>
      <point x="276.775" y="453.615" type="line"/>
      <point x="278.615" y="453.21" type="line"/>
      <point x="328.805" y="541.23" type="line"/>
    </contour>
    <contour>
      <point x="121.33" y="-10.0" type="curve" smooth="yes"/>
      <point x="246.42000000000002" y="-10.0"/>
      <point x="295.78000000000003" y="267.84"/>
      <point x="295.78000000000003" y="411.96500000000003" type="curve" smooth="yes"/>
      <point x="295.78000000000003" y="510.80500000000006"/>
      <point x="260.435" y="541.23"/>
      <point x="193.955" y="541.23" type="curve" smooth="yes"/>
      <point x="69.21" y="541.23"/>
      <point x="19.325" y="261.53"/>
      <point x="19.325" y="118.89999999999999" type="curve" smooth="yes"/>
      <point x="19.325" y="19.740000000000002"/>
      <point x="54.01" y="-10.0"/>
    </contour>
    <contour>
      <point x="121.875" y="19.58" type="curve" smooth="yes"/>
      <point x="75.875" y="19.535"/>
      <point x="50.355000000000004" y="41.245000000000005"/>
      <point x="50.31" y="118.44500000000001" type="curve" smooth="yes"/>
      <point x="50.220000000000006" y="227.795"/>
      <point x="96.22500000000001" y="511.56"/>
      <point x="193.57" y="511.65000000000003" type="curve" smooth="yes"/>
      <point x="238.66" y="511.695"/>
      <point x="264.79499999999996" y="488.825"/>
      <point x="264.84" y="412.215" type="curve" smooth="yes"/>
      <point x="264.93" y="300.94000000000005"/>
      <point x="219.61" y="19.669999999999998"/>
    </contour>
  </outline>
</glyph>
<glyph name="thorn" format="2">
  <advance width="322.6775"/>
  <unicode hex="00FE"/>
  <outline>
    <contour>
      <point x="-24.153" y="-210.0" type="line"/>
      <point x="7.910500000000001" y="-210.0" type="line"/>
      <point x="41.1835" y="-1.226" type="line"/>
      <point x="58.7335" y="-6.638"/>
      <point x="77.32449999999999" y="-9.842500000000001"/>
      <point x="99.95649999999999" y="-9.842500000000001" type="curve" smooth="yes"/>
      <point x="224.315" y="-9.842500000000001"/>
      <point x="302.14099999999996" y="184.19"/>
      <point x="302.14099999999996" y="386.49050000000005" type="curve" smooth="yes"/>
      <point x="302.14099999999996" y="493.716"/>
      <point x="272.912" y="541.8"/>
      <point x="209.42300000000003" y="541.8" type="curve" smooth="yes"/>
      <point x="176.2805" y="541.8"/>
      <point x="150.03199999999998" y="529.0604999999999"/>
      <point x="122.2725" y="512.5625" type="curve"/>
      <point x="158.7745" y="740.0" type="line"/>
      <point x="125.84700000000001" y="740.0" type="line"/>
    </contour>
    <contour>
      <point x="96.7445" y="20.421" type="curve" smooth="yes"/>
      <point x="77.571" y="20.421"/>
      <point x="60.14999999999999" y="23.651"/>
      <point x="46.118500000000004" y="29.7235" type="curve"/>
      <point x="117.5615" y="480.91499999999996" type="line"/>
      <point x="141.3075" y="497.4065"/>
      <point x="174.19650000000001" y="509.89399999999995"/>
      <point x="198.4855" y="509.89399999999995" type="curve" smooth="yes"/>
      <point x="245.315" y="509.89399999999995"/>
      <point x="268.76349999999996" y="468.45"/>
      <point x="268.76349999999996" y="381.5095" type="curve" smooth="yes"/>
      <point x="268.76349999999996" y="200.67000000000002"/>
      <point x="200.38000000000002" y="20.421"/>
    </contour>
  </outline>
</glyph>
<glyph name="Dcroat" format="2">
  <advance width="380.234"/>
  <unicode hex="0110"/>
  <outline>
    <contour>
      <point x="20.761" y="345.20050000000003" type="line"/>
      <point x="199.845" y="345.20050000000003" type="line"/>
      <point x="205.095" y="375.64750000000004" type="line"/>
      <point x="26.175" y="375.64750000000004" type="line"/>
    </contour>
    <component base="D" xOffset="6.8084999999999996"/>
  </outline>
</glyph>
<glyph name="dcroat" format="2">
  <advance width="326.28650000000005"/>
  <unicode hex="0111"/>
  <outline>
    <contour>
      <point x="180.869" y="619.6965" type="line"/>
      <point x="383.83500000000004" y="619.6965" type="line"/>
      <point x="388.00500000000005" y="642.5699999999999" type="line"/>
      <point x="185.10649999999998" y="642.5699999999999" type="line"/>
    </contour>
    <component base="d"/>
  </outline>
</glyph>
<glyph name="Hbar" format="2">
  <advance width="390.68199999999996"/>
  <unicode hex="0126"/>
  <outline>
    <contour>
      <point x="44.057" y="501.683" type="line"/>
      <point x="418.616" y="501.683" type="line"/>
      <point x="422.71400000000006" y="529.2339999999999" type="line"/>
      <point x="48.155" y="529.2339999999999" type="line"/>
    </contour>
    <component base="H" xOffset="1.3239999999999998"/>
  </outline>
</glyph>
<glyph name="hbar" format="2">
  <advance width="328.65500000000003"/>
  <unicode hex="0127"/>
  <outline>
    <contour>
      <point x="55.967999999999996" y="619.6965" type="line"/>
      <point x="233.28449999999998" y="619.6965" type="line"/>
      <point x="237.40949999999998" y="642.5699999999999" type="line"/>
      <point x="60.092999999999996" y="642.5699999999999" type="line"/>
    </contour>
    <component base="h" xOffset="0.585"/>
  </outline>
</glyph>
<glyph name="Idotaccent" format="2">
  <advance width="135.833"/>
  <unicode hex="0130"/>
  <outline>
    <contour>
      <point x="159.929" y="852.64" type="curve" smooth="yes"/>
      <point x="139.657" y="852.64"/>
      <point x="136.13299999999998" y="844.72"/>
      <point x="133.585" y="816.335" type="curve" smooth="yes"/>
      <point x="132.766" y="804.331"/>
      <point x="139.918" y="801.8190000000001"/>
      <point x="150.219" y="801.8190000000001" type="curve" smooth="yes"/>
      <point x="170.775" y="801.8190000000001"/>
      <point x="174.09699999999998" y="809.775"/>
      <point x="176.736" y="838.3050000000001" type="curve" smooth="yes"/>
      <point x="177.55499999999998" y="850.209"/>
      <point x="170.595" y="852.64"/>
    </contour>
    <component base="I"/>
  </outline>
</glyph>
<glyph name="dotlessi" format="2">
  <advance width="136.743"/>
  <unicode hex="0131"/>
  <anchor x="23.960996" y="0.0" name="bottom"/>
  <anchor x="40.905" y="0.0" name="ogonek"/>
  <anchor x="108.323004" y="531.8" name="top"/>
  <outline>
    <contour>
      <point x="40.905" y="0.0" type="line"/>
      <point x="125.166" y="531.8" type="line"/>
      <point x="92.20700000000001" y="531.8" type="line"/>
      <point x="8.747" y="0.009" type="line"/>
    </contour>
  </outline>
</glyph>
<glyph name="kgreenlandic" format="2">
  <advance width="304.925"/>
  <unicode hex="0138"/>
  <anchor x="118.715" y="0.0" name="bottom"/>
  <anchor x="195.025" y="531.8" name="top"/>
  <outline>
    <contour>
      <point x="8.255" y="0.0" type="line"/>
      <point x="40.724999999999994" y="0.0" type="line"/>
      <point x="124.745" y="531.8" type="line"/>
      <point x="92.23" y="531.8" type="line"/>
    </contour>
    <contour>
      <point x="259.095" y="-10.0" type="curve" smooth="yes"/>
      <point x="266.45" y="-10.0"/>
      <point x="273.80499999999995" y="-8.75"/>
      <point x="281.705" y="-5.435" type="curve"/>
      <point x="281.04" y="25.255" type="line"/>
      <point x="274.86" y="23.435"/>
      <point x="269.565" y="22.615"/>
      <point x="265.135" y="22.749999999999996" type="curve" smooth="yes"/>
      <point x="238.18" y="23.425"/>
      <point x="214.09" y="55.945"/>
      <point x="164.04500000000002" y="173.235" type="curve" smooth="yes"/>
      <point x="89.14" y="345.26" type="line"/>
      <point x="75.82000000000001" y="303.61" type="line"/>
      <point x="151.235" y="126.95" type="line" smooth="yes"/>
      <point x="196.335" y="20.9"/>
      <point x="221.81" y="-10.0"/>
    </contour>
    <contour>
      <point x="125.75" y="245.65" type="line"/>
      <point x="207.885" y="308.16999999999996"/>
      <point x="281.90999999999997" y="415.28999999999996"/>
      <point x="324.90500000000003" y="532.85" type="curve"/>
      <point x="294.52000000000004" y="540.98" type="line"/>
      <point x="247.97" y="419.34499999999997"/>
      <point x="192.78" y="336.79499999999996"/>
      <point x="111.22" y="272.72" type="curve"/>
    </contour>
  </outline>
</glyph>
<glyph name="Ldot" format="2">
  <advance width="271.076"/>
  <unicode hex="013F"/>
  <outline>
    <contour>
      <point x="196.305838" y="359.179922" type="curve" smooth="yes"/>
      <point x="194.57683799999998" y="343.538462"/>
      <point x="197.334622" y="339.32575899999995"/>
      <point x="211.645055" y="339.32575899999995" type="curve" smooth="yes"/>
      <point x="228.609191" y="339.32575899999995"/>
      <point x="231.435948" y="345.733679"/>
      <point x="233.346948" y="365.250004" type="curve" smooth="yes"/>
      <point x="235.075948" y="379.98249100000004"/>
      <point x="233.137164" y="385.014194"/>
      <point x="218.889677" y="385.014194" type="curve" smooth="yes"/>
      <point x="201.988568" y="385.014194"/>
      <point x="198.21683800000002" y="378.66024699999997"/>
    </contour>
    <component base="L"/>
  </outline>
</glyph>
<glyph name="ldot" format="2">
  <advance width="194.872"/>
  <unicode hex="0140"/>
  <outline>
    <contour>
      <point x="163.94861" y="356.265845" type="curve" smooth="yes"/>
      <point x="162.21961000000002" y="340.839458"/>
      <point x="164.78549599999997" y="336.74660800000004"/>
      <point x="178.684629" y="336.74660800000004" type="curve" smooth="yes"/>
      <point x="195.15806700000002" y="336.74660800000004"/>
      <point x="197.69051499999998" y="342.966599"/>
      <point x="199.601515" y="362.174116" type="curve" smooth="yes"/>
      <point x="201.330515" y="376.687183"/>
      <point x="199.58362899999997" y="381.599033"/>
      <point x="185.742465" y="381.599033" type="curve" smooth="yes"/>
      <point x="169.326906" y="381.599033"/>
      <point x="165.85961" y="375.448999"/>
    </contour>
    <component base="l"/>
  </outline>
</glyph>
<glyph name="Lslash" format="2">
  <advance width="277.961"/>
  <unicode hex="0141"/>
  <outline>
    <contour>
      <point x="12.18" y="0.0" type="line"/>
      <point x="226.366" y="0.0" type="line"/>
      <point x="231.481" y="32.113" type="line"/>
      <point x="50.308" y="32.113" type="line"/>
      <point x="89.37599999999999" y="276.831" type="line"/>
      <point x="230.53199999999998" y="388.577" type="line"/>
      <point x="236.85399999999998" y="427.695" type="line"/>
      <point x="95.53599999999999" y="315.868" type="line"/>
      <point x="156.328" y="700.0" type="line"/>
      <point x="123.29700000000001" y="700.0" type="line"/>
      <point x="58.606" y="290.503" type="line"/>
      <point x="9.668" y="250.96800000000002" type="line"/>
      <point x="2.7880000000000007" y="211.07600000000002" type="line"/>
      <point x="51.626999999999995" y="250.602" type="line"/>
    </contour>
  </outline>
</glyph>
<glyph name="lslash" format="2">
  <advance width="154.02999999999997"/>
  <unicode hex="0142"/>
  <outline>
    <contour>
      <point x="-0.7229999999999996" y="192.291" type="line"/>
      <point x="166.195" y="359.019" type="line"/>
      <point x="172.049" y="398.32300000000004" type="line"/>
      <point x="5.041" y="231.595" type="line"/>
    </contour>
    <component base="l" xOffset="1.6199999999999999"/>
  </outline>
</glyph>
<glyph name="Eng" format="2">
  <advance width="383.40250000000003"/>
  <unicode hex="014A"/>
  <outline>
    <contour>
      <point x="6.1825" y="0.0" type="line"/>
      <point x="38.212500000000006" y="0.0" type="line"/>
      <point x="135.85500000000002" y="623.5249999999999" type="line"/>
      <point x="256.99499999999995" y="1.19" type="line"/>
      <point x="245.5325" y="-83.195"/>
      <point x="203.61" y="-110.42"/>
      <point x="146.36" y="-110.42" type="curve" smooth="yes"/>
      <point x="128.9175" y="-110.51"/>
      <point x="110.56500000000001" y="-107.2325"/>
      <point x="92.80749999999999" y="-102.07000000000001" type="curve"/>
      <point x="85.58" y="-136.785" type="line"/>
      <point x="106.2225" y="-142.12750000000003"/>
      <point x="125.72250000000001" y="-144.65249999999997"/>
      <point x="144.20250000000001" y="-144.65249999999997" type="curve" smooth="yes"/>
      <point x="239.3125" y="-144.24750000000003"/>
      <point x="275.845" y="-88.32"/>
      <point x="290.29249999999996" y="1.835" type="curve" smooth="yes"/>
      <point x="401.1075" y="700.0" type="line"/>
      <point x="369.28249999999997" y="700.0" type="line"/>
      <point x="272.44249999999994" y="79.6925" type="line"/>
      <point x="152.9325" y="700.91" type="line"/>
      <point x="116.54500000000002" y="700.91" type="line"/>
    </contour>
  </outline>
</glyph>
<glyph name="eng" format="2">
  <advance width="325.71799999999996"/>
  <unicode hex="014B"/>
  <outline>
    <contour>
      <point x="219.543" y="-62.942" type="curve" smooth="yes"/>
      <point x="289.284" y="385.15000000000003"/>
      <point x="302.353" y="464.045"/>
      <point x="302.353" y="472.76399999999995" type="curve" smooth="yes"/>
      <point x="302.353" y="513.6800000000001"/>
      <point x="276.579" y="541.8"/>
      <point x="227.574" y="541.8" type="curve" smooth="yes"/>
      <point x="191.29500000000002" y="541.8"/>
      <point x="152.641" y="526.9320000000001"/>
      <point x="119.184" y="507.19599999999997" type="curve"/>
      <point x="123.501" y="531.8" type="line"/>
      <point x="92.19800000000001" y="531.8" type="line"/>
      <point x="8.019000000000002" y="0.0" type="line"/>
      <point x="40.114" y="0.0" type="line"/>
      <point x="116.337" y="478.09499999999997" type="line"/>
      <point x="145.93" y="496.817"/>
      <point x="182.787" y="510.983"/>
      <point x="211.371" y="510.983" type="curve" smooth="yes"/>
      <point x="251.046" y="510.983"/>
      <point x="268.276" y="493.134"/>
      <point x="268.204" y="460.384" type="curve" smooth="yes"/>
      <point x="268.096" y="452.67800000000005"/>
      <point x="261.45599999999996" y="410.472"/>
      <point x="187.854" y="-58.815000000000005" type="curve" smooth="yes"/>
      <point x="175.582" y="-136.16799999999998"/>
      <point x="154.14200000000002" y="-187.38199999999998"/>
      <point x="99.892" y="-187.38199999999998" type="curve" smooth="yes"/>
      <point x="90.211" y="-187.38199999999998"/>
      <point x="82.10700000000001" y="-186.381"/>
      <point x="71.263" y="-183.57999999999998" type="curve"/>
      <point x="63.086000000000006" y="-216.29399999999998" type="line"/>
      <point x="74.47200000000001" y="-219.184"/>
      <point x="88.947" y="-220.546"/>
      <point x="103.043" y="-220.546" type="curve" smooth="yes"/>
      <point x="167.86" y="-220.546"/>
      <point x="203.589" y="-168.715"/>
    </contour>
  </outline>
</glyph>
<glyph name="OE" format="2">
  <advance width="546.4725"/>
  <unicode hex="0152"/>
  <outline>
    <contour>
      <point x="486.884" y="0.0" type="line"/>
      <point x="491.99899999999997" y="32.162499999999994" type="line"/>
      <point x="286.0705" y="32.162499999999994" type="line"/>
      <point x="335.964" y="348.08" type="line"/>
      <point x="514.9265" y="348.08" type="line"/>
      <point x="520.0865000000001" y="379.5675" type="line"/>
      <point x="341.07899999999995" y="379.5675" type="line"/>
      <point x="386.12500000000006" y="667.5" type="line"/>
      <point x="581.15" y="667.5" type="line"/>
      <point x="587.2055" y="700.0" type="line"/>
      <point x="387.01" y="700.0" type="line"/>
      <point x="360.66049999999996" y="703.5754999999999"/>
      <point x="329.22799999999995" y="710.0"/>
      <point x="296.18850000000003" y="710.0" type="curve" smooth="yes"/>
      <point x="132.90699999999998" y="710.0"/>
      <point x="32.468500000000006" y="503.83600000000007"/>
      <point x="32.468500000000006" y="180.51850000000002" type="curve" smooth="yes"/>
      <point x="32.468500000000006" y="40.73700000000001"/>
      <point x="81.539" y="-10.0"/>
      <point x="191.8365" y="-10.0" type="curve" smooth="yes"/>
      <point x="212.93699999999998" y="-10.0"/>
      <point x="243.20150000000004" y="-6.2395"/>
      <point x="277.30150000000003" y="0.0" type="curve"/>
    </contour>
    <contour>
      <point x="252.0" y="27.317000000000004" type="line"/>
      <point x="228.82099999999997" y="22.445499999999996"/>
      <point x="210.21300000000002" y="21.1545"/>
      <point x="191.90249999999997" y="21.1545" type="curve" smooth="yes"/>
      <point x="96.35000000000001" y="21.1545"/>
      <point x="65.59049999999999" y="74.94"/>
      <point x="65.59049999999999" y="187.528" type="curve" smooth="yes"/>
      <point x="65.59049999999999" y="477.21000000000004"/>
      <point x="157.6435" y="679.0885"/>
      <point x="293.6465" y="679.0885" type="curve" smooth="yes"/>
      <point x="312.695" y="679.0885"/>
      <point x="342.3485" y="674.5305000000001"/>
      <point x="353.93550000000005" y="672.4195000000001" type="curve"/>
    </contour>
  </outline>
</glyph>
<glyph name="oe" format="2">
  <advance width="527.83"/>
  <unicode hex="0153"/>
  <outline>
    <contour>
      <point x="121.77" y="-10.0" type="curve" smooth="yes"/>
      <point x="180.755" y="-10.0"/>
      <point x="224.60000000000002" y="54.985"/>
      <point x="250.13" y="142.625" type="curve"/>
      <point x="257.82" y="43.07"/>
      <point x="299.86500000000007" y="-10.0"/>
      <point x="371.97499999999997" y="-10.0" type="curve" smooth="yes"/>
      <point x="409.87" y="-10.0"/>
      <point x="450.71500000000003" y="-0.8200000000000001"/>
      <point x="479.24" y="14.805000000000001" type="curve"/>
      <point x="470.34999999999997" y="43.855" type="line"/>
      <point x="437.61" y="28.994999999999997"/>
      <point x="405.89" y="21.2"/>
      <point x="376.75" y="21.2" type="curve" smooth="yes"/>
      <point x="313.995" y="21.2"/>
      <point x="276.86" y="76.385"/>
      <point x="276.86" y="174.055" type="curve" smooth="yes"/>
      <point x="276.86" y="370.00500000000005"/>
      <point x="347.40000000000003" y="512.13"/>
      <point x="440.26" y="512.13" type="curve" smooth="yes"/>
      <point x="482.635" y="512.13"/>
      <point x="501.715" y="488.96999999999997"/>
      <point x="501.715" y="448.78999999999996" type="curve" smooth="yes"/>
      <point x="501.715" y="385.875"/>
      <point x="450.40999999999997" y="326.14500000000004"/>
      <point x="373.19" y="293.46999999999997" type="curve" smooth="yes"/>
      <point x="342.72" y="280.6"/>
      <point x="308.5" y="272.14"/>
      <point x="274.89500000000004" y="268.885" type="curve"/>
      <point x="269.825" y="240.015" type="line"/>
      <point x="305.84499999999997" y="243.43"/>
      <point x="344.275" y="251.5"/>
      <point x="376.21999999999997" y="264.615" type="curve" smooth="yes"/>
      <point x="470.25" y="301.78"/>
      <point x="532.855" y="372.265"/>
      <point x="532.855" y="454.53499999999997" type="curve" smooth="yes"/>
      <point x="532.855" y="509.11999999999995"/>
      <point x="501.125" y="541.8"/>
      <point x="444.375" y="541.8" type="curve" smooth="yes"/>
      <point x="378.975" y="541.8"/>
      <point x="324.25" y="493.58"/>
      <point x="290.84000000000003" y="413.04" type="curve"/>
      <point x="289.165" y="501.95"/>
      <point x="262.805" y="541.23"/>
      <point x="190.61" y="541.23" type="curve" smooth="yes"/>
      <point x="69.75999999999999" y="541.23"/>
      <point x="17.94" y="261.48499999999996"/>
      <point x="17.94" y="119.125" type="curve" smooth="yes"/>
      <point x="17.94" y="20.01"/>
      <point x="52.4" y="-10.0"/>
    </contour>
    <contour>
      <point x="122.63" y="20.12" type="curve" smooth="yes"/>
      <point x="75.48" y="20.12"/>
      <point x="49.915" y="40.92999999999999"/>
      <point x="49.870000000000005" y="118.265" type="curve" smooth="yes"/>
      <point x="49.78" y="227.975"/>
      <point x="98.56" y="511.065"/>
      <point x="190.045" y="511.11" type="curve" smooth="yes"/>
      <point x="236.285" y="511.11"/>
      <point x="262.51000000000005" y="489.275"/>
      <point x="262.55500000000006" y="412.39500000000004" type="curve" smooth="yes"/>
      <point x="262.64500000000004" y="301.48"/>
      <point x="214.50500000000002" y="20.165000000000003"/>
    </contour>
  </outline>
</glyph>
<glyph name="uni0162" format="2">
  <advance width="286.992"/>
  <unicode hex="0162"/>
  <anchor x="99.535609" y="0.0" name="_bottom"/>
  <anchor x="57.454" y="-220.0" name="bottom"/>
  <outline>
    <contour>
      <point x="14.177000000000003" y="-207.171" type="line"/>
      <point x="28.098000000000003" y="-216.91"/>
      <point x="43.23" y="-220.0"/>
      <point x="58.273" y="-220.0" type="curve" smooth="yes"/>
      <point x="108.522" y="-220.0"/>
      <point x="132.25" y="-162.893"/>
      <point x="132.25" y="-104.82799999999999" type="curve" smooth="yes"/>
      <point x="132.25" y="-67.71900000000001"/>
      <point x="124.327" y="-29.953000000000003"/>
      <point x="112.533" y="1.193" type="curve"/>
      <point x="86.734" y="0.657" type="line"/>
      <point x="98.667" y="-35.563"/>
      <point x="105.67999999999999" y="-69.477"/>
      <point x="105.67999999999999" y="-101.896" type="curve" smooth="yes"/>
      <point x="105.67999999999999" y="-158.989"/>
      <point x="85.82800000000002" y="-192.937"/>
      <point x="56.29" y="-192.937" type="curve" smooth="yes"/>
      <point x="44.361000000000004" y="-192.937"/>
      <point x="33.830000000000005" y="-189.116"/>
      <point x="23.438" y="-182.494" type="curve"/>
    </contour>
    <component base="T"/>
  </outline>
</glyph>
